%TF.GenerationSoftware,KiCad,Pcbnew,(5.1.6)-1*%
%TF.CreationDate,2021-02-18T17:35:45+01:00*%
%TF.ProjectId,pihpsdr Controller,70696870-7364-4722-9043-6f6e74726f6c,rev?*%
%TF.SameCoordinates,Original*%
%TF.FileFunction,Legend,Top*%
%TF.FilePolarity,Positive*%
%FSLAX46Y46*%
G04 Gerber Fmt 4.6, Leading zero omitted, Abs format (unit mm)*
G04 Created by KiCad (PCBNEW (5.1.6)-1) date 2021-02-18 17:35:45*
%MOMM*%
%LPD*%
G01*
G04 APERTURE LIST*
%ADD10C,0.200000*%
%ADD11C,0.100000*%
%ADD12C,0.120000*%
%ADD13C,0.254000*%
%ADD14C,0.150000*%
G04 APERTURE END LIST*
D10*
%TO.C,SW16*%
X203000000Y-139500000D02*
X203000000Y-144500000D01*
X197000000Y-139500000D02*
X197000000Y-144500000D01*
X201200000Y-139000000D02*
X198800000Y-139000000D01*
X201200000Y-145000000D02*
X198800000Y-145000000D01*
X196829880Y-146527000D02*
G75*
G03*
X196829880Y-146527000I-102880J0D01*
G01*
%TO.C,SW15*%
X188000000Y-139500000D02*
X188000000Y-144500000D01*
X182000000Y-139500000D02*
X182000000Y-144500000D01*
X186200000Y-139000000D02*
X183800000Y-139000000D01*
X186200000Y-145000000D02*
X183800000Y-145000000D01*
X181829880Y-146527000D02*
G75*
G03*
X181829880Y-146527000I-102880J0D01*
G01*
%TO.C,SW14*%
X173000000Y-139500000D02*
X173000000Y-144500000D01*
X167000000Y-139500000D02*
X167000000Y-144500000D01*
X171200000Y-139000000D02*
X168800000Y-139000000D01*
X171200000Y-145000000D02*
X168800000Y-145000000D01*
X166829880Y-146527000D02*
G75*
G03*
X166829880Y-146527000I-102880J0D01*
G01*
%TO.C,SW13*%
X158000000Y-139500000D02*
X158000000Y-144500000D01*
X152000000Y-139500000D02*
X152000000Y-144500000D01*
X156200000Y-139000000D02*
X153800000Y-139000000D01*
X156200000Y-145000000D02*
X153800000Y-145000000D01*
X151829880Y-146527000D02*
G75*
G03*
X151829880Y-146527000I-102880J0D01*
G01*
%TO.C,SW12*%
X143000000Y-139500000D02*
X143000000Y-144500000D01*
X137000000Y-139500000D02*
X137000000Y-144500000D01*
X141200000Y-139000000D02*
X138800000Y-139000000D01*
X141200000Y-145000000D02*
X138800000Y-145000000D01*
X136829880Y-146527000D02*
G75*
G03*
X136829880Y-146527000I-102880J0D01*
G01*
%TO.C,SW11*%
X128000000Y-139500000D02*
X128000000Y-144500000D01*
X122000000Y-139500000D02*
X122000000Y-144500000D01*
X126200000Y-139000000D02*
X123800000Y-139000000D01*
X126200000Y-145000000D02*
X123800000Y-145000000D01*
X121829880Y-146527000D02*
G75*
G03*
X121829880Y-146527000I-102880J0D01*
G01*
%TO.C,SW10*%
X113000000Y-139500000D02*
X113000000Y-144500000D01*
X107000000Y-139500000D02*
X107000000Y-144500000D01*
X111200000Y-139000000D02*
X108800000Y-139000000D01*
X111200000Y-145000000D02*
X108800000Y-145000000D01*
X106829880Y-146527000D02*
G75*
G03*
X106829880Y-146527000I-102880J0D01*
G01*
%TO.C,SW9*%
X252000000Y-103500000D02*
X252000000Y-98500000D01*
X258000000Y-103500000D02*
X258000000Y-98500000D01*
X253800000Y-104000000D02*
X256200000Y-104000000D01*
X253800000Y-98000000D02*
X256200000Y-98000000D01*
X258375880Y-96473000D02*
G75*
G03*
X258375880Y-96473000I-102880J0D01*
G01*
%TO.C,SW8*%
X237000000Y-103500000D02*
X237000000Y-98500000D01*
X243000000Y-103500000D02*
X243000000Y-98500000D01*
X238800000Y-104000000D02*
X241200000Y-104000000D01*
X238800000Y-98000000D02*
X241200000Y-98000000D01*
X243375880Y-96473000D02*
G75*
G03*
X243375880Y-96473000I-102880J0D01*
G01*
%TO.C,SW7*%
X252000000Y-91500000D02*
X252000000Y-86500000D01*
X258000000Y-91500000D02*
X258000000Y-86500000D01*
X253800000Y-92000000D02*
X256200000Y-92000000D01*
X253800000Y-86000000D02*
X256200000Y-86000000D01*
X258375880Y-84473000D02*
G75*
G03*
X258375880Y-84473000I-102880J0D01*
G01*
%TO.C,SW6*%
X237000000Y-91500000D02*
X237000000Y-86500000D01*
X243000000Y-91500000D02*
X243000000Y-86500000D01*
X238800000Y-92000000D02*
X241200000Y-92000000D01*
X238800000Y-86000000D02*
X241200000Y-86000000D01*
X243375880Y-84473000D02*
G75*
G03*
X243375880Y-84473000I-102880J0D01*
G01*
%TO.C,SW5*%
X252000000Y-76500000D02*
X252000000Y-71500000D01*
X258000000Y-76500000D02*
X258000000Y-71500000D01*
X253800000Y-77000000D02*
X256200000Y-77000000D01*
X253800000Y-71000000D02*
X256200000Y-71000000D01*
X258375880Y-69473000D02*
G75*
G03*
X258375880Y-69473000I-102880J0D01*
G01*
%TO.C,SW4*%
X237000000Y-76500000D02*
X237000000Y-71500000D01*
X243000000Y-76500000D02*
X243000000Y-71500000D01*
X238800000Y-77000000D02*
X241200000Y-77000000D01*
X238800000Y-71000000D02*
X241200000Y-71000000D01*
X243375880Y-69473000D02*
G75*
G03*
X243375880Y-69473000I-102880J0D01*
G01*
%TO.C,SW3*%
X252000000Y-64500000D02*
X252000000Y-59500000D01*
X258000000Y-64500000D02*
X258000000Y-59500000D01*
X253800000Y-65000000D02*
X256200000Y-65000000D01*
X253800000Y-59000000D02*
X256200000Y-59000000D01*
X258375880Y-57473000D02*
G75*
G03*
X258375880Y-57473000I-102880J0D01*
G01*
%TO.C,SW2*%
X237000000Y-64500000D02*
X237000000Y-59500000D01*
X243000000Y-64500000D02*
X243000000Y-59500000D01*
X238800000Y-65000000D02*
X241200000Y-65000000D01*
X238800000Y-59000000D02*
X241200000Y-59000000D01*
X243375880Y-57473000D02*
G75*
G03*
X243375880Y-57473000I-102880J0D01*
G01*
%TO.C,SW1*%
X252000000Y-44500000D02*
X252000000Y-39500000D01*
X258000000Y-44500000D02*
X258000000Y-39500000D01*
X253800000Y-45000000D02*
X256200000Y-45000000D01*
X253800000Y-39000000D02*
X256200000Y-39000000D01*
X258375880Y-37473000D02*
G75*
G03*
X258375880Y-37473000I-102880J0D01*
G01*
%TO.C,SW0*%
X257500000Y-25500000D02*
X252500000Y-25500000D01*
X257500000Y-19500000D02*
X252500000Y-19500000D01*
X258000000Y-23700000D02*
X258000000Y-21300000D01*
X252000000Y-23700000D02*
X252000000Y-21300000D01*
X250575880Y-19227000D02*
G75*
G03*
X250575880Y-19227000I-102880J0D01*
G01*
%TO.C,ENC5*%
X237400000Y-50700000D02*
G75*
G02*
X237600000Y-50700000I100000J0D01*
G01*
X237600000Y-50700000D02*
G75*
G02*
X237400000Y-50700000I-100000J0D01*
G01*
X237600000Y-50700000D02*
X237600000Y-50700000D01*
X237400000Y-50700000D02*
X237400000Y-50700000D01*
D11*
X245850000Y-34000000D02*
X245850000Y-39000000D01*
X234150000Y-34000000D02*
X245850000Y-34000000D01*
X234150000Y-39000000D02*
X234150000Y-34000000D01*
X245850000Y-48500000D02*
X245850000Y-45000000D01*
X234150000Y-48500000D02*
X245850000Y-48500000D01*
X234150000Y-45000000D02*
X234150000Y-48500000D01*
D10*
%TO.C,ENC4*%
X87400000Y-150700000D02*
G75*
G02*
X87600000Y-150700000I100000J0D01*
G01*
X87600000Y-150700000D02*
G75*
G02*
X87400000Y-150700000I-100000J0D01*
G01*
X87600000Y-150700000D02*
X87600000Y-150700000D01*
X87400000Y-150700000D02*
X87400000Y-150700000D01*
D11*
X95850000Y-134000000D02*
X95850000Y-139000000D01*
X84150000Y-134000000D02*
X95850000Y-134000000D01*
X84150000Y-139000000D02*
X84150000Y-134000000D01*
X95850000Y-148500000D02*
X95850000Y-145000000D01*
X84150000Y-148500000D02*
X95850000Y-148500000D01*
X84150000Y-145000000D02*
X84150000Y-148500000D01*
D10*
%TO.C,ENC3*%
X64900000Y-150700000D02*
G75*
G02*
X65100000Y-150700000I100000J0D01*
G01*
X65100000Y-150700000D02*
G75*
G02*
X64900000Y-150700000I-100000J0D01*
G01*
X65100000Y-150700000D02*
X65100000Y-150700000D01*
X64900000Y-150700000D02*
X64900000Y-150700000D01*
D11*
X73350000Y-134000000D02*
X73350000Y-139000000D01*
X61650000Y-134000000D02*
X73350000Y-134000000D01*
X61650000Y-139000000D02*
X61650000Y-134000000D01*
X73350000Y-148500000D02*
X73350000Y-145000000D01*
X61650000Y-148500000D02*
X73350000Y-148500000D01*
X61650000Y-145000000D02*
X61650000Y-148500000D01*
D10*
%TO.C,ENC2*%
X42400000Y-150700000D02*
G75*
G02*
X42600000Y-150700000I100000J0D01*
G01*
X42600000Y-150700000D02*
G75*
G02*
X42400000Y-150700000I-100000J0D01*
G01*
X42600000Y-150700000D02*
X42600000Y-150700000D01*
X42400000Y-150700000D02*
X42400000Y-150700000D01*
D11*
X50850000Y-134000000D02*
X50850000Y-139000000D01*
X39150000Y-134000000D02*
X50850000Y-134000000D01*
X39150000Y-139000000D02*
X39150000Y-134000000D01*
X50850000Y-148500000D02*
X50850000Y-145000000D01*
X39150000Y-148500000D02*
X50850000Y-148500000D01*
X39150000Y-145000000D02*
X39150000Y-148500000D01*
D12*
%TO.C,D1*%
X245500000Y-22315000D02*
G75*
G03*
X245500000Y-22315000I-2500000J0D01*
G01*
X244545000Y-19755000D02*
X241455000Y-19755000D01*
X243000462Y-25305000D02*
G75*
G02*
X241455170Y-19755000I-462J2990000D01*
G01*
X242999538Y-25305000D02*
G75*
G03*
X244544830Y-19755000I462J2990000D01*
G01*
%TO.C,SW16*%
D13*
X200569047Y-143968095D02*
X200629523Y-143786666D01*
X200629523Y-143484285D01*
X200569047Y-143363333D01*
X200508571Y-143302857D01*
X200387619Y-143242380D01*
X200266666Y-143242380D01*
X200145714Y-143302857D01*
X200085238Y-143363333D01*
X200024761Y-143484285D01*
X199964285Y-143726190D01*
X199903809Y-143847142D01*
X199843333Y-143907619D01*
X199722380Y-143968095D01*
X199601428Y-143968095D01*
X199480476Y-143907619D01*
X199420000Y-143847142D01*
X199359523Y-143726190D01*
X199359523Y-143423809D01*
X199420000Y-143242380D01*
X199359523Y-142819047D02*
X200629523Y-142516666D01*
X199722380Y-142274761D01*
X200629523Y-142032857D01*
X199359523Y-141730476D01*
X200629523Y-140581428D02*
X200629523Y-141307142D01*
X200629523Y-140944285D02*
X199359523Y-140944285D01*
X199540952Y-141065238D01*
X199661904Y-141186190D01*
X199722380Y-141307142D01*
X199359523Y-139492857D02*
X199359523Y-139734761D01*
X199420000Y-139855714D01*
X199480476Y-139916190D01*
X199661904Y-140037142D01*
X199903809Y-140097619D01*
X200387619Y-140097619D01*
X200508571Y-140037142D01*
X200569047Y-139976666D01*
X200629523Y-139855714D01*
X200629523Y-139613809D01*
X200569047Y-139492857D01*
X200508571Y-139432380D01*
X200387619Y-139371904D01*
X200085238Y-139371904D01*
X199964285Y-139432380D01*
X199903809Y-139492857D01*
X199843333Y-139613809D01*
X199843333Y-139855714D01*
X199903809Y-139976666D01*
X199964285Y-140037142D01*
X200085238Y-140097619D01*
%TO.C,SW15*%
X185569047Y-143968095D02*
X185629523Y-143786666D01*
X185629523Y-143484285D01*
X185569047Y-143363333D01*
X185508571Y-143302857D01*
X185387619Y-143242380D01*
X185266666Y-143242380D01*
X185145714Y-143302857D01*
X185085238Y-143363333D01*
X185024761Y-143484285D01*
X184964285Y-143726190D01*
X184903809Y-143847142D01*
X184843333Y-143907619D01*
X184722380Y-143968095D01*
X184601428Y-143968095D01*
X184480476Y-143907619D01*
X184420000Y-143847142D01*
X184359523Y-143726190D01*
X184359523Y-143423809D01*
X184420000Y-143242380D01*
X184359523Y-142819047D02*
X185629523Y-142516666D01*
X184722380Y-142274761D01*
X185629523Y-142032857D01*
X184359523Y-141730476D01*
X185629523Y-140581428D02*
X185629523Y-141307142D01*
X185629523Y-140944285D02*
X184359523Y-140944285D01*
X184540952Y-141065238D01*
X184661904Y-141186190D01*
X184722380Y-141307142D01*
X184359523Y-139432380D02*
X184359523Y-140037142D01*
X184964285Y-140097619D01*
X184903809Y-140037142D01*
X184843333Y-139916190D01*
X184843333Y-139613809D01*
X184903809Y-139492857D01*
X184964285Y-139432380D01*
X185085238Y-139371904D01*
X185387619Y-139371904D01*
X185508571Y-139432380D01*
X185569047Y-139492857D01*
X185629523Y-139613809D01*
X185629523Y-139916190D01*
X185569047Y-140037142D01*
X185508571Y-140097619D01*
%TO.C,SW14*%
X170569047Y-143968095D02*
X170629523Y-143786666D01*
X170629523Y-143484285D01*
X170569047Y-143363333D01*
X170508571Y-143302857D01*
X170387619Y-143242380D01*
X170266666Y-143242380D01*
X170145714Y-143302857D01*
X170085238Y-143363333D01*
X170024761Y-143484285D01*
X169964285Y-143726190D01*
X169903809Y-143847142D01*
X169843333Y-143907619D01*
X169722380Y-143968095D01*
X169601428Y-143968095D01*
X169480476Y-143907619D01*
X169420000Y-143847142D01*
X169359523Y-143726190D01*
X169359523Y-143423809D01*
X169420000Y-143242380D01*
X169359523Y-142819047D02*
X170629523Y-142516666D01*
X169722380Y-142274761D01*
X170629523Y-142032857D01*
X169359523Y-141730476D01*
X170629523Y-140581428D02*
X170629523Y-141307142D01*
X170629523Y-140944285D02*
X169359523Y-140944285D01*
X169540952Y-141065238D01*
X169661904Y-141186190D01*
X169722380Y-141307142D01*
X169782857Y-139492857D02*
X170629523Y-139492857D01*
X169299047Y-139795238D02*
X170206190Y-140097619D01*
X170206190Y-139311428D01*
%TO.C,SW13*%
X155569047Y-143968095D02*
X155629523Y-143786666D01*
X155629523Y-143484285D01*
X155569047Y-143363333D01*
X155508571Y-143302857D01*
X155387619Y-143242380D01*
X155266666Y-143242380D01*
X155145714Y-143302857D01*
X155085238Y-143363333D01*
X155024761Y-143484285D01*
X154964285Y-143726190D01*
X154903809Y-143847142D01*
X154843333Y-143907619D01*
X154722380Y-143968095D01*
X154601428Y-143968095D01*
X154480476Y-143907619D01*
X154420000Y-143847142D01*
X154359523Y-143726190D01*
X154359523Y-143423809D01*
X154420000Y-143242380D01*
X154359523Y-142819047D02*
X155629523Y-142516666D01*
X154722380Y-142274761D01*
X155629523Y-142032857D01*
X154359523Y-141730476D01*
X155629523Y-140581428D02*
X155629523Y-141307142D01*
X155629523Y-140944285D02*
X154359523Y-140944285D01*
X154540952Y-141065238D01*
X154661904Y-141186190D01*
X154722380Y-141307142D01*
X154359523Y-140158095D02*
X154359523Y-139371904D01*
X154843333Y-139795238D01*
X154843333Y-139613809D01*
X154903809Y-139492857D01*
X154964285Y-139432380D01*
X155085238Y-139371904D01*
X155387619Y-139371904D01*
X155508571Y-139432380D01*
X155569047Y-139492857D01*
X155629523Y-139613809D01*
X155629523Y-139976666D01*
X155569047Y-140097619D01*
X155508571Y-140158095D01*
%TO.C,SW12*%
X140569047Y-143968095D02*
X140629523Y-143786666D01*
X140629523Y-143484285D01*
X140569047Y-143363333D01*
X140508571Y-143302857D01*
X140387619Y-143242380D01*
X140266666Y-143242380D01*
X140145714Y-143302857D01*
X140085238Y-143363333D01*
X140024761Y-143484285D01*
X139964285Y-143726190D01*
X139903809Y-143847142D01*
X139843333Y-143907619D01*
X139722380Y-143968095D01*
X139601428Y-143968095D01*
X139480476Y-143907619D01*
X139420000Y-143847142D01*
X139359523Y-143726190D01*
X139359523Y-143423809D01*
X139420000Y-143242380D01*
X139359523Y-142819047D02*
X140629523Y-142516666D01*
X139722380Y-142274761D01*
X140629523Y-142032857D01*
X139359523Y-141730476D01*
X140629523Y-140581428D02*
X140629523Y-141307142D01*
X140629523Y-140944285D02*
X139359523Y-140944285D01*
X139540952Y-141065238D01*
X139661904Y-141186190D01*
X139722380Y-141307142D01*
X139480476Y-140097619D02*
X139420000Y-140037142D01*
X139359523Y-139916190D01*
X139359523Y-139613809D01*
X139420000Y-139492857D01*
X139480476Y-139432380D01*
X139601428Y-139371904D01*
X139722380Y-139371904D01*
X139903809Y-139432380D01*
X140629523Y-140158095D01*
X140629523Y-139371904D01*
%TO.C,SW11*%
X125569047Y-143968095D02*
X125629523Y-143786666D01*
X125629523Y-143484285D01*
X125569047Y-143363333D01*
X125508571Y-143302857D01*
X125387619Y-143242380D01*
X125266666Y-143242380D01*
X125145714Y-143302857D01*
X125085238Y-143363333D01*
X125024761Y-143484285D01*
X124964285Y-143726190D01*
X124903809Y-143847142D01*
X124843333Y-143907619D01*
X124722380Y-143968095D01*
X124601428Y-143968095D01*
X124480476Y-143907619D01*
X124420000Y-143847142D01*
X124359523Y-143726190D01*
X124359523Y-143423809D01*
X124420000Y-143242380D01*
X124359523Y-142819047D02*
X125629523Y-142516666D01*
X124722380Y-142274761D01*
X125629523Y-142032857D01*
X124359523Y-141730476D01*
X125629523Y-140581428D02*
X125629523Y-141307142D01*
X125629523Y-140944285D02*
X124359523Y-140944285D01*
X124540952Y-141065238D01*
X124661904Y-141186190D01*
X124722380Y-141307142D01*
X125629523Y-139371904D02*
X125629523Y-140097619D01*
X125629523Y-139734761D02*
X124359523Y-139734761D01*
X124540952Y-139855714D01*
X124661904Y-139976666D01*
X124722380Y-140097619D01*
%TO.C,SW10*%
X110569047Y-143968095D02*
X110629523Y-143786666D01*
X110629523Y-143484285D01*
X110569047Y-143363333D01*
X110508571Y-143302857D01*
X110387619Y-143242380D01*
X110266666Y-143242380D01*
X110145714Y-143302857D01*
X110085238Y-143363333D01*
X110024761Y-143484285D01*
X109964285Y-143726190D01*
X109903809Y-143847142D01*
X109843333Y-143907619D01*
X109722380Y-143968095D01*
X109601428Y-143968095D01*
X109480476Y-143907619D01*
X109420000Y-143847142D01*
X109359523Y-143726190D01*
X109359523Y-143423809D01*
X109420000Y-143242380D01*
X109359523Y-142819047D02*
X110629523Y-142516666D01*
X109722380Y-142274761D01*
X110629523Y-142032857D01*
X109359523Y-141730476D01*
X110629523Y-140581428D02*
X110629523Y-141307142D01*
X110629523Y-140944285D02*
X109359523Y-140944285D01*
X109540952Y-141065238D01*
X109661904Y-141186190D01*
X109722380Y-141307142D01*
X109359523Y-139795238D02*
X109359523Y-139674285D01*
X109420000Y-139553333D01*
X109480476Y-139492857D01*
X109601428Y-139432380D01*
X109843333Y-139371904D01*
X110145714Y-139371904D01*
X110387619Y-139432380D01*
X110508571Y-139492857D01*
X110569047Y-139553333D01*
X110629523Y-139674285D01*
X110629523Y-139795238D01*
X110569047Y-139916190D01*
X110508571Y-139976666D01*
X110387619Y-140037142D01*
X110145714Y-140097619D01*
X109843333Y-140097619D01*
X109601428Y-140037142D01*
X109480476Y-139976666D01*
X109420000Y-139916190D01*
X109359523Y-139795238D01*
%TO.C,SW9*%
X255459047Y-103023333D02*
X255519523Y-102841904D01*
X255519523Y-102539523D01*
X255459047Y-102418571D01*
X255398571Y-102358095D01*
X255277619Y-102297619D01*
X255156666Y-102297619D01*
X255035714Y-102358095D01*
X254975238Y-102418571D01*
X254914761Y-102539523D01*
X254854285Y-102781428D01*
X254793809Y-102902380D01*
X254733333Y-102962857D01*
X254612380Y-103023333D01*
X254491428Y-103023333D01*
X254370476Y-102962857D01*
X254310000Y-102902380D01*
X254249523Y-102781428D01*
X254249523Y-102479047D01*
X254310000Y-102297619D01*
X254249523Y-101874285D02*
X255519523Y-101571904D01*
X254612380Y-101330000D01*
X255519523Y-101088095D01*
X254249523Y-100785714D01*
X255519523Y-100241428D02*
X255519523Y-99999523D01*
X255459047Y-99878571D01*
X255398571Y-99818095D01*
X255217142Y-99697142D01*
X254975238Y-99636666D01*
X254491428Y-99636666D01*
X254370476Y-99697142D01*
X254310000Y-99757619D01*
X254249523Y-99878571D01*
X254249523Y-100120476D01*
X254310000Y-100241428D01*
X254370476Y-100301904D01*
X254491428Y-100362380D01*
X254793809Y-100362380D01*
X254914761Y-100301904D01*
X254975238Y-100241428D01*
X255035714Y-100120476D01*
X255035714Y-99878571D01*
X254975238Y-99757619D01*
X254914761Y-99697142D01*
X254793809Y-99636666D01*
%TO.C,SW8*%
X240459047Y-103023333D02*
X240519523Y-102841904D01*
X240519523Y-102539523D01*
X240459047Y-102418571D01*
X240398571Y-102358095D01*
X240277619Y-102297619D01*
X240156666Y-102297619D01*
X240035714Y-102358095D01*
X239975238Y-102418571D01*
X239914761Y-102539523D01*
X239854285Y-102781428D01*
X239793809Y-102902380D01*
X239733333Y-102962857D01*
X239612380Y-103023333D01*
X239491428Y-103023333D01*
X239370476Y-102962857D01*
X239310000Y-102902380D01*
X239249523Y-102781428D01*
X239249523Y-102479047D01*
X239310000Y-102297619D01*
X239249523Y-101874285D02*
X240519523Y-101571904D01*
X239612380Y-101330000D01*
X240519523Y-101088095D01*
X239249523Y-100785714D01*
X239793809Y-100120476D02*
X239733333Y-100241428D01*
X239672857Y-100301904D01*
X239551904Y-100362380D01*
X239491428Y-100362380D01*
X239370476Y-100301904D01*
X239310000Y-100241428D01*
X239249523Y-100120476D01*
X239249523Y-99878571D01*
X239310000Y-99757619D01*
X239370476Y-99697142D01*
X239491428Y-99636666D01*
X239551904Y-99636666D01*
X239672857Y-99697142D01*
X239733333Y-99757619D01*
X239793809Y-99878571D01*
X239793809Y-100120476D01*
X239854285Y-100241428D01*
X239914761Y-100301904D01*
X240035714Y-100362380D01*
X240277619Y-100362380D01*
X240398571Y-100301904D01*
X240459047Y-100241428D01*
X240519523Y-100120476D01*
X240519523Y-99878571D01*
X240459047Y-99757619D01*
X240398571Y-99697142D01*
X240277619Y-99636666D01*
X240035714Y-99636666D01*
X239914761Y-99697142D01*
X239854285Y-99757619D01*
X239793809Y-99878571D01*
%TO.C,SW7*%
X255459047Y-91023333D02*
X255519523Y-90841904D01*
X255519523Y-90539523D01*
X255459047Y-90418571D01*
X255398571Y-90358095D01*
X255277619Y-90297619D01*
X255156666Y-90297619D01*
X255035714Y-90358095D01*
X254975238Y-90418571D01*
X254914761Y-90539523D01*
X254854285Y-90781428D01*
X254793809Y-90902380D01*
X254733333Y-90962857D01*
X254612380Y-91023333D01*
X254491428Y-91023333D01*
X254370476Y-90962857D01*
X254310000Y-90902380D01*
X254249523Y-90781428D01*
X254249523Y-90479047D01*
X254310000Y-90297619D01*
X254249523Y-89874285D02*
X255519523Y-89571904D01*
X254612380Y-89330000D01*
X255519523Y-89088095D01*
X254249523Y-88785714D01*
X254249523Y-88422857D02*
X254249523Y-87576190D01*
X255519523Y-88120476D01*
%TO.C,SW6*%
X240459047Y-91023333D02*
X240519523Y-90841904D01*
X240519523Y-90539523D01*
X240459047Y-90418571D01*
X240398571Y-90358095D01*
X240277619Y-90297619D01*
X240156666Y-90297619D01*
X240035714Y-90358095D01*
X239975238Y-90418571D01*
X239914761Y-90539523D01*
X239854285Y-90781428D01*
X239793809Y-90902380D01*
X239733333Y-90962857D01*
X239612380Y-91023333D01*
X239491428Y-91023333D01*
X239370476Y-90962857D01*
X239310000Y-90902380D01*
X239249523Y-90781428D01*
X239249523Y-90479047D01*
X239310000Y-90297619D01*
X239249523Y-89874285D02*
X240519523Y-89571904D01*
X239612380Y-89330000D01*
X240519523Y-89088095D01*
X239249523Y-88785714D01*
X239249523Y-87757619D02*
X239249523Y-87999523D01*
X239310000Y-88120476D01*
X239370476Y-88180952D01*
X239551904Y-88301904D01*
X239793809Y-88362380D01*
X240277619Y-88362380D01*
X240398571Y-88301904D01*
X240459047Y-88241428D01*
X240519523Y-88120476D01*
X240519523Y-87878571D01*
X240459047Y-87757619D01*
X240398571Y-87697142D01*
X240277619Y-87636666D01*
X239975238Y-87636666D01*
X239854285Y-87697142D01*
X239793809Y-87757619D01*
X239733333Y-87878571D01*
X239733333Y-88120476D01*
X239793809Y-88241428D01*
X239854285Y-88301904D01*
X239975238Y-88362380D01*
%TO.C,SW5*%
X255459047Y-76023333D02*
X255519523Y-75841904D01*
X255519523Y-75539523D01*
X255459047Y-75418571D01*
X255398571Y-75358095D01*
X255277619Y-75297619D01*
X255156666Y-75297619D01*
X255035714Y-75358095D01*
X254975238Y-75418571D01*
X254914761Y-75539523D01*
X254854285Y-75781428D01*
X254793809Y-75902380D01*
X254733333Y-75962857D01*
X254612380Y-76023333D01*
X254491428Y-76023333D01*
X254370476Y-75962857D01*
X254310000Y-75902380D01*
X254249523Y-75781428D01*
X254249523Y-75479047D01*
X254310000Y-75297619D01*
X254249523Y-74874285D02*
X255519523Y-74571904D01*
X254612380Y-74330000D01*
X255519523Y-74088095D01*
X254249523Y-73785714D01*
X254249523Y-72697142D02*
X254249523Y-73301904D01*
X254854285Y-73362380D01*
X254793809Y-73301904D01*
X254733333Y-73180952D01*
X254733333Y-72878571D01*
X254793809Y-72757619D01*
X254854285Y-72697142D01*
X254975238Y-72636666D01*
X255277619Y-72636666D01*
X255398571Y-72697142D01*
X255459047Y-72757619D01*
X255519523Y-72878571D01*
X255519523Y-73180952D01*
X255459047Y-73301904D01*
X255398571Y-73362380D01*
%TO.C,SW4*%
X240459047Y-76023333D02*
X240519523Y-75841904D01*
X240519523Y-75539523D01*
X240459047Y-75418571D01*
X240398571Y-75358095D01*
X240277619Y-75297619D01*
X240156666Y-75297619D01*
X240035714Y-75358095D01*
X239975238Y-75418571D01*
X239914761Y-75539523D01*
X239854285Y-75781428D01*
X239793809Y-75902380D01*
X239733333Y-75962857D01*
X239612380Y-76023333D01*
X239491428Y-76023333D01*
X239370476Y-75962857D01*
X239310000Y-75902380D01*
X239249523Y-75781428D01*
X239249523Y-75479047D01*
X239310000Y-75297619D01*
X239249523Y-74874285D02*
X240519523Y-74571904D01*
X239612380Y-74330000D01*
X240519523Y-74088095D01*
X239249523Y-73785714D01*
X239672857Y-72757619D02*
X240519523Y-72757619D01*
X239189047Y-73060000D02*
X240096190Y-73362380D01*
X240096190Y-72576190D01*
%TO.C,SW3*%
X255459047Y-64023333D02*
X255519523Y-63841904D01*
X255519523Y-63539523D01*
X255459047Y-63418571D01*
X255398571Y-63358095D01*
X255277619Y-63297619D01*
X255156666Y-63297619D01*
X255035714Y-63358095D01*
X254975238Y-63418571D01*
X254914761Y-63539523D01*
X254854285Y-63781428D01*
X254793809Y-63902380D01*
X254733333Y-63962857D01*
X254612380Y-64023333D01*
X254491428Y-64023333D01*
X254370476Y-63962857D01*
X254310000Y-63902380D01*
X254249523Y-63781428D01*
X254249523Y-63479047D01*
X254310000Y-63297619D01*
X254249523Y-62874285D02*
X255519523Y-62571904D01*
X254612380Y-62330000D01*
X255519523Y-62088095D01*
X254249523Y-61785714D01*
X254249523Y-61422857D02*
X254249523Y-60636666D01*
X254733333Y-61060000D01*
X254733333Y-60878571D01*
X254793809Y-60757619D01*
X254854285Y-60697142D01*
X254975238Y-60636666D01*
X255277619Y-60636666D01*
X255398571Y-60697142D01*
X255459047Y-60757619D01*
X255519523Y-60878571D01*
X255519523Y-61241428D01*
X255459047Y-61362380D01*
X255398571Y-61422857D01*
%TO.C,SW2*%
X240459047Y-64023333D02*
X240519523Y-63841904D01*
X240519523Y-63539523D01*
X240459047Y-63418571D01*
X240398571Y-63358095D01*
X240277619Y-63297619D01*
X240156666Y-63297619D01*
X240035714Y-63358095D01*
X239975238Y-63418571D01*
X239914761Y-63539523D01*
X239854285Y-63781428D01*
X239793809Y-63902380D01*
X239733333Y-63962857D01*
X239612380Y-64023333D01*
X239491428Y-64023333D01*
X239370476Y-63962857D01*
X239310000Y-63902380D01*
X239249523Y-63781428D01*
X239249523Y-63479047D01*
X239310000Y-63297619D01*
X239249523Y-62874285D02*
X240519523Y-62571904D01*
X239612380Y-62330000D01*
X240519523Y-62088095D01*
X239249523Y-61785714D01*
X239370476Y-61362380D02*
X239310000Y-61301904D01*
X239249523Y-61180952D01*
X239249523Y-60878571D01*
X239310000Y-60757619D01*
X239370476Y-60697142D01*
X239491428Y-60636666D01*
X239612380Y-60636666D01*
X239793809Y-60697142D01*
X240519523Y-61422857D01*
X240519523Y-60636666D01*
%TO.C,SW1*%
X255459047Y-44023333D02*
X255519523Y-43841904D01*
X255519523Y-43539523D01*
X255459047Y-43418571D01*
X255398571Y-43358095D01*
X255277619Y-43297619D01*
X255156666Y-43297619D01*
X255035714Y-43358095D01*
X254975238Y-43418571D01*
X254914761Y-43539523D01*
X254854285Y-43781428D01*
X254793809Y-43902380D01*
X254733333Y-43962857D01*
X254612380Y-44023333D01*
X254491428Y-44023333D01*
X254370476Y-43962857D01*
X254310000Y-43902380D01*
X254249523Y-43781428D01*
X254249523Y-43479047D01*
X254310000Y-43297619D01*
X254249523Y-42874285D02*
X255519523Y-42571904D01*
X254612380Y-42330000D01*
X255519523Y-42088095D01*
X254249523Y-41785714D01*
X255519523Y-40636666D02*
X255519523Y-41362380D01*
X255519523Y-40999523D02*
X254249523Y-40999523D01*
X254430952Y-41120476D01*
X254551904Y-41241428D01*
X254612380Y-41362380D01*
%TO.C,SW0*%
X253636666Y-23069047D02*
X253818095Y-23129523D01*
X254120476Y-23129523D01*
X254241428Y-23069047D01*
X254301904Y-23008571D01*
X254362380Y-22887619D01*
X254362380Y-22766666D01*
X254301904Y-22645714D01*
X254241428Y-22585238D01*
X254120476Y-22524761D01*
X253878571Y-22464285D01*
X253757619Y-22403809D01*
X253697142Y-22343333D01*
X253636666Y-22222380D01*
X253636666Y-22101428D01*
X253697142Y-21980476D01*
X253757619Y-21920000D01*
X253878571Y-21859523D01*
X254180952Y-21859523D01*
X254362380Y-21920000D01*
X254785714Y-21859523D02*
X255088095Y-23129523D01*
X255330000Y-22222380D01*
X255571904Y-23129523D01*
X255874285Y-21859523D01*
X256600000Y-21859523D02*
X256720952Y-21859523D01*
X256841904Y-21920000D01*
X256902380Y-21980476D01*
X256962857Y-22101428D01*
X257023333Y-22343333D01*
X257023333Y-22645714D01*
X256962857Y-22887619D01*
X256902380Y-23008571D01*
X256841904Y-23069047D01*
X256720952Y-23129523D01*
X256600000Y-23129523D01*
X256479047Y-23069047D01*
X256418571Y-23008571D01*
X256358095Y-22887619D01*
X256297619Y-22645714D01*
X256297619Y-22343333D01*
X256358095Y-22101428D01*
X256418571Y-21980476D01*
X256479047Y-21920000D01*
X256600000Y-21859523D01*
%TO.C,ENC5*%
X237822857Y-41147285D02*
X238246190Y-41147285D01*
X238427619Y-41812523D02*
X237822857Y-41812523D01*
X237822857Y-40542523D01*
X238427619Y-40542523D01*
X238971904Y-41812523D02*
X238971904Y-40542523D01*
X239697619Y-41812523D01*
X239697619Y-40542523D01*
X241028095Y-41691571D02*
X240967619Y-41752047D01*
X240786190Y-41812523D01*
X240665238Y-41812523D01*
X240483809Y-41752047D01*
X240362857Y-41631095D01*
X240302380Y-41510142D01*
X240241904Y-41268238D01*
X240241904Y-41086809D01*
X240302380Y-40844904D01*
X240362857Y-40723952D01*
X240483809Y-40603000D01*
X240665238Y-40542523D01*
X240786190Y-40542523D01*
X240967619Y-40603000D01*
X241028095Y-40663476D01*
X242177142Y-40542523D02*
X241572380Y-40542523D01*
X241511904Y-41147285D01*
X241572380Y-41086809D01*
X241693333Y-41026333D01*
X241995714Y-41026333D01*
X242116666Y-41086809D01*
X242177142Y-41147285D01*
X242237619Y-41268238D01*
X242237619Y-41570619D01*
X242177142Y-41691571D01*
X242116666Y-41752047D01*
X241995714Y-41812523D01*
X241693333Y-41812523D01*
X241572380Y-41752047D01*
X241511904Y-41691571D01*
%TO.C,ENC4*%
X87822857Y-141147285D02*
X88246190Y-141147285D01*
X88427619Y-141812523D02*
X87822857Y-141812523D01*
X87822857Y-140542523D01*
X88427619Y-140542523D01*
X88971904Y-141812523D02*
X88971904Y-140542523D01*
X89697619Y-141812523D01*
X89697619Y-140542523D01*
X91028095Y-141691571D02*
X90967619Y-141752047D01*
X90786190Y-141812523D01*
X90665238Y-141812523D01*
X90483809Y-141752047D01*
X90362857Y-141631095D01*
X90302380Y-141510142D01*
X90241904Y-141268238D01*
X90241904Y-141086809D01*
X90302380Y-140844904D01*
X90362857Y-140723952D01*
X90483809Y-140603000D01*
X90665238Y-140542523D01*
X90786190Y-140542523D01*
X90967619Y-140603000D01*
X91028095Y-140663476D01*
X92116666Y-140965857D02*
X92116666Y-141812523D01*
X91814285Y-140482047D02*
X91511904Y-141389190D01*
X92298095Y-141389190D01*
%TO.C,ENC3*%
X65322857Y-141147285D02*
X65746190Y-141147285D01*
X65927619Y-141812523D02*
X65322857Y-141812523D01*
X65322857Y-140542523D01*
X65927619Y-140542523D01*
X66471904Y-141812523D02*
X66471904Y-140542523D01*
X67197619Y-141812523D01*
X67197619Y-140542523D01*
X68528095Y-141691571D02*
X68467619Y-141752047D01*
X68286190Y-141812523D01*
X68165238Y-141812523D01*
X67983809Y-141752047D01*
X67862857Y-141631095D01*
X67802380Y-141510142D01*
X67741904Y-141268238D01*
X67741904Y-141086809D01*
X67802380Y-140844904D01*
X67862857Y-140723952D01*
X67983809Y-140603000D01*
X68165238Y-140542523D01*
X68286190Y-140542523D01*
X68467619Y-140603000D01*
X68528095Y-140663476D01*
X68951428Y-140542523D02*
X69737619Y-140542523D01*
X69314285Y-141026333D01*
X69495714Y-141026333D01*
X69616666Y-141086809D01*
X69677142Y-141147285D01*
X69737619Y-141268238D01*
X69737619Y-141570619D01*
X69677142Y-141691571D01*
X69616666Y-141752047D01*
X69495714Y-141812523D01*
X69132857Y-141812523D01*
X69011904Y-141752047D01*
X68951428Y-141691571D01*
%TO.C,ENC2*%
X42822857Y-141147285D02*
X43246190Y-141147285D01*
X43427619Y-141812523D02*
X42822857Y-141812523D01*
X42822857Y-140542523D01*
X43427619Y-140542523D01*
X43971904Y-141812523D02*
X43971904Y-140542523D01*
X44697619Y-141812523D01*
X44697619Y-140542523D01*
X46028095Y-141691571D02*
X45967619Y-141752047D01*
X45786190Y-141812523D01*
X45665238Y-141812523D01*
X45483809Y-141752047D01*
X45362857Y-141631095D01*
X45302380Y-141510142D01*
X45241904Y-141268238D01*
X45241904Y-141086809D01*
X45302380Y-140844904D01*
X45362857Y-140723952D01*
X45483809Y-140603000D01*
X45665238Y-140542523D01*
X45786190Y-140542523D01*
X45967619Y-140603000D01*
X46028095Y-140663476D01*
X46511904Y-140663476D02*
X46572380Y-140603000D01*
X46693333Y-140542523D01*
X46995714Y-140542523D01*
X47116666Y-140603000D01*
X47177142Y-140663476D01*
X47237619Y-140784428D01*
X47237619Y-140905380D01*
X47177142Y-141086809D01*
X46451428Y-141812523D01*
X47237619Y-141812523D01*
%TO.C,H11*%
D14*
X234761904Y-108652380D02*
X234761904Y-107652380D01*
X234761904Y-108128571D02*
X235333333Y-108128571D01*
X235333333Y-108652380D02*
X235333333Y-107652380D01*
X236333333Y-108652380D02*
X235761904Y-108652380D01*
X236047619Y-108652380D02*
X236047619Y-107652380D01*
X235952380Y-107795238D01*
X235857142Y-107890476D01*
X235761904Y-107938095D01*
X237285714Y-108652380D02*
X236714285Y-108652380D01*
X237000000Y-108652380D02*
X237000000Y-107652380D01*
X236904761Y-107795238D01*
X236809523Y-107890476D01*
X236714285Y-107938095D01*
%TO.C,H9*%
X29838095Y-130652380D02*
X29838095Y-129652380D01*
X29838095Y-130128571D02*
X30409523Y-130128571D01*
X30409523Y-130652380D02*
X30409523Y-129652380D01*
X30933333Y-130652380D02*
X31123809Y-130652380D01*
X31219047Y-130604761D01*
X31266666Y-130557142D01*
X31361904Y-130414285D01*
X31409523Y-130223809D01*
X31409523Y-129842857D01*
X31361904Y-129747619D01*
X31314285Y-129700000D01*
X31219047Y-129652380D01*
X31028571Y-129652380D01*
X30933333Y-129700000D01*
X30885714Y-129747619D01*
X30838095Y-129842857D01*
X30838095Y-130080952D01*
X30885714Y-130176190D01*
X30933333Y-130223809D01*
X31028571Y-130271428D01*
X31219047Y-130271428D01*
X31314285Y-130223809D01*
X31361904Y-130176190D01*
X31409523Y-130080952D01*
%TO.C,H4*%
X193338095Y-101772380D02*
X193338095Y-100772380D01*
X193338095Y-101248571D02*
X193909523Y-101248571D01*
X193909523Y-101772380D02*
X193909523Y-100772380D01*
X194814285Y-101105714D02*
X194814285Y-101772380D01*
X194576190Y-100724761D02*
X194338095Y-101439047D01*
X194957142Y-101439047D01*
%TO.C,H3*%
X67138095Y-101752380D02*
X67138095Y-100752380D01*
X67138095Y-101228571D02*
X67709523Y-101228571D01*
X67709523Y-101752380D02*
X67709523Y-100752380D01*
X68090476Y-100752380D02*
X68709523Y-100752380D01*
X68376190Y-101133333D01*
X68519047Y-101133333D01*
X68614285Y-101180952D01*
X68661904Y-101228571D01*
X68709523Y-101323809D01*
X68709523Y-101561904D01*
X68661904Y-101657142D01*
X68614285Y-101704761D01*
X68519047Y-101752380D01*
X68233333Y-101752380D01*
X68138095Y-101704761D01*
X68090476Y-101657142D01*
%TO.C,H2*%
X193338095Y-36122380D02*
X193338095Y-35122380D01*
X193338095Y-35598571D02*
X193909523Y-35598571D01*
X193909523Y-36122380D02*
X193909523Y-35122380D01*
X194338095Y-35217619D02*
X194385714Y-35170000D01*
X194480952Y-35122380D01*
X194719047Y-35122380D01*
X194814285Y-35170000D01*
X194861904Y-35217619D01*
X194909523Y-35312857D01*
X194909523Y-35408095D01*
X194861904Y-35550952D01*
X194290476Y-36122380D01*
X194909523Y-36122380D01*
%TO.C,H1*%
X67089175Y-36110880D02*
X67089175Y-35110880D01*
X67089175Y-35587071D02*
X67660603Y-35587071D01*
X67660603Y-36110880D02*
X67660603Y-35110880D01*
X68660603Y-36110880D02*
X68089175Y-36110880D01*
X68374889Y-36110880D02*
X68374889Y-35110880D01*
X68279651Y-35253738D01*
X68184413Y-35348976D01*
X68089175Y-35396595D01*
%TO.C,H10*%
X147761904Y-160652380D02*
X147761904Y-159652380D01*
X147761904Y-160128571D02*
X148333333Y-160128571D01*
X148333333Y-160652380D02*
X148333333Y-159652380D01*
X149333333Y-160652380D02*
X148761904Y-160652380D01*
X149047619Y-160652380D02*
X149047619Y-159652380D01*
X148952380Y-159795238D01*
X148857142Y-159890476D01*
X148761904Y-159938095D01*
X149952380Y-159652380D02*
X150047619Y-159652380D01*
X150142857Y-159700000D01*
X150190476Y-159747619D01*
X150238095Y-159842857D01*
X150285714Y-160033333D01*
X150285714Y-160271428D01*
X150238095Y-160461904D01*
X150190476Y-160557142D01*
X150142857Y-160604761D01*
X150047619Y-160652380D01*
X149952380Y-160652380D01*
X149857142Y-160604761D01*
X149809523Y-160557142D01*
X149761904Y-160461904D01*
X149714285Y-160271428D01*
X149714285Y-160033333D01*
X149761904Y-159842857D01*
X149809523Y-159747619D01*
X149857142Y-159700000D01*
X149952380Y-159652380D01*
%TO.C,H8*%
X262238095Y-160652380D02*
X262238095Y-159652380D01*
X262238095Y-160128571D02*
X262809523Y-160128571D01*
X262809523Y-160652380D02*
X262809523Y-159652380D01*
X263428571Y-160080952D02*
X263333333Y-160033333D01*
X263285714Y-159985714D01*
X263238095Y-159890476D01*
X263238095Y-159842857D01*
X263285714Y-159747619D01*
X263333333Y-159700000D01*
X263428571Y-159652380D01*
X263619047Y-159652380D01*
X263714285Y-159700000D01*
X263761904Y-159747619D01*
X263809523Y-159842857D01*
X263809523Y-159890476D01*
X263761904Y-159985714D01*
X263714285Y-160033333D01*
X263619047Y-160080952D01*
X263428571Y-160080952D01*
X263333333Y-160128571D01*
X263285714Y-160176190D01*
X263238095Y-160271428D01*
X263238095Y-160461904D01*
X263285714Y-160557142D01*
X263333333Y-160604761D01*
X263428571Y-160652380D01*
X263619047Y-160652380D01*
X263714285Y-160604761D01*
X263761904Y-160557142D01*
X263809523Y-160461904D01*
X263809523Y-160271428D01*
X263761904Y-160176190D01*
X263714285Y-160128571D01*
X263619047Y-160080952D01*
%TO.C,H7*%
X49238095Y-160652380D02*
X49238095Y-159652380D01*
X49238095Y-160128571D02*
X49809523Y-160128571D01*
X49809523Y-160652380D02*
X49809523Y-159652380D01*
X50190476Y-159652380D02*
X50857142Y-159652380D01*
X50428571Y-160652380D01*
%TO.C,H6*%
X235238095Y-16652380D02*
X235238095Y-15652380D01*
X235238095Y-16128571D02*
X235809523Y-16128571D01*
X235809523Y-16652380D02*
X235809523Y-15652380D01*
X236714285Y-15652380D02*
X236523809Y-15652380D01*
X236428571Y-15700000D01*
X236380952Y-15747619D01*
X236285714Y-15890476D01*
X236238095Y-16080952D01*
X236238095Y-16461904D01*
X236285714Y-16557142D01*
X236333333Y-16604761D01*
X236428571Y-16652380D01*
X236619047Y-16652380D01*
X236714285Y-16604761D01*
X236761904Y-16557142D01*
X236809523Y-16461904D01*
X236809523Y-16223809D01*
X236761904Y-16128571D01*
X236714285Y-16080952D01*
X236619047Y-16033333D01*
X236428571Y-16033333D01*
X236333333Y-16080952D01*
X236285714Y-16128571D01*
X236238095Y-16223809D01*
%TO.C,H5*%
X29838095Y-29652380D02*
X29838095Y-28652380D01*
X29838095Y-29128571D02*
X30409523Y-29128571D01*
X30409523Y-29652380D02*
X30409523Y-28652380D01*
X31361904Y-28652380D02*
X30885714Y-28652380D01*
X30838095Y-29128571D01*
X30885714Y-29080952D01*
X30980952Y-29033333D01*
X31219047Y-29033333D01*
X31314285Y-29080952D01*
X31361904Y-29128571D01*
X31409523Y-29223809D01*
X31409523Y-29461904D01*
X31361904Y-29557142D01*
X31314285Y-29604761D01*
X31219047Y-29652380D01*
X30980952Y-29652380D01*
X30885714Y-29604761D01*
X30838095Y-29557142D01*
%TO.C,D1*%
X247412380Y-23053095D02*
X246412380Y-23053095D01*
X246412380Y-22815000D01*
X246460000Y-22672142D01*
X246555238Y-22576904D01*
X246650476Y-22529285D01*
X246840952Y-22481666D01*
X246983809Y-22481666D01*
X247174285Y-22529285D01*
X247269523Y-22576904D01*
X247364761Y-22672142D01*
X247412380Y-22815000D01*
X247412380Y-23053095D01*
X247412380Y-21529285D02*
X247412380Y-22100714D01*
X247412380Y-21815000D02*
X246412380Y-21815000D01*
X246555238Y-21910238D01*
X246650476Y-22005476D01*
X246698095Y-22100714D01*
%TD*%
M02*
