M48
; DRILL file {KiCad (5.1.6)-1} date 02/18/21 17:35:48
; FORMAT={-:-/ absolute / inch / decimal}
; #@! TF.CreationDate,2021-02-18T17:35:48+01:00
; #@! TF.GenerationSoftware,Kicad,Pcbnew,(5.1.6)-1
; #@! TF.FileFunction,Plated,1,2,PTH
FMAT,2
INCH
T1C0.0157
T2C0.0315
T3C0.0354
T4C0.0382
T5C0.0394
T6C0.0402
T7C0.0433
T8C0.0453
T9C0.0512
T10C0.1063
T11C0.1236
T12C0.1260
T13C0.1378
%
G90
G05
T1
X1.0343Y-3.8435
X1.0343Y-3.9985
X1.0343Y-4.2085
X1.0343Y-4.4385
X1.0343Y-4.7235
X1.0343Y-4.9935
X1.1843Y-4.8135
X1.1893Y-4.0585
X1.1893Y-4.1985
X1.1893Y-4.4735
X1.1893Y-4.6385
X1.1893Y-4.9735
X1.2843Y-5.0685
X1.3243Y-5.8935
X1.3593Y-5.5335
X1.3593Y-5.7235
X1.3943Y-5.2385
X1.4093Y-4.9935
X1.4343Y-3.9435
X1.4493Y-6.1385
X1.5293Y-6.4135
X1.5493Y-6.1585
X1.5643Y-4.8435
X1.5993Y-6.2435
X1.6443Y-1.6385
X1.6443Y-1.7635
X1.6443Y-1.8885
X1.6493Y-3.9435
X1.7043Y-4.9535
X1.7043Y-6.1385
X1.7093Y-4.7285
X1.7843Y-1.8885
X1.8693Y-1.6385
X1.8693Y-1.7635
X1.8693Y-3.9435
X1.8693Y-4.7235
X1.9728Y-2.3021
X2.0143Y-2.2135
X2.0143Y-5.1535
X2.0297Y-1.9796
X2.0693Y-1.8535
X2.0693Y-2.1885
X2.0793Y-4.7135
X2.0807Y-1.8056
X2.0943Y-5.3585
X2.1093Y-1.9435
X2.1143Y-3.9435
X2.1193Y-2.3835
X2.1243Y-4.1785
X2.1243Y-4.3835
X2.1243Y-4.6235
X2.1493Y-2.7235
X2.1493Y-3.0085
X2.1493Y-3.2935
X2.1493Y-3.4685
X2.1543Y-2.0785
X2.1643Y-5.2785
X2.1707Y-3.695
X2.1793Y-2.6185
X2.1993Y-3.6485
X2.2243Y-2.4435
X2.2293Y-2.0435
X2.2293Y-5.9985
X2.2307Y-3.4615
X2.2555Y-3.6327
X2.2593Y-3.695
X2.2593Y-5.7485
X2.2643Y-5.5485
X2.2878Y-4.738
X2.2893Y-2.7235
X2.2893Y-3.0085
X2.2893Y-3.2885
X2.2993Y-1.5585
X2.2993Y-1.971
X2.3343Y-5.3085
X2.3643Y-2.1035
X2.3768Y-2.021
X2.3993Y-4.7985
X2.4043Y-2.5335
X2.4693Y-2.8035
X2.4693Y-3.0085
X2.4693Y-3.2885
X2.4693Y-3.4685
X2.4843Y-2.5335
X2.5093Y-1.8735
X2.5093Y-2.0285
X2.5543Y-6.0035
X2.5643Y-2.5285
X2.5793Y-2.2535
X2.5993Y-4.8035
X2.6143Y-3.7485
X2.6493Y-2.5285
X2.6643Y-3.7685
X2.6743Y-6.0035
X2.6943Y-1.8735
X2.7043Y-3.7885
X2.7293Y-2.1385
X2.7587Y-3.807
X2.8143Y-3.8335
X2.8243Y-6.0185
X2.8393Y-2.5385
X2.8843Y-1.8735
X2.8843Y-2.1385
X2.8893Y-2.0285
X2.9343Y-3.1185
X2.9943Y-2.3835
X3.0193Y-3.1485
X3.0293Y-5.6685
X3.0393Y-4.5985
X3.0393Y-5.4085
X3.0993Y-5.0435
X3.1393Y-6.0085
X3.1493Y-5.5585
X3.1493Y-5.7535
X3.1693Y-3.5035
X3.1843Y-3.8835
X3.2043Y-5.0585
X3.2143Y-5.2885
X3.2643Y-3.5035
X3.3443Y-3.3135
X3.3543Y-2.0885
X3.3543Y-2.3285
X3.3543Y-2.6435
X3.3543Y-3.1335
X3.3793Y-2.1935
X3.4543Y-2.2585
X3.4593Y-3.4235
X3.4843Y-2.0835
X3.4843Y-2.5835
X3.4843Y-3.0485
X3.5893Y-6.0085
X3.6793Y-1.436
X3.7393Y-6.0585
X3.8643Y-4.6485
X3.8643Y-5.3185
X3.8718Y-1.2535
X3.9193Y-5.9185
X3.9393Y-4.6022
X3.9443Y-5.4485
X3.9493Y-4.3035
X3.9643Y-5.6435
X3.9718Y-1.4385
X4.0368Y-1.066
X4.2618Y-1.0685
X4.2618Y-1.436
X4.6193Y-4.6185
X5.3343Y-4.6135
X5.9693Y-4.3035
X6.088Y-4.4071
X6.1377Y-4.3747
X6.2243Y-0.6635
X6.2243Y-1.3135
X6.2693Y-0.8385
X6.3943Y-3.0235
X6.3943Y-3.3385
X6.3943Y-3.5835
X6.3943Y-3.8135
X6.3943Y-4.0835
X6.4043Y-1.6385
X6.4211Y-1.1185
X6.4293Y-2.0885
X6.4293Y-2.3435
X6.4343Y-2.7135
X6.4384Y-4.5615
X6.4568Y-4.4964
X6.467Y-4.5345
X6.4993Y-1.7535
X6.5093Y-1.7985
X6.7361Y-0.9135
X6.7361Y-1.0385
X6.7593Y-0.7735
X6.9643Y-4.8935
X7.0311Y-0.9235
X7.0311Y-1.1435
X7.0343Y-0.7735
X7.1093Y-5.9035
X7.1743Y-0.8485
X7.1843Y-4.7685
X7.2593Y-4.9185
X7.2593Y-4.9835
X7.3189Y-4.7354
X7.3193Y-0.9335
X7.3193Y-1.0435
X7.3343Y-4.8135
X7.4093Y-4.9135
X7.4093Y-4.9835
X7.4543Y-0.6635
X7.5243Y-0.8535
X7.6143Y-0.7435
X7.6493Y-4.8985
X7.6493Y-5.0585
X7.6843Y-3.7535
X7.6943Y-3.3985
X7.6993Y-2.6285
X7.6993Y-3.0485
X7.7043Y-2.3285
X7.7693Y-1.4035
X7.8193Y-2.0835
X7.8243Y-1.6735
X7.8293Y-0.7435
X7.8293Y-0.9785
X7.8343Y-4.2885
X7.8393Y-2.0485
X7.8643Y-3.5985
X7.9343Y-3.9285
X7.9343Y-5.2785
X8.0043Y-0.9935
X8.0143Y-3.1485
X8.0193Y-0.7435
X8.0193Y-2.2635
X8.0193Y-2.5835
X8.0193Y-2.8385
X8.0193Y-3.3735
X8.0243Y-5.0585
X8.1393Y-4.2885
X8.1843Y-1.6735
X8.2193Y-4.8685
X8.2393Y-1.8785
X8.2493Y-1.0535
X8.2693Y-1.4035
X8.2893Y-4.1535
X8.3043Y-1.3085
X8.3093Y-1.7485
X8.3193Y-5.3935
X8.3343Y-4.6735
X8.3443Y-3.5135
X8.3493Y-2.6185
X8.4043Y-0.7435
X8.4893Y-4.9385
X8.5143Y-1.7485
X8.5243Y-4.1535
X8.6393Y-4.2685
X8.6543Y-2.2785
X8.6993Y-1.9485
X8.6993Y-3.9335
X8.7093Y-3.0585
X8.7843Y-0.7435
X8.7843Y-1.3085
X8.8243Y-4.2685
X8.8493Y-1.7385
X8.8993Y-4.6735
X8.8993Y-4.9485
X9.0043Y-1.6335
X9.0743Y-0.7435
X9.1093Y-2.8185
X9.1093Y-3.9835
X9.1393Y-2.0835
X9.1393Y-2.2135
X9.1443Y-4.5335
X9.1893Y-1.8835
X9.2193Y-1.1585
X9.2193Y-2.3135
X9.2193Y-2.6885
X9.2643Y-1.7935
X9.2893Y-1.5085
X9.4343Y-4.2635
T3
X1.4449Y-2.3378
X1.4449Y-2.4378
X1.4449Y-2.5378
X1.4449Y-2.6378
X1.5449Y-2.2878
X1.5449Y-2.3878
X1.5449Y-2.4878
X1.5449Y-2.5878
X9.5669Y-0.8285
X9.5669Y-0.9285
T4
X2.1472Y-4.8882
X2.1472Y-4.9882
X2.2472Y-4.8882
X2.2472Y-4.9882
X2.3472Y-4.8882
X2.3472Y-4.9882
X2.4472Y-4.8882
X2.4472Y-4.9882
X2.5472Y-4.8882
X2.5472Y-4.9882
X2.6472Y-4.8882
X2.6472Y-4.9882
X2.7472Y-4.8882
X2.7472Y-4.9882
X2.8472Y-4.8882
X2.8472Y-4.9882
X2.9472Y-4.8882
X2.9472Y-4.9882
X3.0472Y-4.8882
X3.0472Y-4.9882
X3.1472Y-4.8882
X3.1472Y-4.9882
X3.2472Y-4.8882
X3.2472Y-4.9882
X3.3472Y-4.8882
X3.3472Y-4.9882
X3.4472Y-4.8882
X3.4472Y-4.9882
X3.5472Y-4.8882
X3.5472Y-4.9882
X3.6472Y-4.8882
X3.6472Y-4.9882
X3.7472Y-4.8882
X3.7472Y-4.9882
X3.8472Y-4.8882
X3.8472Y-4.9882
X3.9472Y-4.8882
X3.9472Y-4.9882
X4.0472Y-4.8882
X4.0472Y-4.9882
T5
X1.5536Y-1.7126
X1.5536Y-1.811
X1.5536Y-1.9095
X5.6418Y-4.521
X5.6418Y-4.621
T6
X6.6893Y-2.0185
X6.6893Y-2.1185
X6.6893Y-2.2185
X6.6893Y-2.3185
X6.6893Y-2.4185
X6.6893Y-2.5185
X6.6893Y-2.6185
X6.6893Y-2.7185
X6.6893Y-2.8185
X6.6893Y-2.9185
X6.6893Y-3.0185
X6.6893Y-3.1185
X6.6893Y-3.2185
X6.6893Y-3.3185
X6.6893Y-3.4185
X6.6893Y-3.5185
X6.6893Y-3.6185
X6.6893Y-3.7185
X6.6893Y-3.8185
X6.6893Y-3.9185
X6.9393Y-2.0276
X7.0393Y-2.0276
X7.1393Y-2.0276
X7.3893Y-2.0185
X7.3893Y-2.1185
X7.3893Y-2.2185
X7.3893Y-2.3185
X7.3893Y-2.4185
X7.3893Y-2.5185
X7.3893Y-2.6185
X7.3893Y-2.7185
X7.3893Y-2.8185
X7.3893Y-2.9185
X7.3893Y-3.0185
X7.3893Y-3.1185
X7.3893Y-3.2185
X7.3893Y-3.3185
X7.3893Y-3.4185
X7.3893Y-3.5185
X7.3893Y-3.6185
X7.3893Y-3.7185
X7.3893Y-3.8185
X7.3893Y-3.9185
T7
X9.3602Y-3.376
X9.3602Y-3.6319
X9.5374Y-3.376
X9.5374Y-3.6319
X9.9508Y-2.7854
X9.9508Y-3.0413
X10.128Y-2.7854
X10.128Y-3.0413
X7.4861Y-4.7035
X7.4861Y-4.8035
X7.4861Y-4.9035
X7.4861Y-5.0035
X7.7854Y-5.4626
X7.7854Y-5.7185
X7.9626Y-5.4626
X7.9626Y-5.7185
X9.3602Y-2.7854
X9.3602Y-3.0413
X9.5374Y-2.7854
X9.5374Y-3.0413
X7.1949Y-5.4626
X7.1949Y-5.7185
X7.372Y-5.4626
X7.372Y-5.7185
X9.9508Y-2.313
X9.9508Y-2.5689
X10.128Y-2.313
X10.128Y-2.5689
X4.2421Y-5.4626
X4.2421Y-5.7185
X4.4193Y-5.4626
X4.4193Y-5.7185
X6.0138Y-5.4626
X6.0138Y-5.7185
X6.1909Y-5.4626
X6.1909Y-5.7185
X9.3602Y-2.313
X9.3602Y-2.5689
X9.5374Y-2.313
X9.5374Y-2.5689
X2.5575Y-5.2165
X2.5591Y-5.315
X2.5591Y-5.8858
X2.6575Y-5.2165
X2.6575Y-5.8858
X2.7559Y-5.315
X2.7559Y-5.8858
X2.7575Y-5.2165
X6.6043Y-5.4626
X6.6043Y-5.7185
X6.7815Y-5.4626
X6.7815Y-5.7185
X5.4232Y-5.4626
X5.4232Y-5.7185
X5.6004Y-5.4626
X5.6004Y-5.7185
X9.9508Y-1.5256
X9.9508Y-1.7815
X10.128Y-1.5256
X10.128Y-1.7815
X3.1043Y-2.3685
X3.1043Y-2.4685
X3.1043Y-2.5685
X3.1043Y-2.6685
X9.3488Y-1.2795
X9.3504Y-1.378
X9.3504Y-1.9488
X9.4488Y-1.2795
X9.4488Y-1.9488
X9.5472Y-1.378
X9.5472Y-1.9488
X9.5488Y-1.2795
X9.9508Y-3.8484
X9.9508Y-4.1043
X10.128Y-3.8484
X10.128Y-4.1043
X9.9114Y-0.7972
X9.9114Y-0.9744
X10.1673Y-0.7972
X10.1673Y-0.9744
X3.4433Y-5.2165
X3.4449Y-5.315
X3.4449Y-5.8858
X3.5433Y-5.2165
X3.5433Y-5.8858
X3.6417Y-5.315
X3.6417Y-5.8858
X3.6433Y-5.2165
X4.8327Y-5.4626
X4.8327Y-5.7185
X5.0098Y-5.4626
X5.0098Y-5.7185
X9.9508Y-3.376
X9.9508Y-3.6319
X10.128Y-3.376
X10.128Y-3.6319
X1.6717Y-5.2165
X1.6732Y-5.315
X1.6732Y-5.8858
X1.7717Y-5.2165
X1.7717Y-5.8858
X1.8701Y-5.315
X1.8701Y-5.8858
X1.8717Y-5.2165
X9.3602Y-3.8484
X9.3602Y-4.1043
X9.5374Y-3.8484
X9.5374Y-4.1043
T8
X7.9343Y-2.0035
X8.0343Y-2.0035
X8.1343Y-2.0035
X8.2343Y-2.0035
X8.3343Y-2.0035
T9
X2.7457Y-0.8685
X3.6315Y-0.8685
T10
X1.9555Y-3.0091
X1.9555Y-4.9382
X4.239Y-4.9382
T11
X2.4409Y-5.5906
X2.874Y-5.5906
X9.2323Y-1.6535
X9.6654Y-1.6535
X3.3268Y-5.5906
X3.7598Y-5.5906
X1.5551Y-5.5906
X1.9882Y-5.5906
T12
X1.2047Y-5.2756
X10.3543Y-6.4567
X5.8661Y-6.4567
X9.2913Y-4.4094
X1.9685Y-6.4567
X9.2913Y-0.7874
X1.2047Y-1.2992
T13
X7.6417Y-1.5815
X2.6713Y-1.581
X2.6732Y-4.1654
X7.6417Y-4.1661
T2
G00X1.1599Y-1.7973
M15
G01X1.1599Y-1.8248
M16
G05
G00X1.343Y-1.6142
M15
G01X1.3705Y-1.6142
M16
G05
G00X1.343Y-2.0079
M15
G01X1.3705Y-2.0079
M16
G05
T5
G00X1.1929Y-0.878
M15
G01X1.1929Y-0.8543
M16
G05
G00X1.3228Y-0.6811
M15
G01X1.2992Y-0.6811
M16
G05
G00X1.4291Y-0.878
M15
G01X1.4291Y-0.8543
M16
G05
T0
M30
