%TF.GenerationSoftware,KiCad,Pcbnew,(5.1.6)-1*%
%TF.CreationDate,2021-02-20T22:36:03+01:00*%
%TF.ProjectId,pihpsdr Controller,70696870-7364-4722-9043-6f6e74726f6c,rev?*%
%TF.SameCoordinates,Original*%
%TF.FileFunction,Soldermask,Bot*%
%TF.FilePolarity,Negative*%
%FSLAX46Y46*%
G04 Gerber Fmt 4.6, Leading zero omitted, Abs format (unit mm)*
G04 Created by KiCad (PCBNEW (5.1.6)-1) date 2021-02-20 22:36:03*
%MOMM*%
%LPD*%
G01*
G04 APERTURE LIST*
%ADD10R,1.250000X1.500000*%
%ADD11C,17.900000*%
%ADD12R,2.600000X5.200000*%
%ADD13R,5.450000X8.640000*%
%ADD14R,0.990000X3.160000*%
%ADD15C,1.750000*%
%ADD16R,0.800000X1.100000*%
%ADD17R,2.950000X1.350000*%
%ADD18R,6.600000X5.650000*%
%ADD19R,3.100000X1.900000*%
%ADD20R,2.300000X2.900000*%
%ADD21R,2.900000X2.900000*%
%ADD22C,1.800000*%
%ADD23O,1.608000X3.116000*%
%ADD24O,3.116000X1.608000*%
%ADD25C,1.825000*%
%ADD26R,1.825000X1.825000*%
%ADD27O,2.716000X1.408000*%
%ADD28C,1.608000*%
%ADD29O,1.408000X2.716000*%
%ADD30C,1.300000*%
%ADD31C,6.100000*%
%ADD32C,1.609000*%
%ADD33C,3.270000*%
%ADD34C,1.500000*%
%ADD35R,1.625000X0.800000*%
%ADD36R,0.550000X1.575000*%
%ADD37R,0.750000X1.950000*%
%ADD38C,2.050000*%
%ADD39C,4.808000*%
%ADD40R,0.560000X0.940000*%
%ADD41R,3.250000X2.300000*%
%ADD42R,2.350000X2.450000*%
%ADD43R,2.550000X2.450000*%
%ADD44O,1.800000X1.800000*%
%ADD45R,1.800000X1.800000*%
%ADD46R,1.800000X3.600000*%
%ADD47O,1.600000X1.600000*%
%ADD48O,1.900000X1.900000*%
%ADD49R,3.600000X1.800000*%
%ADD50C,5.700000*%
%ADD51C,0.100000*%
%ADD52R,3.550000X3.550000*%
%ADD53O,0.975000X0.350000*%
%ADD54O,0.350000X0.975000*%
%ADD55C,7.100000*%
%ADD56C,3.100000*%
%ADD57C,1.900000*%
%ADD58R,1.900000X1.900000*%
G04 APERTURE END LIST*
D10*
%TO.C,Y1*%
X66618000Y-50298000D03*
X66618000Y-52498000D03*
X68218000Y-52498000D03*
X68218000Y-50298000D03*
%TD*%
D11*
%TO.C,U2*%
X127616000Y-125693000D03*
D12*
X116166000Y-125693000D03*
X139066000Y-125693000D03*
%TD*%
D13*
%TO.C,U1*%
X203863000Y-35589000D03*
D14*
X207673000Y-28284000D03*
X206403000Y-28284000D03*
X205133000Y-28284000D03*
X203863000Y-28284000D03*
X202593000Y-28284000D03*
X201323000Y-28284000D03*
X200053000Y-28284000D03*
%TD*%
D15*
%TO.C,SW16*%
X202250000Y-138750000D03*
X202250000Y-145250000D03*
X197750000Y-138750000D03*
X197750000Y-145250000D03*
%TD*%
%TO.C,SW15*%
X187250000Y-138750000D03*
X187250000Y-145250000D03*
X182750000Y-138750000D03*
X182750000Y-145250000D03*
%TD*%
%TO.C,SW14*%
X172250000Y-138750000D03*
X172250000Y-145250000D03*
X167750000Y-138750000D03*
X167750000Y-145250000D03*
%TD*%
%TO.C,SW13*%
X157250000Y-138750000D03*
X157250000Y-145250000D03*
X152750000Y-138750000D03*
X152750000Y-145250000D03*
%TD*%
%TO.C,SW12*%
X142250000Y-138750000D03*
X142250000Y-145250000D03*
X137750000Y-138750000D03*
X137750000Y-145250000D03*
%TD*%
%TO.C,SW11*%
X127250000Y-138750000D03*
X127250000Y-145250000D03*
X122750000Y-138750000D03*
X122750000Y-145250000D03*
%TD*%
%TO.C,SW10*%
X112250000Y-138750000D03*
X112250000Y-145250000D03*
X107750000Y-138750000D03*
X107750000Y-145250000D03*
%TD*%
%TO.C,SW9*%
X252750000Y-104250000D03*
X252750000Y-97750000D03*
X257250000Y-104250000D03*
X257250000Y-97750000D03*
%TD*%
%TO.C,SW8*%
X237750000Y-104250000D03*
X237750000Y-97750000D03*
X242250000Y-104250000D03*
X242250000Y-97750000D03*
%TD*%
%TO.C,SW7*%
X252750000Y-92250000D03*
X252750000Y-85750000D03*
X257250000Y-92250000D03*
X257250000Y-85750000D03*
%TD*%
%TO.C,SW6*%
X237750000Y-92250000D03*
X237750000Y-85750000D03*
X242250000Y-92250000D03*
X242250000Y-85750000D03*
%TD*%
%TO.C,SW5*%
X252750000Y-77250000D03*
X252750000Y-70750000D03*
X257250000Y-77250000D03*
X257250000Y-70750000D03*
%TD*%
%TO.C,SW4*%
X237750000Y-77250000D03*
X237750000Y-70750000D03*
X242250000Y-77250000D03*
X242250000Y-70750000D03*
%TD*%
%TO.C,SW3*%
X252750000Y-65250000D03*
X252750000Y-58750000D03*
X257250000Y-65250000D03*
X257250000Y-58750000D03*
%TD*%
%TO.C,SW2*%
X237750000Y-65250000D03*
X237750000Y-58750000D03*
X242250000Y-65250000D03*
X242250000Y-58750000D03*
%TD*%
%TO.C,SW1*%
X252750000Y-45250000D03*
X252750000Y-38750000D03*
X257250000Y-45250000D03*
X257250000Y-38750000D03*
%TD*%
%TO.C,SW0*%
X258250000Y-24750000D03*
X251750000Y-24750000D03*
X258250000Y-20250000D03*
X251750000Y-20250000D03*
%TD*%
D16*
%TO.C,Q2*%
X159921000Y-27211000D03*
X158971000Y-29611000D03*
X160871000Y-29611000D03*
%TD*%
D17*
%TO.C,Q1*%
X159667800Y-19019000D03*
D18*
X166067800Y-21299000D03*
D17*
X159667800Y-23579000D03*
%TD*%
D19*
%TO.C,L3*%
X229330000Y-28284000D03*
X221830000Y-28284000D03*
%TD*%
%TO.C,L2*%
X110324000Y-18822500D03*
X117824000Y-18822500D03*
%TD*%
%TO.C,L1*%
X182358400Y-24855000D03*
X189858400Y-24855000D03*
%TD*%
D20*
%TO.C,J9*%
X27389000Y-148100000D03*
D21*
X36789000Y-148100000D03*
X40889000Y-152550000D03*
D22*
X28489000Y-151800000D03*
X35489000Y-151800000D03*
%TD*%
D23*
%TO.C,J8*%
X36300000Y-22000000D03*
X30300000Y-22000000D03*
D24*
X33300000Y-17300000D03*
%TD*%
D25*
%TO.C,J6*%
X211690000Y-50890000D03*
X209150000Y-50890000D03*
X206610000Y-50890000D03*
X204070000Y-50890000D03*
D26*
X201530000Y-50890000D03*
%TD*%
D22*
%TO.C,J5*%
X28500000Y-163300000D03*
D20*
X29400000Y-167000000D03*
X27400000Y-159600000D03*
D21*
X36800000Y-159600000D03*
D22*
X35500000Y-163300000D03*
%TD*%
D27*
%TO.C,J4*%
X34461500Y-51000500D03*
X34461500Y-41000500D03*
D28*
X39461500Y-43500500D03*
X39461500Y-46000500D03*
X39461500Y-48500500D03*
D29*
X29461500Y-46000500D03*
D30*
X39461500Y-51000500D03*
X39461500Y-41000500D03*
X34461500Y-46000500D03*
X29461500Y-51000500D03*
X26961500Y-51000500D03*
X29461500Y-41000500D03*
X26961500Y-41000500D03*
%TD*%
D31*
%TO.C,J3*%
X49670000Y-76430000D03*
X107670000Y-125430000D03*
X49670000Y-125430000D03*
D32*
X102800000Y-124160000D03*
X100260000Y-124160000D03*
X97720000Y-124160000D03*
X95180000Y-124160000D03*
X92640000Y-124160000D03*
X90100000Y-124160000D03*
X87560000Y-124160000D03*
X85020000Y-124160000D03*
X82480000Y-124160000D03*
X79940000Y-124160000D03*
X77400000Y-124160000D03*
X74860000Y-124160000D03*
X72320000Y-124160000D03*
X69780000Y-124160000D03*
X67240000Y-124160000D03*
X64700000Y-124160000D03*
X62160000Y-124160000D03*
X59620000Y-124160000D03*
X57080000Y-124160000D03*
X54540000Y-124160000D03*
X102800000Y-126700000D03*
X100260000Y-126700000D03*
X97720000Y-126700000D03*
X95180000Y-126700000D03*
X92640000Y-126700000D03*
X90100000Y-126700000D03*
X87560000Y-126700000D03*
X85020000Y-126700000D03*
X82480000Y-126700000D03*
X79940000Y-126700000D03*
X77400000Y-126700000D03*
X74860000Y-126700000D03*
X72320000Y-126700000D03*
X69780000Y-126700000D03*
X67240000Y-126700000D03*
X64700000Y-126700000D03*
X62160000Y-126700000D03*
X59620000Y-126700000D03*
X57080000Y-126700000D03*
X54540000Y-126700000D03*
%TD*%
D15*
%TO.C,J2*%
X78848000Y-60161000D03*
X78848000Y-62701000D03*
X78848000Y-65241000D03*
X78848000Y-67781000D03*
%TD*%
D33*
%TO.C,J1*%
X30350000Y-56840000D03*
X30350000Y-68270000D03*
D34*
X39240000Y-58110000D03*
X36700000Y-59380000D03*
X39240000Y-60650000D03*
X36700000Y-61920000D03*
X39240000Y-63190000D03*
X36700000Y-64460000D03*
X39240000Y-65730000D03*
X36700000Y-67000000D03*
%TD*%
D35*
%TO.C,IC7*%
X91085000Y-119089000D03*
X91085000Y-117819000D03*
X91085000Y-116549000D03*
X91085000Y-115279000D03*
X85661000Y-115279000D03*
X85661000Y-116549000D03*
X85661000Y-117819000D03*
X85661000Y-119089000D03*
%TD*%
D36*
%TO.C,IC3*%
X75352600Y-113103000D03*
X74702600Y-113103000D03*
X74052600Y-113103000D03*
X73402600Y-113103000D03*
X73402600Y-118979000D03*
X74052600Y-118979000D03*
X74702600Y-118979000D03*
X75352600Y-118979000D03*
%TD*%
D37*
%TO.C,IC2*%
X66449000Y-91379000D03*
X67719000Y-91379000D03*
X68989000Y-91379000D03*
X70259000Y-91379000D03*
X71529000Y-91379000D03*
X72799000Y-91379000D03*
X74069000Y-91379000D03*
X75339000Y-91379000D03*
X76609000Y-91379000D03*
X77879000Y-91379000D03*
X79149000Y-91379000D03*
X80419000Y-91379000D03*
X81689000Y-91379000D03*
X82959000Y-91379000D03*
X82959000Y-82029000D03*
X81689000Y-82029000D03*
X80419000Y-82029000D03*
X79149000Y-82029000D03*
X77879000Y-82029000D03*
X76609000Y-82029000D03*
X75339000Y-82029000D03*
X74069000Y-82029000D03*
X72799000Y-82029000D03*
X71529000Y-82029000D03*
X70259000Y-82029000D03*
X68989000Y-82029000D03*
X67719000Y-82029000D03*
X66449000Y-82029000D03*
%TD*%
%TO.C,IC1*%
X223120000Y-108953000D03*
X221850000Y-108953000D03*
X220580000Y-108953000D03*
X219310000Y-108953000D03*
X218040000Y-108953000D03*
X216770000Y-108953000D03*
X215500000Y-108953000D03*
X214230000Y-108953000D03*
X212960000Y-108953000D03*
X211690000Y-108953000D03*
X210420000Y-108953000D03*
X209150000Y-108953000D03*
X207880000Y-108953000D03*
X206610000Y-108953000D03*
X206610000Y-118303000D03*
X207880000Y-118303000D03*
X209150000Y-118303000D03*
X210420000Y-118303000D03*
X211690000Y-118303000D03*
X212960000Y-118303000D03*
X214230000Y-118303000D03*
X215500000Y-118303000D03*
X216770000Y-118303000D03*
X218040000Y-118303000D03*
X219310000Y-118303000D03*
X220580000Y-118303000D03*
X221850000Y-118303000D03*
X223120000Y-118303000D03*
%TD*%
D38*
%TO.C,F1*%
X69740500Y-22061000D03*
X92240500Y-22061000D03*
%TD*%
D39*
%TO.C,ENC5*%
X245500000Y-42000000D03*
X234500000Y-42000000D03*
D15*
X242500000Y-35000000D03*
X237500000Y-35000000D03*
X240000000Y-32500000D03*
X240000000Y-49500000D03*
X242540000Y-32500000D03*
X242500000Y-49500000D03*
X237460000Y-32500000D03*
X237500000Y-49500000D03*
%TD*%
D39*
%TO.C,ENC4*%
X95500000Y-142000000D03*
X84500000Y-142000000D03*
D15*
X92500000Y-135000000D03*
X87500000Y-135000000D03*
X90000000Y-132500000D03*
X90000000Y-149500000D03*
X92540000Y-132500000D03*
X92500000Y-149500000D03*
X87460000Y-132500000D03*
X87500000Y-149500000D03*
%TD*%
D39*
%TO.C,ENC3*%
X73000000Y-142000000D03*
X62000000Y-142000000D03*
D15*
X70000000Y-135000000D03*
X65000000Y-135000000D03*
X67500000Y-132500000D03*
X67500000Y-149500000D03*
X70040000Y-132500000D03*
X70000000Y-149500000D03*
X64960000Y-132500000D03*
X65000000Y-149500000D03*
%TD*%
D39*
%TO.C,ENC2*%
X50500000Y-142000000D03*
X39500000Y-142000000D03*
D15*
X47500000Y-135000000D03*
X42500000Y-135000000D03*
X45000000Y-132500000D03*
X45000000Y-149500000D03*
X47540000Y-132500000D03*
X47500000Y-149500000D03*
X42460000Y-132500000D03*
X42500000Y-149500000D03*
%TD*%
%TO.C,ENC1*%
X190147000Y-127090000D03*
X190147000Y-124550000D03*
X190147000Y-122010000D03*
X190147000Y-119470000D03*
%TD*%
D40*
%TO.C,D3*%
X189054800Y-21661600D03*
X189054800Y-19361600D03*
%TD*%
D41*
%TO.C,D2*%
X98072000Y-25053000D03*
X98072000Y-18053000D03*
%TD*%
D42*
%TO.C,C32*%
X220373000Y-44704000D03*
X220373000Y-39804000D03*
%TD*%
%TO.C,C29*%
X217071000Y-33147000D03*
X217071000Y-28247000D03*
%TD*%
D43*
%TO.C,C22*%
X195735000Y-22263000D03*
X195735000Y-28463000D03*
%TD*%
%TO.C,C18*%
X104422000Y-24272000D03*
X104422000Y-18072000D03*
%TD*%
%TO.C,R69*%
G36*
G01*
X182382738Y-127998000D02*
X183339262Y-127998000D01*
G75*
G02*
X183611000Y-128269738I0J-271738D01*
G01*
X183611000Y-128976262D01*
G75*
G02*
X183339262Y-129248000I-271738J0D01*
G01*
X182382738Y-129248000D01*
G75*
G02*
X182111000Y-128976262I0J271738D01*
G01*
X182111000Y-128269738D01*
G75*
G02*
X182382738Y-127998000I271738J0D01*
G01*
G37*
G36*
G01*
X182382738Y-125948000D02*
X183339262Y-125948000D01*
G75*
G02*
X183611000Y-126219738I0J-271738D01*
G01*
X183611000Y-126926262D01*
G75*
G02*
X183339262Y-127198000I-271738J0D01*
G01*
X182382738Y-127198000D01*
G75*
G02*
X182111000Y-126926262I0J271738D01*
G01*
X182111000Y-126219738D01*
G75*
G02*
X182382738Y-125948000I271738J0D01*
G01*
G37*
%TD*%
%TO.C,R68*%
G36*
G01*
X183339262Y-123388000D02*
X182382738Y-123388000D01*
G75*
G02*
X182111000Y-123116262I0J271738D01*
G01*
X182111000Y-122409738D01*
G75*
G02*
X182382738Y-122138000I271738J0D01*
G01*
X183339262Y-122138000D01*
G75*
G02*
X183611000Y-122409738I0J-271738D01*
G01*
X183611000Y-123116262D01*
G75*
G02*
X183339262Y-123388000I-271738J0D01*
G01*
G37*
G36*
G01*
X183339262Y-125438000D02*
X182382738Y-125438000D01*
G75*
G02*
X182111000Y-125166262I0J271738D01*
G01*
X182111000Y-124459738D01*
G75*
G02*
X182382738Y-124188000I271738J0D01*
G01*
X183339262Y-124188000D01*
G75*
G02*
X183611000Y-124459738I0J-271738D01*
G01*
X183611000Y-125166262D01*
G75*
G02*
X183339262Y-125438000I-271738J0D01*
G01*
G37*
%TD*%
%TO.C,C34*%
G36*
G01*
X214628262Y-38425000D02*
X213671738Y-38425000D01*
G75*
G02*
X213400000Y-38153262I0J271738D01*
G01*
X213400000Y-37446738D01*
G75*
G02*
X213671738Y-37175000I271738J0D01*
G01*
X214628262Y-37175000D01*
G75*
G02*
X214900000Y-37446738I0J-271738D01*
G01*
X214900000Y-38153262D01*
G75*
G02*
X214628262Y-38425000I-271738J0D01*
G01*
G37*
G36*
G01*
X214628262Y-40475000D02*
X213671738Y-40475000D01*
G75*
G02*
X213400000Y-40203262I0J271738D01*
G01*
X213400000Y-39496738D01*
G75*
G02*
X213671738Y-39225000I271738J0D01*
G01*
X214628262Y-39225000D01*
G75*
G02*
X214900000Y-39496738I0J-271738D01*
G01*
X214900000Y-40203262D01*
G75*
G02*
X214628262Y-40475000I-271738J0D01*
G01*
G37*
%TD*%
D44*
%TO.C,J7*%
X143300500Y-114834500D03*
D45*
X143300500Y-117374500D03*
%TD*%
%TO.C,R67*%
G36*
G01*
X42877262Y-160209000D02*
X41920738Y-160209000D01*
G75*
G02*
X41649000Y-159937262I0J271738D01*
G01*
X41649000Y-159230738D01*
G75*
G02*
X41920738Y-158959000I271738J0D01*
G01*
X42877262Y-158959000D01*
G75*
G02*
X43149000Y-159230738I0J-271738D01*
G01*
X43149000Y-159937262D01*
G75*
G02*
X42877262Y-160209000I-271738J0D01*
G01*
G37*
G36*
G01*
X42877262Y-162259000D02*
X41920738Y-162259000D01*
G75*
G02*
X41649000Y-161987262I0J271738D01*
G01*
X41649000Y-161280738D01*
G75*
G02*
X41920738Y-161009000I271738J0D01*
G01*
X42877262Y-161009000D01*
G75*
G02*
X43149000Y-161280738I0J-271738D01*
G01*
X43149000Y-161987262D01*
G75*
G02*
X42877262Y-162259000I-271738J0D01*
G01*
G37*
%TD*%
%TO.C,R66*%
G36*
G01*
X41920738Y-165082000D02*
X42877262Y-165082000D01*
G75*
G02*
X43149000Y-165353738I0J-271738D01*
G01*
X43149000Y-166060262D01*
G75*
G02*
X42877262Y-166332000I-271738J0D01*
G01*
X41920738Y-166332000D01*
G75*
G02*
X41649000Y-166060262I0J271738D01*
G01*
X41649000Y-165353738D01*
G75*
G02*
X41920738Y-165082000I271738J0D01*
G01*
G37*
G36*
G01*
X41920738Y-163032000D02*
X42877262Y-163032000D01*
G75*
G02*
X43149000Y-163303738I0J-271738D01*
G01*
X43149000Y-164010262D01*
G75*
G02*
X42877262Y-164282000I-271738J0D01*
G01*
X41920738Y-164282000D01*
G75*
G02*
X41649000Y-164010262I0J271738D01*
G01*
X41649000Y-163303738D01*
G75*
G02*
X41920738Y-163032000I271738J0D01*
G01*
G37*
%TD*%
D44*
%TO.C,IC8*%
X181337000Y-51501000D03*
D46*
X181337000Y-50601000D03*
D45*
X178797000Y-51501000D03*
D46*
X178797000Y-50601000D03*
D44*
X176257000Y-51501000D03*
D46*
X176257000Y-50601000D03*
D47*
X181222000Y-96371000D03*
X176372000Y-96371000D03*
D48*
X181522000Y-99401000D03*
X176072000Y-99401000D03*
D49*
X188587000Y-51271000D03*
X188587000Y-53811000D03*
X188587000Y-56351000D03*
X188587000Y-58891000D03*
X188587000Y-61431000D03*
X188587000Y-63971000D03*
X188587000Y-66511000D03*
X188587000Y-69051000D03*
X188587000Y-71591000D03*
X188587000Y-74131000D03*
X188587000Y-76671000D03*
X188587000Y-79211000D03*
X188587000Y-81751000D03*
X188587000Y-84291000D03*
X188587000Y-86831000D03*
X188587000Y-89371000D03*
X188587000Y-91911000D03*
X188587000Y-94451000D03*
X188587000Y-96991000D03*
X188587000Y-99531000D03*
X169007000Y-51271000D03*
X169007000Y-53811000D03*
X169007000Y-56351000D03*
X169007000Y-58891000D03*
X169007000Y-61431000D03*
X169007000Y-63971000D03*
X169007000Y-66511000D03*
X169007000Y-69051000D03*
X169007000Y-71591000D03*
X169007000Y-74131000D03*
X169007000Y-76671000D03*
X169007000Y-79211000D03*
X169007000Y-81751000D03*
X169007000Y-84291000D03*
X169007000Y-86831000D03*
X169007000Y-89371000D03*
X169007000Y-91911000D03*
X169007000Y-94451000D03*
X169007000Y-96991000D03*
X169007000Y-99531000D03*
D44*
X187687000Y-99531000D03*
X187687000Y-96991000D03*
D45*
X187687000Y-94451000D03*
D44*
X187687000Y-91911000D03*
X187687000Y-89371000D03*
X187687000Y-86831000D03*
X187687000Y-84291000D03*
D45*
X187687000Y-81751000D03*
D44*
X187687000Y-79211000D03*
X187687000Y-76671000D03*
X187687000Y-74131000D03*
X187687000Y-71591000D03*
D45*
X187687000Y-69051000D03*
D44*
X187687000Y-66511000D03*
X187687000Y-63971000D03*
X187687000Y-61431000D03*
X187687000Y-58891000D03*
D45*
X187687000Y-56351000D03*
D44*
X187687000Y-53811000D03*
X187687000Y-51271000D03*
X169907000Y-51271000D03*
X169907000Y-53811000D03*
D45*
X169907000Y-56351000D03*
D44*
X169907000Y-58891000D03*
X169907000Y-61431000D03*
X169907000Y-63971000D03*
X169907000Y-66511000D03*
D45*
X169907000Y-69051000D03*
D44*
X169907000Y-71591000D03*
X169907000Y-74131000D03*
X169907000Y-76671000D03*
X169907000Y-79211000D03*
D45*
X169907000Y-81751000D03*
D44*
X169907000Y-84291000D03*
X169907000Y-86831000D03*
X169907000Y-89371000D03*
X169907000Y-91911000D03*
D45*
X169907000Y-94451000D03*
D44*
X169907000Y-96991000D03*
X169907000Y-99531000D03*
%TD*%
D50*
%TO.C,H11*%
X236000000Y-112000000D03*
%TD*%
%TO.C,H9*%
X30600000Y-134000000D03*
%TD*%
%TO.C,R65*%
G36*
G01*
X197288738Y-149325000D02*
X198245262Y-149325000D01*
G75*
G02*
X198517000Y-149596738I0J-271738D01*
G01*
X198517000Y-150303262D01*
G75*
G02*
X198245262Y-150575000I-271738J0D01*
G01*
X197288738Y-150575000D01*
G75*
G02*
X197017000Y-150303262I0J271738D01*
G01*
X197017000Y-149596738D01*
G75*
G02*
X197288738Y-149325000I271738J0D01*
G01*
G37*
G36*
G01*
X197288738Y-147275000D02*
X198245262Y-147275000D01*
G75*
G02*
X198517000Y-147546738I0J-271738D01*
G01*
X198517000Y-148253262D01*
G75*
G02*
X198245262Y-148525000I-271738J0D01*
G01*
X197288738Y-148525000D01*
G75*
G02*
X197017000Y-148253262I0J271738D01*
G01*
X197017000Y-147546738D01*
G75*
G02*
X197288738Y-147275000I271738J0D01*
G01*
G37*
%TD*%
%TO.C,R54*%
G36*
G01*
X182239238Y-149325000D02*
X183195762Y-149325000D01*
G75*
G02*
X183467500Y-149596738I0J-271738D01*
G01*
X183467500Y-150303262D01*
G75*
G02*
X183195762Y-150575000I-271738J0D01*
G01*
X182239238Y-150575000D01*
G75*
G02*
X181967500Y-150303262I0J271738D01*
G01*
X181967500Y-149596738D01*
G75*
G02*
X182239238Y-149325000I271738J0D01*
G01*
G37*
G36*
G01*
X182239238Y-147275000D02*
X183195762Y-147275000D01*
G75*
G02*
X183467500Y-147546738I0J-271738D01*
G01*
X183467500Y-148253262D01*
G75*
G02*
X183195762Y-148525000I-271738J0D01*
G01*
X182239238Y-148525000D01*
G75*
G02*
X181967500Y-148253262I0J271738D01*
G01*
X181967500Y-147546738D01*
G75*
G02*
X182239238Y-147275000I271738J0D01*
G01*
G37*
%TD*%
%TO.C,R53*%
G36*
G01*
X167316738Y-149325000D02*
X168273262Y-149325000D01*
G75*
G02*
X168545000Y-149596738I0J-271738D01*
G01*
X168545000Y-150303262D01*
G75*
G02*
X168273262Y-150575000I-271738J0D01*
G01*
X167316738Y-150575000D01*
G75*
G02*
X167045000Y-150303262I0J271738D01*
G01*
X167045000Y-149596738D01*
G75*
G02*
X167316738Y-149325000I271738J0D01*
G01*
G37*
G36*
G01*
X167316738Y-147275000D02*
X168273262Y-147275000D01*
G75*
G02*
X168545000Y-147546738I0J-271738D01*
G01*
X168545000Y-148253262D01*
G75*
G02*
X168273262Y-148525000I-271738J0D01*
G01*
X167316738Y-148525000D01*
G75*
G02*
X167045000Y-148253262I0J271738D01*
G01*
X167045000Y-147546738D01*
G75*
G02*
X167316738Y-147275000I271738J0D01*
G01*
G37*
%TD*%
%TO.C,R52*%
G36*
G01*
X152267238Y-149325000D02*
X153223762Y-149325000D01*
G75*
G02*
X153495500Y-149596738I0J-271738D01*
G01*
X153495500Y-150303262D01*
G75*
G02*
X153223762Y-150575000I-271738J0D01*
G01*
X152267238Y-150575000D01*
G75*
G02*
X151995500Y-150303262I0J271738D01*
G01*
X151995500Y-149596738D01*
G75*
G02*
X152267238Y-149325000I271738J0D01*
G01*
G37*
G36*
G01*
X152267238Y-147275000D02*
X153223762Y-147275000D01*
G75*
G02*
X153495500Y-147546738I0J-271738D01*
G01*
X153495500Y-148253262D01*
G75*
G02*
X153223762Y-148525000I-271738J0D01*
G01*
X152267238Y-148525000D01*
G75*
G02*
X151995500Y-148253262I0J271738D01*
G01*
X151995500Y-147546738D01*
G75*
G02*
X152267238Y-147275000I271738J0D01*
G01*
G37*
%TD*%
%TO.C,R51*%
G36*
G01*
X137281238Y-149325000D02*
X138237762Y-149325000D01*
G75*
G02*
X138509500Y-149596738I0J-271738D01*
G01*
X138509500Y-150303262D01*
G75*
G02*
X138237762Y-150575000I-271738J0D01*
G01*
X137281238Y-150575000D01*
G75*
G02*
X137009500Y-150303262I0J271738D01*
G01*
X137009500Y-149596738D01*
G75*
G02*
X137281238Y-149325000I271738J0D01*
G01*
G37*
G36*
G01*
X137281238Y-147275000D02*
X138237762Y-147275000D01*
G75*
G02*
X138509500Y-147546738I0J-271738D01*
G01*
X138509500Y-148253262D01*
G75*
G02*
X138237762Y-148525000I-271738J0D01*
G01*
X137281238Y-148525000D01*
G75*
G02*
X137009500Y-148253262I0J271738D01*
G01*
X137009500Y-147546738D01*
G75*
G02*
X137281238Y-147275000I271738J0D01*
G01*
G37*
%TD*%
%TO.C,R50*%
G36*
G01*
X122295238Y-149325000D02*
X123251762Y-149325000D01*
G75*
G02*
X123523500Y-149596738I0J-271738D01*
G01*
X123523500Y-150303262D01*
G75*
G02*
X123251762Y-150575000I-271738J0D01*
G01*
X122295238Y-150575000D01*
G75*
G02*
X122023500Y-150303262I0J271738D01*
G01*
X122023500Y-149596738D01*
G75*
G02*
X122295238Y-149325000I271738J0D01*
G01*
G37*
G36*
G01*
X122295238Y-147275000D02*
X123251762Y-147275000D01*
G75*
G02*
X123523500Y-147546738I0J-271738D01*
G01*
X123523500Y-148253262D01*
G75*
G02*
X123251762Y-148525000I-271738J0D01*
G01*
X122295238Y-148525000D01*
G75*
G02*
X122023500Y-148253262I0J271738D01*
G01*
X122023500Y-147546738D01*
G75*
G02*
X122295238Y-147275000I271738J0D01*
G01*
G37*
%TD*%
%TO.C,R44*%
G36*
G01*
X107245738Y-149325000D02*
X108202262Y-149325000D01*
G75*
G02*
X108474000Y-149596738I0J-271738D01*
G01*
X108474000Y-150303262D01*
G75*
G02*
X108202262Y-150575000I-271738J0D01*
G01*
X107245738Y-150575000D01*
G75*
G02*
X106974000Y-150303262I0J271738D01*
G01*
X106974000Y-149596738D01*
G75*
G02*
X107245738Y-149325000I271738J0D01*
G01*
G37*
G36*
G01*
X107245738Y-147275000D02*
X108202262Y-147275000D01*
G75*
G02*
X108474000Y-147546738I0J-271738D01*
G01*
X108474000Y-148253262D01*
G75*
G02*
X108202262Y-148525000I-271738J0D01*
G01*
X107245738Y-148525000D01*
G75*
G02*
X106974000Y-148253262I0J271738D01*
G01*
X106974000Y-147546738D01*
G75*
G02*
X107245738Y-147275000I271738J0D01*
G01*
G37*
%TD*%
%TO.C,R26*%
G36*
G01*
X261857500Y-104708262D02*
X261857500Y-103751738D01*
G75*
G02*
X262129238Y-103480000I271738J0D01*
G01*
X262835762Y-103480000D01*
G75*
G02*
X263107500Y-103751738I0J-271738D01*
G01*
X263107500Y-104708262D01*
G75*
G02*
X262835762Y-104980000I-271738J0D01*
G01*
X262129238Y-104980000D01*
G75*
G02*
X261857500Y-104708262I0J271738D01*
G01*
G37*
G36*
G01*
X259807500Y-104708262D02*
X259807500Y-103751738D01*
G75*
G02*
X260079238Y-103480000I271738J0D01*
G01*
X260785762Y-103480000D01*
G75*
G02*
X261057500Y-103751738I0J-271738D01*
G01*
X261057500Y-104708262D01*
G75*
G02*
X260785762Y-104980000I-271738J0D01*
G01*
X260079238Y-104980000D01*
G75*
G02*
X259807500Y-104708262I0J271738D01*
G01*
G37*
%TD*%
%TO.C,R25*%
G36*
G01*
X261866500Y-102676262D02*
X261866500Y-101719738D01*
G75*
G02*
X262138238Y-101448000I271738J0D01*
G01*
X262844762Y-101448000D01*
G75*
G02*
X263116500Y-101719738I0J-271738D01*
G01*
X263116500Y-102676262D01*
G75*
G02*
X262844762Y-102948000I-271738J0D01*
G01*
X262138238Y-102948000D01*
G75*
G02*
X261866500Y-102676262I0J271738D01*
G01*
G37*
G36*
G01*
X259816500Y-102676262D02*
X259816500Y-101719738D01*
G75*
G02*
X260088238Y-101448000I271738J0D01*
G01*
X260794762Y-101448000D01*
G75*
G02*
X261066500Y-101719738I0J-271738D01*
G01*
X261066500Y-102676262D01*
G75*
G02*
X260794762Y-102948000I-271738J0D01*
G01*
X260088238Y-102948000D01*
G75*
G02*
X259816500Y-102676262I0J271738D01*
G01*
G37*
%TD*%
%TO.C,R24*%
G36*
G01*
X261857500Y-92706762D02*
X261857500Y-91750238D01*
G75*
G02*
X262129238Y-91478500I271738J0D01*
G01*
X262835762Y-91478500D01*
G75*
G02*
X263107500Y-91750238I0J-271738D01*
G01*
X263107500Y-92706762D01*
G75*
G02*
X262835762Y-92978500I-271738J0D01*
G01*
X262129238Y-92978500D01*
G75*
G02*
X261857500Y-92706762I0J271738D01*
G01*
G37*
G36*
G01*
X259807500Y-92706762D02*
X259807500Y-91750238D01*
G75*
G02*
X260079238Y-91478500I271738J0D01*
G01*
X260785762Y-91478500D01*
G75*
G02*
X261057500Y-91750238I0J-271738D01*
G01*
X261057500Y-92706762D01*
G75*
G02*
X260785762Y-92978500I-271738J0D01*
G01*
X260079238Y-92978500D01*
G75*
G02*
X259807500Y-92706762I0J271738D01*
G01*
G37*
%TD*%
%TO.C,R23*%
G36*
G01*
X261857500Y-90674762D02*
X261857500Y-89718238D01*
G75*
G02*
X262129238Y-89446500I271738J0D01*
G01*
X262835762Y-89446500D01*
G75*
G02*
X263107500Y-89718238I0J-271738D01*
G01*
X263107500Y-90674762D01*
G75*
G02*
X262835762Y-90946500I-271738J0D01*
G01*
X262129238Y-90946500D01*
G75*
G02*
X261857500Y-90674762I0J271738D01*
G01*
G37*
G36*
G01*
X259807500Y-90674762D02*
X259807500Y-89718238D01*
G75*
G02*
X260079238Y-89446500I271738J0D01*
G01*
X260785762Y-89446500D01*
G75*
G02*
X261057500Y-89718238I0J-271738D01*
G01*
X261057500Y-90674762D01*
G75*
G02*
X260785762Y-90946500I-271738J0D01*
G01*
X260079238Y-90946500D01*
G75*
G02*
X259807500Y-90674762I0J271738D01*
G01*
G37*
%TD*%
%TO.C,R22*%
G36*
G01*
X261857500Y-77720762D02*
X261857500Y-76764238D01*
G75*
G02*
X262129238Y-76492500I271738J0D01*
G01*
X262835762Y-76492500D01*
G75*
G02*
X263107500Y-76764238I0J-271738D01*
G01*
X263107500Y-77720762D01*
G75*
G02*
X262835762Y-77992500I-271738J0D01*
G01*
X262129238Y-77992500D01*
G75*
G02*
X261857500Y-77720762I0J271738D01*
G01*
G37*
G36*
G01*
X259807500Y-77720762D02*
X259807500Y-76764238D01*
G75*
G02*
X260079238Y-76492500I271738J0D01*
G01*
X260785762Y-76492500D01*
G75*
G02*
X261057500Y-76764238I0J-271738D01*
G01*
X261057500Y-77720762D01*
G75*
G02*
X260785762Y-77992500I-271738J0D01*
G01*
X260079238Y-77992500D01*
G75*
G02*
X259807500Y-77720762I0J271738D01*
G01*
G37*
%TD*%
%TO.C,R21*%
G36*
G01*
X261848500Y-75688762D02*
X261848500Y-74732238D01*
G75*
G02*
X262120238Y-74460500I271738J0D01*
G01*
X262826762Y-74460500D01*
G75*
G02*
X263098500Y-74732238I0J-271738D01*
G01*
X263098500Y-75688762D01*
G75*
G02*
X262826762Y-75960500I-271738J0D01*
G01*
X262120238Y-75960500D01*
G75*
G02*
X261848500Y-75688762I0J271738D01*
G01*
G37*
G36*
G01*
X259798500Y-75688762D02*
X259798500Y-74732238D01*
G75*
G02*
X260070238Y-74460500I271738J0D01*
G01*
X260776762Y-74460500D01*
G75*
G02*
X261048500Y-74732238I0J-271738D01*
G01*
X261048500Y-75688762D01*
G75*
G02*
X260776762Y-75960500I-271738J0D01*
G01*
X260070238Y-75960500D01*
G75*
G02*
X259798500Y-75688762I0J271738D01*
G01*
G37*
%TD*%
%TO.C,R20*%
G36*
G01*
X261857500Y-65782762D02*
X261857500Y-64826238D01*
G75*
G02*
X262129238Y-64554500I271738J0D01*
G01*
X262835762Y-64554500D01*
G75*
G02*
X263107500Y-64826238I0J-271738D01*
G01*
X263107500Y-65782762D01*
G75*
G02*
X262835762Y-66054500I-271738J0D01*
G01*
X262129238Y-66054500D01*
G75*
G02*
X261857500Y-65782762I0J271738D01*
G01*
G37*
G36*
G01*
X259807500Y-65782762D02*
X259807500Y-64826238D01*
G75*
G02*
X260079238Y-64554500I271738J0D01*
G01*
X260785762Y-64554500D01*
G75*
G02*
X261057500Y-64826238I0J-271738D01*
G01*
X261057500Y-65782762D01*
G75*
G02*
X260785762Y-66054500I-271738J0D01*
G01*
X260079238Y-66054500D01*
G75*
G02*
X259807500Y-65782762I0J271738D01*
G01*
G37*
%TD*%
%TO.C,R19*%
G36*
G01*
X261857500Y-63687262D02*
X261857500Y-62730738D01*
G75*
G02*
X262129238Y-62459000I271738J0D01*
G01*
X262835762Y-62459000D01*
G75*
G02*
X263107500Y-62730738I0J-271738D01*
G01*
X263107500Y-63687262D01*
G75*
G02*
X262835762Y-63959000I-271738J0D01*
G01*
X262129238Y-63959000D01*
G75*
G02*
X261857500Y-63687262I0J271738D01*
G01*
G37*
G36*
G01*
X259807500Y-63687262D02*
X259807500Y-62730738D01*
G75*
G02*
X260079238Y-62459000I271738J0D01*
G01*
X260785762Y-62459000D01*
G75*
G02*
X261057500Y-62730738I0J-271738D01*
G01*
X261057500Y-63687262D01*
G75*
G02*
X260785762Y-63959000I-271738J0D01*
G01*
X260079238Y-63959000D01*
G75*
G02*
X259807500Y-63687262I0J271738D01*
G01*
G37*
%TD*%
%TO.C,R18*%
G36*
G01*
X261857500Y-45716762D02*
X261857500Y-44760238D01*
G75*
G02*
X262129238Y-44488500I271738J0D01*
G01*
X262835762Y-44488500D01*
G75*
G02*
X263107500Y-44760238I0J-271738D01*
G01*
X263107500Y-45716762D01*
G75*
G02*
X262835762Y-45988500I-271738J0D01*
G01*
X262129238Y-45988500D01*
G75*
G02*
X261857500Y-45716762I0J271738D01*
G01*
G37*
G36*
G01*
X259807500Y-45716762D02*
X259807500Y-44760238D01*
G75*
G02*
X260079238Y-44488500I271738J0D01*
G01*
X260785762Y-44488500D01*
G75*
G02*
X261057500Y-44760238I0J-271738D01*
G01*
X261057500Y-45716762D01*
G75*
G02*
X260785762Y-45988500I-271738J0D01*
G01*
X260079238Y-45988500D01*
G75*
G02*
X259807500Y-45716762I0J271738D01*
G01*
G37*
%TD*%
%TO.C,C35*%
G36*
G01*
X84719738Y-91803000D02*
X85676262Y-91803000D01*
G75*
G02*
X85948000Y-92074738I0J-271738D01*
G01*
X85948000Y-92781262D01*
G75*
G02*
X85676262Y-93053000I-271738J0D01*
G01*
X84719738Y-93053000D01*
G75*
G02*
X84448000Y-92781262I0J271738D01*
G01*
X84448000Y-92074738D01*
G75*
G02*
X84719738Y-91803000I271738J0D01*
G01*
G37*
G36*
G01*
X84719738Y-89753000D02*
X85676262Y-89753000D01*
G75*
G02*
X85948000Y-90024738I0J-271738D01*
G01*
X85948000Y-90731262D01*
G75*
G02*
X85676262Y-91003000I-271738J0D01*
G01*
X84719738Y-91003000D01*
G75*
G02*
X84448000Y-90731262I0J271738D01*
G01*
X84448000Y-90024738D01*
G75*
G02*
X84719738Y-89753000I271738J0D01*
G01*
G37*
%TD*%
%TO.C,C16*%
G36*
G01*
X81358262Y-95194000D02*
X80401738Y-95194000D01*
G75*
G02*
X80130000Y-94922262I0J271738D01*
G01*
X80130000Y-94215738D01*
G75*
G02*
X80401738Y-93944000I271738J0D01*
G01*
X81358262Y-93944000D01*
G75*
G02*
X81630000Y-94215738I0J-271738D01*
G01*
X81630000Y-94922262D01*
G75*
G02*
X81358262Y-95194000I-271738J0D01*
G01*
G37*
G36*
G01*
X81358262Y-97244000D02*
X80401738Y-97244000D01*
G75*
G02*
X80130000Y-96972262I0J271738D01*
G01*
X80130000Y-96265738D01*
G75*
G02*
X80401738Y-95994000I271738J0D01*
G01*
X81358262Y-95994000D01*
G75*
G02*
X81630000Y-96265738I0J-271738D01*
G01*
X81630000Y-96972262D01*
G75*
G02*
X81358262Y-97244000I-271738J0D01*
G01*
G37*
%TD*%
%TO.C,C15*%
G36*
G01*
X208722762Y-104719000D02*
X207766238Y-104719000D01*
G75*
G02*
X207494500Y-104447262I0J271738D01*
G01*
X207494500Y-103740738D01*
G75*
G02*
X207766238Y-103469000I271738J0D01*
G01*
X208722762Y-103469000D01*
G75*
G02*
X208994500Y-103740738I0J-271738D01*
G01*
X208994500Y-104447262D01*
G75*
G02*
X208722762Y-104719000I-271738J0D01*
G01*
G37*
G36*
G01*
X208722762Y-106769000D02*
X207766238Y-106769000D01*
G75*
G02*
X207494500Y-106497262I0J271738D01*
G01*
X207494500Y-105790738D01*
G75*
G02*
X207766238Y-105519000I271738J0D01*
G01*
X208722762Y-105519000D01*
G75*
G02*
X208994500Y-105790738I0J-271738D01*
G01*
X208994500Y-106497262D01*
G75*
G02*
X208722762Y-106769000I-271738J0D01*
G01*
G37*
%TD*%
%TO.C,C1*%
G36*
G01*
X202829738Y-109202000D02*
X203786262Y-109202000D01*
G75*
G02*
X204058000Y-109473738I0J-271738D01*
G01*
X204058000Y-110180262D01*
G75*
G02*
X203786262Y-110452000I-271738J0D01*
G01*
X202829738Y-110452000D01*
G75*
G02*
X202558000Y-110180262I0J271738D01*
G01*
X202558000Y-109473738D01*
G75*
G02*
X202829738Y-109202000I271738J0D01*
G01*
G37*
G36*
G01*
X202829738Y-107152000D02*
X203786262Y-107152000D01*
G75*
G02*
X204058000Y-107423738I0J-271738D01*
G01*
X204058000Y-108130262D01*
G75*
G02*
X203786262Y-108402000I-271738J0D01*
G01*
X202829738Y-108402000D01*
G75*
G02*
X202558000Y-108130262I0J271738D01*
G01*
X202558000Y-107423738D01*
G75*
G02*
X202829738Y-107152000I271738J0D01*
G01*
G37*
%TD*%
%TO.C,R17*%
G36*
G01*
X83390262Y-95194000D02*
X82433738Y-95194000D01*
G75*
G02*
X82162000Y-94922262I0J271738D01*
G01*
X82162000Y-94215738D01*
G75*
G02*
X82433738Y-93944000I271738J0D01*
G01*
X83390262Y-93944000D01*
G75*
G02*
X83662000Y-94215738I0J-271738D01*
G01*
X83662000Y-94922262D01*
G75*
G02*
X83390262Y-95194000I-271738J0D01*
G01*
G37*
G36*
G01*
X83390262Y-97244000D02*
X82433738Y-97244000D01*
G75*
G02*
X82162000Y-96972262I0J271738D01*
G01*
X82162000Y-96265738D01*
G75*
G02*
X82433738Y-95994000I271738J0D01*
G01*
X83390262Y-95994000D01*
G75*
G02*
X83662000Y-96265738I0J-271738D01*
G01*
X83662000Y-96972262D01*
G75*
G02*
X83390262Y-97244000I-271738J0D01*
G01*
G37*
%TD*%
%TO.C,R16*%
G36*
G01*
X79326262Y-95194000D02*
X78369738Y-95194000D01*
G75*
G02*
X78098000Y-94922262I0J271738D01*
G01*
X78098000Y-94215738D01*
G75*
G02*
X78369738Y-93944000I271738J0D01*
G01*
X79326262Y-93944000D01*
G75*
G02*
X79598000Y-94215738I0J-271738D01*
G01*
X79598000Y-94922262D01*
G75*
G02*
X79326262Y-95194000I-271738J0D01*
G01*
G37*
G36*
G01*
X79326262Y-97244000D02*
X78369738Y-97244000D01*
G75*
G02*
X78098000Y-96972262I0J271738D01*
G01*
X78098000Y-96265738D01*
G75*
G02*
X78369738Y-95994000I271738J0D01*
G01*
X79326262Y-95994000D01*
G75*
G02*
X79598000Y-96265738I0J-271738D01*
G01*
X79598000Y-96972262D01*
G75*
G02*
X79326262Y-97244000I-271738J0D01*
G01*
G37*
%TD*%
%TO.C,R15*%
G36*
G01*
X209861738Y-105519000D02*
X210818262Y-105519000D01*
G75*
G02*
X211090000Y-105790738I0J-271738D01*
G01*
X211090000Y-106497262D01*
G75*
G02*
X210818262Y-106769000I-271738J0D01*
G01*
X209861738Y-106769000D01*
G75*
G02*
X209590000Y-106497262I0J271738D01*
G01*
X209590000Y-105790738D01*
G75*
G02*
X209861738Y-105519000I271738J0D01*
G01*
G37*
G36*
G01*
X209861738Y-103469000D02*
X210818262Y-103469000D01*
G75*
G02*
X211090000Y-103740738I0J-271738D01*
G01*
X211090000Y-104447262D01*
G75*
G02*
X210818262Y-104719000I-271738J0D01*
G01*
X209861738Y-104719000D01*
G75*
G02*
X209590000Y-104447262I0J271738D01*
G01*
X209590000Y-103740738D01*
G75*
G02*
X209861738Y-103469000I271738J0D01*
G01*
G37*
%TD*%
%TO.C,R14*%
G36*
G01*
X245792000Y-29905262D02*
X245792000Y-28948738D01*
G75*
G02*
X246063738Y-28677000I271738J0D01*
G01*
X246770262Y-28677000D01*
G75*
G02*
X247042000Y-28948738I0J-271738D01*
G01*
X247042000Y-29905262D01*
G75*
G02*
X246770262Y-30177000I-271738J0D01*
G01*
X246063738Y-30177000D01*
G75*
G02*
X245792000Y-29905262I0J271738D01*
G01*
G37*
G36*
G01*
X243742000Y-29905262D02*
X243742000Y-28948738D01*
G75*
G02*
X244013738Y-28677000I271738J0D01*
G01*
X244720262Y-28677000D01*
G75*
G02*
X244992000Y-28948738I0J-271738D01*
G01*
X244992000Y-29905262D01*
G75*
G02*
X244720262Y-30177000I-271738J0D01*
G01*
X244013738Y-30177000D01*
G75*
G02*
X243742000Y-29905262I0J271738D01*
G01*
G37*
%TD*%
%TO.C,R13*%
G36*
G01*
X57033738Y-136616000D02*
X57990262Y-136616000D01*
G75*
G02*
X58262000Y-136887738I0J-271738D01*
G01*
X58262000Y-137594262D01*
G75*
G02*
X57990262Y-137866000I-271738J0D01*
G01*
X57033738Y-137866000D01*
G75*
G02*
X56762000Y-137594262I0J271738D01*
G01*
X56762000Y-136887738D01*
G75*
G02*
X57033738Y-136616000I271738J0D01*
G01*
G37*
G36*
G01*
X57033738Y-138666000D02*
X57990262Y-138666000D01*
G75*
G02*
X58262000Y-138937738I0J-271738D01*
G01*
X58262000Y-139644262D01*
G75*
G02*
X57990262Y-139916000I-271738J0D01*
G01*
X57033738Y-139916000D01*
G75*
G02*
X56762000Y-139644262I0J271738D01*
G01*
X56762000Y-138937738D01*
G75*
G02*
X57033738Y-138666000I271738J0D01*
G01*
G37*
%TD*%
%TO.C,R12*%
G36*
G01*
X54493738Y-138666000D02*
X55450262Y-138666000D01*
G75*
G02*
X55722000Y-138937738I0J-271738D01*
G01*
X55722000Y-139644262D01*
G75*
G02*
X55450262Y-139916000I-271738J0D01*
G01*
X54493738Y-139916000D01*
G75*
G02*
X54222000Y-139644262I0J271738D01*
G01*
X54222000Y-138937738D01*
G75*
G02*
X54493738Y-138666000I271738J0D01*
G01*
G37*
G36*
G01*
X54493738Y-136616000D02*
X55450262Y-136616000D01*
G75*
G02*
X55722000Y-136887738I0J-271738D01*
G01*
X55722000Y-137594262D01*
G75*
G02*
X55450262Y-137866000I-271738J0D01*
G01*
X54493738Y-137866000D01*
G75*
G02*
X54222000Y-137594262I0J271738D01*
G01*
X54222000Y-136887738D01*
G75*
G02*
X54493738Y-136616000I271738J0D01*
G01*
G37*
%TD*%
%TO.C,R11*%
G36*
G01*
X79512738Y-138666000D02*
X80469262Y-138666000D01*
G75*
G02*
X80741000Y-138937738I0J-271738D01*
G01*
X80741000Y-139644262D01*
G75*
G02*
X80469262Y-139916000I-271738J0D01*
G01*
X79512738Y-139916000D01*
G75*
G02*
X79241000Y-139644262I0J271738D01*
G01*
X79241000Y-138937738D01*
G75*
G02*
X79512738Y-138666000I271738J0D01*
G01*
G37*
G36*
G01*
X79512738Y-136616000D02*
X80469262Y-136616000D01*
G75*
G02*
X80741000Y-136887738I0J-271738D01*
G01*
X80741000Y-137594262D01*
G75*
G02*
X80469262Y-137866000I-271738J0D01*
G01*
X79512738Y-137866000D01*
G75*
G02*
X79241000Y-137594262I0J271738D01*
G01*
X79241000Y-136887738D01*
G75*
G02*
X79512738Y-136616000I271738J0D01*
G01*
G37*
%TD*%
%TO.C,R3*%
G36*
G01*
X212401738Y-105510000D02*
X213358262Y-105510000D01*
G75*
G02*
X213630000Y-105781738I0J-271738D01*
G01*
X213630000Y-106488262D01*
G75*
G02*
X213358262Y-106760000I-271738J0D01*
G01*
X212401738Y-106760000D01*
G75*
G02*
X212130000Y-106488262I0J271738D01*
G01*
X212130000Y-105781738D01*
G75*
G02*
X212401738Y-105510000I271738J0D01*
G01*
G37*
G36*
G01*
X212401738Y-103460000D02*
X213358262Y-103460000D01*
G75*
G02*
X213630000Y-103731738I0J-271738D01*
G01*
X213630000Y-104438262D01*
G75*
G02*
X213358262Y-104710000I-271738J0D01*
G01*
X212401738Y-104710000D01*
G75*
G02*
X212130000Y-104438262I0J271738D01*
G01*
X212130000Y-103731738D01*
G75*
G02*
X212401738Y-103460000I271738J0D01*
G01*
G37*
%TD*%
D51*
%TO.C,JP2*%
G36*
X43139889Y-54864398D02*
G01*
X43121466Y-54864398D01*
X43116565Y-54864157D01*
X43067734Y-54859347D01*
X43062881Y-54858627D01*
X43014756Y-54849055D01*
X43009995Y-54847863D01*
X42963040Y-54833619D01*
X42958421Y-54831966D01*
X42913088Y-54813189D01*
X42908651Y-54811091D01*
X42865378Y-54787960D01*
X42861171Y-54785438D01*
X42820372Y-54758178D01*
X42816430Y-54755254D01*
X42778501Y-54724126D01*
X42774866Y-54720831D01*
X42740169Y-54686134D01*
X42736874Y-54682499D01*
X42705746Y-54644570D01*
X42702822Y-54640628D01*
X42675562Y-54599829D01*
X42673040Y-54595622D01*
X42649909Y-54552349D01*
X42647811Y-54547912D01*
X42629034Y-54502579D01*
X42627381Y-54497960D01*
X42613137Y-54451005D01*
X42611945Y-54446244D01*
X42602373Y-54398119D01*
X42601653Y-54393266D01*
X42596843Y-54344435D01*
X42596602Y-54339534D01*
X42596602Y-54321111D01*
X42596000Y-54315000D01*
X42596000Y-53815000D01*
X42596602Y-53808889D01*
X42596602Y-53790466D01*
X42596843Y-53785565D01*
X42601653Y-53736734D01*
X42602373Y-53731881D01*
X42611945Y-53683756D01*
X42613137Y-53678995D01*
X42627381Y-53632040D01*
X42629034Y-53627421D01*
X42647811Y-53582088D01*
X42649909Y-53577651D01*
X42673040Y-53534378D01*
X42675562Y-53530171D01*
X42702822Y-53489372D01*
X42705746Y-53485430D01*
X42736874Y-53447501D01*
X42740169Y-53443866D01*
X42774866Y-53409169D01*
X42778501Y-53405874D01*
X42816430Y-53374746D01*
X42820372Y-53371822D01*
X42861171Y-53344562D01*
X42865378Y-53342040D01*
X42908651Y-53318909D01*
X42913088Y-53316811D01*
X42958421Y-53298034D01*
X42963040Y-53296381D01*
X43009995Y-53282137D01*
X43014756Y-53280945D01*
X43062881Y-53271373D01*
X43067734Y-53270653D01*
X43116565Y-53265843D01*
X43121466Y-53265602D01*
X43139889Y-53265602D01*
X43146000Y-53265000D01*
X43646000Y-53265000D01*
X43655755Y-53265961D01*
X43665134Y-53268806D01*
X43673779Y-53273427D01*
X43681355Y-53279645D01*
X43687573Y-53287221D01*
X43692194Y-53295866D01*
X43695039Y-53305245D01*
X43696000Y-53315000D01*
X43696000Y-54815000D01*
X43695039Y-54824755D01*
X43692194Y-54834134D01*
X43687573Y-54842779D01*
X43681355Y-54850355D01*
X43673779Y-54856573D01*
X43665134Y-54861194D01*
X43655755Y-54864039D01*
X43646000Y-54865000D01*
X43146000Y-54865000D01*
X43139889Y-54864398D01*
G37*
G36*
X43936245Y-54864039D02*
G01*
X43926866Y-54861194D01*
X43918221Y-54856573D01*
X43910645Y-54850355D01*
X43904427Y-54842779D01*
X43899806Y-54834134D01*
X43896961Y-54824755D01*
X43896000Y-54815000D01*
X43896000Y-53315000D01*
X43896961Y-53305245D01*
X43899806Y-53295866D01*
X43904427Y-53287221D01*
X43910645Y-53279645D01*
X43918221Y-53273427D01*
X43926866Y-53268806D01*
X43936245Y-53265961D01*
X43946000Y-53265000D01*
X44446000Y-53265000D01*
X44452111Y-53265602D01*
X44470534Y-53265602D01*
X44475435Y-53265843D01*
X44524266Y-53270653D01*
X44529119Y-53271373D01*
X44577244Y-53280945D01*
X44582005Y-53282137D01*
X44628960Y-53296381D01*
X44633579Y-53298034D01*
X44678912Y-53316811D01*
X44683349Y-53318909D01*
X44726622Y-53342040D01*
X44730829Y-53344562D01*
X44771628Y-53371822D01*
X44775570Y-53374746D01*
X44813499Y-53405874D01*
X44817134Y-53409169D01*
X44851831Y-53443866D01*
X44855126Y-53447501D01*
X44886254Y-53485430D01*
X44889178Y-53489372D01*
X44916438Y-53530171D01*
X44918960Y-53534378D01*
X44942091Y-53577651D01*
X44944189Y-53582088D01*
X44962966Y-53627421D01*
X44964619Y-53632040D01*
X44978863Y-53678995D01*
X44980055Y-53683756D01*
X44989627Y-53731881D01*
X44990347Y-53736734D01*
X44995157Y-53785565D01*
X44995398Y-53790466D01*
X44995398Y-53808889D01*
X44996000Y-53815000D01*
X44996000Y-54315000D01*
X44995398Y-54321111D01*
X44995398Y-54339534D01*
X44995157Y-54344435D01*
X44990347Y-54393266D01*
X44989627Y-54398119D01*
X44980055Y-54446244D01*
X44978863Y-54451005D01*
X44964619Y-54497960D01*
X44962966Y-54502579D01*
X44944189Y-54547912D01*
X44942091Y-54552349D01*
X44918960Y-54595622D01*
X44916438Y-54599829D01*
X44889178Y-54640628D01*
X44886254Y-54644570D01*
X44855126Y-54682499D01*
X44851831Y-54686134D01*
X44817134Y-54720831D01*
X44813499Y-54724126D01*
X44775570Y-54755254D01*
X44771628Y-54758178D01*
X44730829Y-54785438D01*
X44726622Y-54787960D01*
X44683349Y-54811091D01*
X44678912Y-54813189D01*
X44633579Y-54831966D01*
X44628960Y-54833619D01*
X44582005Y-54847863D01*
X44577244Y-54849055D01*
X44529119Y-54858627D01*
X44524266Y-54859347D01*
X44475435Y-54864157D01*
X44470534Y-54864398D01*
X44452111Y-54864398D01*
X44446000Y-54865000D01*
X43946000Y-54865000D01*
X43936245Y-54864039D01*
G37*
%TD*%
%TO.C,C28*%
G36*
G01*
X213239938Y-29649200D02*
X214196462Y-29649200D01*
G75*
G02*
X214468200Y-29920938I0J-271738D01*
G01*
X214468200Y-30627462D01*
G75*
G02*
X214196462Y-30899200I-271738J0D01*
G01*
X213239938Y-30899200D01*
G75*
G02*
X212968200Y-30627462I0J271738D01*
G01*
X212968200Y-29920938D01*
G75*
G02*
X213239938Y-29649200I271738J0D01*
G01*
G37*
G36*
G01*
X213239938Y-27599200D02*
X214196462Y-27599200D01*
G75*
G02*
X214468200Y-27870938I0J-271738D01*
G01*
X214468200Y-28577462D01*
G75*
G02*
X214196462Y-28849200I-271738J0D01*
G01*
X213239938Y-28849200D01*
G75*
G02*
X212968200Y-28577462I0J271738D01*
G01*
X212968200Y-27870938D01*
G75*
G02*
X213239938Y-27599200I271738J0D01*
G01*
G37*
%TD*%
D52*
%TO.C,IC6*%
X56539000Y-56961500D03*
D53*
X54101500Y-55211500D03*
G36*
G01*
X53701500Y-55536500D02*
X54501500Y-55536500D01*
G75*
G02*
X54589000Y-55624000I0J-87500D01*
G01*
X54589000Y-55799000D01*
G75*
G02*
X54501500Y-55886500I-87500J0D01*
G01*
X53701500Y-55886500D01*
G75*
G02*
X53614000Y-55799000I0J87500D01*
G01*
X53614000Y-55624000D01*
G75*
G02*
X53701500Y-55536500I87500J0D01*
G01*
G37*
G36*
G01*
X53701500Y-56036500D02*
X54501500Y-56036500D01*
G75*
G02*
X54589000Y-56124000I0J-87500D01*
G01*
X54589000Y-56299000D01*
G75*
G02*
X54501500Y-56386500I-87500J0D01*
G01*
X53701500Y-56386500D01*
G75*
G02*
X53614000Y-56299000I0J87500D01*
G01*
X53614000Y-56124000D01*
G75*
G02*
X53701500Y-56036500I87500J0D01*
G01*
G37*
G36*
G01*
X53701500Y-56536500D02*
X54501500Y-56536500D01*
G75*
G02*
X54589000Y-56624000I0J-87500D01*
G01*
X54589000Y-56799000D01*
G75*
G02*
X54501500Y-56886500I-87500J0D01*
G01*
X53701500Y-56886500D01*
G75*
G02*
X53614000Y-56799000I0J87500D01*
G01*
X53614000Y-56624000D01*
G75*
G02*
X53701500Y-56536500I87500J0D01*
G01*
G37*
G36*
G01*
X53701500Y-57036500D02*
X54501500Y-57036500D01*
G75*
G02*
X54589000Y-57124000I0J-87500D01*
G01*
X54589000Y-57299000D01*
G75*
G02*
X54501500Y-57386500I-87500J0D01*
G01*
X53701500Y-57386500D01*
G75*
G02*
X53614000Y-57299000I0J87500D01*
G01*
X53614000Y-57124000D01*
G75*
G02*
X53701500Y-57036500I87500J0D01*
G01*
G37*
G36*
G01*
X53701500Y-57536500D02*
X54501500Y-57536500D01*
G75*
G02*
X54589000Y-57624000I0J-87500D01*
G01*
X54589000Y-57799000D01*
G75*
G02*
X54501500Y-57886500I-87500J0D01*
G01*
X53701500Y-57886500D01*
G75*
G02*
X53614000Y-57799000I0J87500D01*
G01*
X53614000Y-57624000D01*
G75*
G02*
X53701500Y-57536500I87500J0D01*
G01*
G37*
G36*
G01*
X53701500Y-58036500D02*
X54501500Y-58036500D01*
G75*
G02*
X54589000Y-58124000I0J-87500D01*
G01*
X54589000Y-58299000D01*
G75*
G02*
X54501500Y-58386500I-87500J0D01*
G01*
X53701500Y-58386500D01*
G75*
G02*
X53614000Y-58299000I0J87500D01*
G01*
X53614000Y-58124000D01*
G75*
G02*
X53701500Y-58036500I87500J0D01*
G01*
G37*
X54101500Y-58711500D03*
D54*
X54789000Y-59399000D03*
G36*
G01*
X55201500Y-58911500D02*
X55376500Y-58911500D01*
G75*
G02*
X55464000Y-58999000I0J-87500D01*
G01*
X55464000Y-59799000D01*
G75*
G02*
X55376500Y-59886500I-87500J0D01*
G01*
X55201500Y-59886500D01*
G75*
G02*
X55114000Y-59799000I0J87500D01*
G01*
X55114000Y-58999000D01*
G75*
G02*
X55201500Y-58911500I87500J0D01*
G01*
G37*
G36*
G01*
X55701500Y-58911500D02*
X55876500Y-58911500D01*
G75*
G02*
X55964000Y-58999000I0J-87500D01*
G01*
X55964000Y-59799000D01*
G75*
G02*
X55876500Y-59886500I-87500J0D01*
G01*
X55701500Y-59886500D01*
G75*
G02*
X55614000Y-59799000I0J87500D01*
G01*
X55614000Y-58999000D01*
G75*
G02*
X55701500Y-58911500I87500J0D01*
G01*
G37*
G36*
G01*
X56201500Y-58911500D02*
X56376500Y-58911500D01*
G75*
G02*
X56464000Y-58999000I0J-87500D01*
G01*
X56464000Y-59799000D01*
G75*
G02*
X56376500Y-59886500I-87500J0D01*
G01*
X56201500Y-59886500D01*
G75*
G02*
X56114000Y-59799000I0J87500D01*
G01*
X56114000Y-58999000D01*
G75*
G02*
X56201500Y-58911500I87500J0D01*
G01*
G37*
G36*
G01*
X56701500Y-58911500D02*
X56876500Y-58911500D01*
G75*
G02*
X56964000Y-58999000I0J-87500D01*
G01*
X56964000Y-59799000D01*
G75*
G02*
X56876500Y-59886500I-87500J0D01*
G01*
X56701500Y-59886500D01*
G75*
G02*
X56614000Y-59799000I0J87500D01*
G01*
X56614000Y-58999000D01*
G75*
G02*
X56701500Y-58911500I87500J0D01*
G01*
G37*
G36*
G01*
X57201500Y-58911500D02*
X57376500Y-58911500D01*
G75*
G02*
X57464000Y-58999000I0J-87500D01*
G01*
X57464000Y-59799000D01*
G75*
G02*
X57376500Y-59886500I-87500J0D01*
G01*
X57201500Y-59886500D01*
G75*
G02*
X57114000Y-59799000I0J87500D01*
G01*
X57114000Y-58999000D01*
G75*
G02*
X57201500Y-58911500I87500J0D01*
G01*
G37*
G36*
G01*
X57701500Y-58911500D02*
X57876500Y-58911500D01*
G75*
G02*
X57964000Y-58999000I0J-87500D01*
G01*
X57964000Y-59799000D01*
G75*
G02*
X57876500Y-59886500I-87500J0D01*
G01*
X57701500Y-59886500D01*
G75*
G02*
X57614000Y-59799000I0J87500D01*
G01*
X57614000Y-58999000D01*
G75*
G02*
X57701500Y-58911500I87500J0D01*
G01*
G37*
X58289000Y-59399000D03*
D53*
X58976500Y-58711500D03*
G36*
G01*
X58576500Y-58036500D02*
X59376500Y-58036500D01*
G75*
G02*
X59464000Y-58124000I0J-87500D01*
G01*
X59464000Y-58299000D01*
G75*
G02*
X59376500Y-58386500I-87500J0D01*
G01*
X58576500Y-58386500D01*
G75*
G02*
X58489000Y-58299000I0J87500D01*
G01*
X58489000Y-58124000D01*
G75*
G02*
X58576500Y-58036500I87500J0D01*
G01*
G37*
G36*
G01*
X58576500Y-57536500D02*
X59376500Y-57536500D01*
G75*
G02*
X59464000Y-57624000I0J-87500D01*
G01*
X59464000Y-57799000D01*
G75*
G02*
X59376500Y-57886500I-87500J0D01*
G01*
X58576500Y-57886500D01*
G75*
G02*
X58489000Y-57799000I0J87500D01*
G01*
X58489000Y-57624000D01*
G75*
G02*
X58576500Y-57536500I87500J0D01*
G01*
G37*
G36*
G01*
X58576500Y-57036500D02*
X59376500Y-57036500D01*
G75*
G02*
X59464000Y-57124000I0J-87500D01*
G01*
X59464000Y-57299000D01*
G75*
G02*
X59376500Y-57386500I-87500J0D01*
G01*
X58576500Y-57386500D01*
G75*
G02*
X58489000Y-57299000I0J87500D01*
G01*
X58489000Y-57124000D01*
G75*
G02*
X58576500Y-57036500I87500J0D01*
G01*
G37*
G36*
G01*
X58576500Y-56536500D02*
X59376500Y-56536500D01*
G75*
G02*
X59464000Y-56624000I0J-87500D01*
G01*
X59464000Y-56799000D01*
G75*
G02*
X59376500Y-56886500I-87500J0D01*
G01*
X58576500Y-56886500D01*
G75*
G02*
X58489000Y-56799000I0J87500D01*
G01*
X58489000Y-56624000D01*
G75*
G02*
X58576500Y-56536500I87500J0D01*
G01*
G37*
G36*
G01*
X58576500Y-56036500D02*
X59376500Y-56036500D01*
G75*
G02*
X59464000Y-56124000I0J-87500D01*
G01*
X59464000Y-56299000D01*
G75*
G02*
X59376500Y-56386500I-87500J0D01*
G01*
X58576500Y-56386500D01*
G75*
G02*
X58489000Y-56299000I0J87500D01*
G01*
X58489000Y-56124000D01*
G75*
G02*
X58576500Y-56036500I87500J0D01*
G01*
G37*
G36*
G01*
X58576500Y-55536500D02*
X59376500Y-55536500D01*
G75*
G02*
X59464000Y-55624000I0J-87500D01*
G01*
X59464000Y-55799000D01*
G75*
G02*
X59376500Y-55886500I-87500J0D01*
G01*
X58576500Y-55886500D01*
G75*
G02*
X58489000Y-55799000I0J87500D01*
G01*
X58489000Y-55624000D01*
G75*
G02*
X58576500Y-55536500I87500J0D01*
G01*
G37*
X58976500Y-55211500D03*
D54*
X58289000Y-54524000D03*
G36*
G01*
X57701500Y-54036500D02*
X57876500Y-54036500D01*
G75*
G02*
X57964000Y-54124000I0J-87500D01*
G01*
X57964000Y-54924000D01*
G75*
G02*
X57876500Y-55011500I-87500J0D01*
G01*
X57701500Y-55011500D01*
G75*
G02*
X57614000Y-54924000I0J87500D01*
G01*
X57614000Y-54124000D01*
G75*
G02*
X57701500Y-54036500I87500J0D01*
G01*
G37*
G36*
G01*
X57201500Y-54036500D02*
X57376500Y-54036500D01*
G75*
G02*
X57464000Y-54124000I0J-87500D01*
G01*
X57464000Y-54924000D01*
G75*
G02*
X57376500Y-55011500I-87500J0D01*
G01*
X57201500Y-55011500D01*
G75*
G02*
X57114000Y-54924000I0J87500D01*
G01*
X57114000Y-54124000D01*
G75*
G02*
X57201500Y-54036500I87500J0D01*
G01*
G37*
G36*
G01*
X56701500Y-54036500D02*
X56876500Y-54036500D01*
G75*
G02*
X56964000Y-54124000I0J-87500D01*
G01*
X56964000Y-54924000D01*
G75*
G02*
X56876500Y-55011500I-87500J0D01*
G01*
X56701500Y-55011500D01*
G75*
G02*
X56614000Y-54924000I0J87500D01*
G01*
X56614000Y-54124000D01*
G75*
G02*
X56701500Y-54036500I87500J0D01*
G01*
G37*
G36*
G01*
X56201500Y-54036500D02*
X56376500Y-54036500D01*
G75*
G02*
X56464000Y-54124000I0J-87500D01*
G01*
X56464000Y-54924000D01*
G75*
G02*
X56376500Y-55011500I-87500J0D01*
G01*
X56201500Y-55011500D01*
G75*
G02*
X56114000Y-54924000I0J87500D01*
G01*
X56114000Y-54124000D01*
G75*
G02*
X56201500Y-54036500I87500J0D01*
G01*
G37*
G36*
G01*
X55701500Y-54036500D02*
X55876500Y-54036500D01*
G75*
G02*
X55964000Y-54124000I0J-87500D01*
G01*
X55964000Y-54924000D01*
G75*
G02*
X55876500Y-55011500I-87500J0D01*
G01*
X55701500Y-55011500D01*
G75*
G02*
X55614000Y-54924000I0J87500D01*
G01*
X55614000Y-54124000D01*
G75*
G02*
X55701500Y-54036500I87500J0D01*
G01*
G37*
G36*
G01*
X55201500Y-54036500D02*
X55376500Y-54036500D01*
G75*
G02*
X55464000Y-54124000I0J-87500D01*
G01*
X55464000Y-54924000D01*
G75*
G02*
X55376500Y-55011500I-87500J0D01*
G01*
X55201500Y-55011500D01*
G75*
G02*
X55114000Y-54924000I0J87500D01*
G01*
X55114000Y-54124000D01*
G75*
G02*
X55201500Y-54036500I87500J0D01*
G01*
G37*
X54789000Y-54524000D03*
%TD*%
D55*
%TO.C,H4*%
X194100000Y-105820000D03*
%TD*%
%TO.C,H3*%
X67900000Y-105800000D03*
%TD*%
%TO.C,H2*%
X194100000Y-40170000D03*
%TD*%
%TO.C,H1*%
X67851080Y-40158500D03*
%TD*%
%TO.C,R64*%
G36*
G01*
X70444938Y-119666800D02*
X71401462Y-119666800D01*
G75*
G02*
X71673200Y-119938538I0J-271738D01*
G01*
X71673200Y-120645062D01*
G75*
G02*
X71401462Y-120916800I-271738J0D01*
G01*
X70444938Y-120916800D01*
G75*
G02*
X70173200Y-120645062I0J271738D01*
G01*
X70173200Y-119938538D01*
G75*
G02*
X70444938Y-119666800I271738J0D01*
G01*
G37*
G36*
G01*
X70444938Y-117616800D02*
X71401462Y-117616800D01*
G75*
G02*
X71673200Y-117888538I0J-271738D01*
G01*
X71673200Y-118595062D01*
G75*
G02*
X71401462Y-118866800I-271738J0D01*
G01*
X70444938Y-118866800D01*
G75*
G02*
X70173200Y-118595062I0J271738D01*
G01*
X70173200Y-117888538D01*
G75*
G02*
X70444938Y-117616800I271738J0D01*
G01*
G37*
%TD*%
%TO.C,R63*%
G36*
G01*
X68438338Y-119666800D02*
X69394862Y-119666800D01*
G75*
G02*
X69666600Y-119938538I0J-271738D01*
G01*
X69666600Y-120645062D01*
G75*
G02*
X69394862Y-120916800I-271738J0D01*
G01*
X68438338Y-120916800D01*
G75*
G02*
X68166600Y-120645062I0J271738D01*
G01*
X68166600Y-119938538D01*
G75*
G02*
X68438338Y-119666800I271738J0D01*
G01*
G37*
G36*
G01*
X68438338Y-117616800D02*
X69394862Y-117616800D01*
G75*
G02*
X69666600Y-117888538I0J-271738D01*
G01*
X69666600Y-118595062D01*
G75*
G02*
X69394862Y-118866800I-271738J0D01*
G01*
X68438338Y-118866800D01*
G75*
G02*
X68166600Y-118595062I0J271738D01*
G01*
X68166600Y-117888538D01*
G75*
G02*
X68438338Y-117616800I271738J0D01*
G01*
G37*
%TD*%
D51*
%TO.C,JP1*%
G36*
X76905602Y-113098889D02*
G01*
X76905602Y-113080466D01*
X76905843Y-113075565D01*
X76910653Y-113026734D01*
X76911373Y-113021881D01*
X76920945Y-112973756D01*
X76922137Y-112968995D01*
X76936381Y-112922040D01*
X76938034Y-112917421D01*
X76956811Y-112872088D01*
X76958909Y-112867651D01*
X76982040Y-112824378D01*
X76984562Y-112820171D01*
X77011822Y-112779372D01*
X77014746Y-112775430D01*
X77045874Y-112737501D01*
X77049169Y-112733866D01*
X77083866Y-112699169D01*
X77087501Y-112695874D01*
X77125430Y-112664746D01*
X77129372Y-112661822D01*
X77170171Y-112634562D01*
X77174378Y-112632040D01*
X77217651Y-112608909D01*
X77222088Y-112606811D01*
X77267421Y-112588034D01*
X77272040Y-112586381D01*
X77318995Y-112572137D01*
X77323756Y-112570945D01*
X77371881Y-112561373D01*
X77376734Y-112560653D01*
X77425565Y-112555843D01*
X77430466Y-112555602D01*
X77448889Y-112555602D01*
X77455000Y-112555000D01*
X77955000Y-112555000D01*
X77961111Y-112555602D01*
X77979534Y-112555602D01*
X77984435Y-112555843D01*
X78033266Y-112560653D01*
X78038119Y-112561373D01*
X78086244Y-112570945D01*
X78091005Y-112572137D01*
X78137960Y-112586381D01*
X78142579Y-112588034D01*
X78187912Y-112606811D01*
X78192349Y-112608909D01*
X78235622Y-112632040D01*
X78239829Y-112634562D01*
X78280628Y-112661822D01*
X78284570Y-112664746D01*
X78322499Y-112695874D01*
X78326134Y-112699169D01*
X78360831Y-112733866D01*
X78364126Y-112737501D01*
X78395254Y-112775430D01*
X78398178Y-112779372D01*
X78425438Y-112820171D01*
X78427960Y-112824378D01*
X78451091Y-112867651D01*
X78453189Y-112872088D01*
X78471966Y-112917421D01*
X78473619Y-112922040D01*
X78487863Y-112968995D01*
X78489055Y-112973756D01*
X78498627Y-113021881D01*
X78499347Y-113026734D01*
X78504157Y-113075565D01*
X78504398Y-113080466D01*
X78504398Y-113098889D01*
X78505000Y-113105000D01*
X78505000Y-113605000D01*
X78504039Y-113614755D01*
X78501194Y-113624134D01*
X78496573Y-113632779D01*
X78490355Y-113640355D01*
X78482779Y-113646573D01*
X78474134Y-113651194D01*
X78464755Y-113654039D01*
X78455000Y-113655000D01*
X76955000Y-113655000D01*
X76945245Y-113654039D01*
X76935866Y-113651194D01*
X76927221Y-113646573D01*
X76919645Y-113640355D01*
X76913427Y-113632779D01*
X76908806Y-113624134D01*
X76905961Y-113614755D01*
X76905000Y-113605000D01*
X76905000Y-113105000D01*
X76905602Y-113098889D01*
G37*
G36*
X76905961Y-113895245D02*
G01*
X76908806Y-113885866D01*
X76913427Y-113877221D01*
X76919645Y-113869645D01*
X76927221Y-113863427D01*
X76935866Y-113858806D01*
X76945245Y-113855961D01*
X76955000Y-113855000D01*
X78455000Y-113855000D01*
X78464755Y-113855961D01*
X78474134Y-113858806D01*
X78482779Y-113863427D01*
X78490355Y-113869645D01*
X78496573Y-113877221D01*
X78501194Y-113885866D01*
X78504039Y-113895245D01*
X78505000Y-113905000D01*
X78505000Y-114405000D01*
X78504398Y-114411111D01*
X78504398Y-114429534D01*
X78504157Y-114434435D01*
X78499347Y-114483266D01*
X78498627Y-114488119D01*
X78489055Y-114536244D01*
X78487863Y-114541005D01*
X78473619Y-114587960D01*
X78471966Y-114592579D01*
X78453189Y-114637912D01*
X78451091Y-114642349D01*
X78427960Y-114685622D01*
X78425438Y-114689829D01*
X78398178Y-114730628D01*
X78395254Y-114734570D01*
X78364126Y-114772499D01*
X78360831Y-114776134D01*
X78326134Y-114810831D01*
X78322499Y-114814126D01*
X78284570Y-114845254D01*
X78280628Y-114848178D01*
X78239829Y-114875438D01*
X78235622Y-114877960D01*
X78192349Y-114901091D01*
X78187912Y-114903189D01*
X78142579Y-114921966D01*
X78137960Y-114923619D01*
X78091005Y-114937863D01*
X78086244Y-114939055D01*
X78038119Y-114948627D01*
X78033266Y-114949347D01*
X77984435Y-114954157D01*
X77979534Y-114954398D01*
X77961111Y-114954398D01*
X77955000Y-114955000D01*
X77455000Y-114955000D01*
X77448889Y-114954398D01*
X77430466Y-114954398D01*
X77425565Y-114954157D01*
X77376734Y-114949347D01*
X77371881Y-114948627D01*
X77323756Y-114939055D01*
X77318995Y-114937863D01*
X77272040Y-114923619D01*
X77267421Y-114921966D01*
X77222088Y-114903189D01*
X77217651Y-114901091D01*
X77174378Y-114877960D01*
X77170171Y-114875438D01*
X77129372Y-114848178D01*
X77125430Y-114845254D01*
X77087501Y-114814126D01*
X77083866Y-114810831D01*
X77049169Y-114776134D01*
X77045874Y-114772499D01*
X77014746Y-114734570D01*
X77011822Y-114730628D01*
X76984562Y-114689829D01*
X76982040Y-114685622D01*
X76958909Y-114642349D01*
X76956811Y-114637912D01*
X76938034Y-114592579D01*
X76936381Y-114587960D01*
X76922137Y-114541005D01*
X76920945Y-114536244D01*
X76911373Y-114488119D01*
X76910653Y-114483266D01*
X76905843Y-114434435D01*
X76905602Y-114429534D01*
X76905602Y-114411111D01*
X76905000Y-114405000D01*
X76905000Y-113905000D01*
X76905961Y-113895245D01*
G37*
%TD*%
D56*
%TO.C,TP2*%
X229390000Y-33110000D03*
%TD*%
%TO.C,TP1*%
X175161000Y-21172000D03*
%TD*%
%TO.C,R62*%
G36*
G01*
X210994000Y-23555262D02*
X210994000Y-22598738D01*
G75*
G02*
X211265738Y-22327000I271738J0D01*
G01*
X211972262Y-22327000D01*
G75*
G02*
X212244000Y-22598738I0J-271738D01*
G01*
X212244000Y-23555262D01*
G75*
G02*
X211972262Y-23827000I-271738J0D01*
G01*
X211265738Y-23827000D01*
G75*
G02*
X210994000Y-23555262I0J271738D01*
G01*
G37*
G36*
G01*
X208944000Y-23555262D02*
X208944000Y-22598738D01*
G75*
G02*
X209215738Y-22327000I271738J0D01*
G01*
X209922262Y-22327000D01*
G75*
G02*
X210194000Y-22598738I0J-271738D01*
G01*
X210194000Y-23555262D01*
G75*
G02*
X209922262Y-23827000I-271738J0D01*
G01*
X209215738Y-23827000D01*
G75*
G02*
X208944000Y-23555262I0J271738D01*
G01*
G37*
%TD*%
%TO.C,R61*%
G36*
G01*
X206803000Y-23555262D02*
X206803000Y-22598738D01*
G75*
G02*
X207074738Y-22327000I271738J0D01*
G01*
X207781262Y-22327000D01*
G75*
G02*
X208053000Y-22598738I0J-271738D01*
G01*
X208053000Y-23555262D01*
G75*
G02*
X207781262Y-23827000I-271738J0D01*
G01*
X207074738Y-23827000D01*
G75*
G02*
X206803000Y-23555262I0J271738D01*
G01*
G37*
G36*
G01*
X204753000Y-23555262D02*
X204753000Y-22598738D01*
G75*
G02*
X205024738Y-22327000I271738J0D01*
G01*
X205731262Y-22327000D01*
G75*
G02*
X206003000Y-22598738I0J-271738D01*
G01*
X206003000Y-23555262D01*
G75*
G02*
X205731262Y-23827000I-271738J0D01*
G01*
X205024738Y-23827000D01*
G75*
G02*
X204753000Y-23555262I0J271738D01*
G01*
G37*
%TD*%
%TO.C,R60*%
G36*
G01*
X202876738Y-22461000D02*
X203833262Y-22461000D01*
G75*
G02*
X204105000Y-22732738I0J-271738D01*
G01*
X204105000Y-23439262D01*
G75*
G02*
X203833262Y-23711000I-271738J0D01*
G01*
X202876738Y-23711000D01*
G75*
G02*
X202605000Y-23439262I0J271738D01*
G01*
X202605000Y-22732738D01*
G75*
G02*
X202876738Y-22461000I271738J0D01*
G01*
G37*
G36*
G01*
X202876738Y-20411000D02*
X203833262Y-20411000D01*
G75*
G02*
X204105000Y-20682738I0J-271738D01*
G01*
X204105000Y-21389262D01*
G75*
G02*
X203833262Y-21661000I-271738J0D01*
G01*
X202876738Y-21661000D01*
G75*
G02*
X202605000Y-21389262I0J271738D01*
G01*
X202605000Y-20682738D01*
G75*
G02*
X202876738Y-20411000I271738J0D01*
G01*
G37*
%TD*%
%TO.C,R59*%
G36*
G01*
X200797738Y-22461000D02*
X201754262Y-22461000D01*
G75*
G02*
X202026000Y-22732738I0J-271738D01*
G01*
X202026000Y-23439262D01*
G75*
G02*
X201754262Y-23711000I-271738J0D01*
G01*
X200797738Y-23711000D01*
G75*
G02*
X200526000Y-23439262I0J271738D01*
G01*
X200526000Y-22732738D01*
G75*
G02*
X200797738Y-22461000I271738J0D01*
G01*
G37*
G36*
G01*
X200797738Y-20411000D02*
X201754262Y-20411000D01*
G75*
G02*
X202026000Y-20682738I0J-271738D01*
G01*
X202026000Y-21389262D01*
G75*
G02*
X201754262Y-21661000I-271738J0D01*
G01*
X200797738Y-21661000D01*
G75*
G02*
X200526000Y-21389262I0J271738D01*
G01*
X200526000Y-20682738D01*
G75*
G02*
X200797738Y-20411000I271738J0D01*
G01*
G37*
%TD*%
%TO.C,R58*%
G36*
G01*
X171956262Y-28519000D02*
X170999738Y-28519000D01*
G75*
G02*
X170728000Y-28247262I0J271738D01*
G01*
X170728000Y-27540738D01*
G75*
G02*
X170999738Y-27269000I271738J0D01*
G01*
X171956262Y-27269000D01*
G75*
G02*
X172228000Y-27540738I0J-271738D01*
G01*
X172228000Y-28247262D01*
G75*
G02*
X171956262Y-28519000I-271738J0D01*
G01*
G37*
G36*
G01*
X171956262Y-30569000D02*
X170999738Y-30569000D01*
G75*
G02*
X170728000Y-30297262I0J271738D01*
G01*
X170728000Y-29590738D01*
G75*
G02*
X170999738Y-29319000I271738J0D01*
G01*
X171956262Y-29319000D01*
G75*
G02*
X172228000Y-29590738I0J-271738D01*
G01*
X172228000Y-30297262D01*
G75*
G02*
X171956262Y-30569000I-271738J0D01*
G01*
G37*
%TD*%
%TO.C,R57*%
G36*
G01*
X166834138Y-29319000D02*
X167790662Y-29319000D01*
G75*
G02*
X168062400Y-29590738I0J-271738D01*
G01*
X168062400Y-30297262D01*
G75*
G02*
X167790662Y-30569000I-271738J0D01*
G01*
X166834138Y-30569000D01*
G75*
G02*
X166562400Y-30297262I0J271738D01*
G01*
X166562400Y-29590738D01*
G75*
G02*
X166834138Y-29319000I271738J0D01*
G01*
G37*
G36*
G01*
X166834138Y-27269000D02*
X167790662Y-27269000D01*
G75*
G02*
X168062400Y-27540738I0J-271738D01*
G01*
X168062400Y-28247262D01*
G75*
G02*
X167790662Y-28519000I-271738J0D01*
G01*
X166834138Y-28519000D01*
G75*
G02*
X166562400Y-28247262I0J271738D01*
G01*
X166562400Y-27540738D01*
G75*
G02*
X166834138Y-27269000I271738J0D01*
G01*
G37*
%TD*%
%TO.C,R56*%
G36*
G01*
X185519862Y-17927200D02*
X184563338Y-17927200D01*
G75*
G02*
X184291600Y-17655462I0J271738D01*
G01*
X184291600Y-16948938D01*
G75*
G02*
X184563338Y-16677200I271738J0D01*
G01*
X185519862Y-16677200D01*
G75*
G02*
X185791600Y-16948938I0J-271738D01*
G01*
X185791600Y-17655462D01*
G75*
G02*
X185519862Y-17927200I-271738J0D01*
G01*
G37*
G36*
G01*
X185519862Y-19977200D02*
X184563338Y-19977200D01*
G75*
G02*
X184291600Y-19705462I0J271738D01*
G01*
X184291600Y-18998938D01*
G75*
G02*
X184563338Y-18727200I271738J0D01*
G01*
X185519862Y-18727200D01*
G75*
G02*
X185791600Y-18998938I0J-271738D01*
G01*
X185791600Y-19705462D01*
G75*
G02*
X185519862Y-19977200I-271738J0D01*
G01*
G37*
%TD*%
%TO.C,R55*%
G36*
G01*
X187551862Y-17927200D02*
X186595338Y-17927200D01*
G75*
G02*
X186323600Y-17655462I0J271738D01*
G01*
X186323600Y-16948938D01*
G75*
G02*
X186595338Y-16677200I271738J0D01*
G01*
X187551862Y-16677200D01*
G75*
G02*
X187823600Y-16948938I0J-271738D01*
G01*
X187823600Y-17655462D01*
G75*
G02*
X187551862Y-17927200I-271738J0D01*
G01*
G37*
G36*
G01*
X187551862Y-19977200D02*
X186595338Y-19977200D01*
G75*
G02*
X186323600Y-19705462I0J271738D01*
G01*
X186323600Y-18998938D01*
G75*
G02*
X186595338Y-18727200I271738J0D01*
G01*
X187551862Y-18727200D01*
G75*
G02*
X187823600Y-18998938I0J-271738D01*
G01*
X187823600Y-19705462D01*
G75*
G02*
X187551862Y-19977200I-271738J0D01*
G01*
G37*
%TD*%
%TO.C,C33*%
G36*
G01*
X217549262Y-38425000D02*
X216592738Y-38425000D01*
G75*
G02*
X216321000Y-38153262I0J271738D01*
G01*
X216321000Y-37446738D01*
G75*
G02*
X216592738Y-37175000I271738J0D01*
G01*
X217549262Y-37175000D01*
G75*
G02*
X217821000Y-37446738I0J-271738D01*
G01*
X217821000Y-38153262D01*
G75*
G02*
X217549262Y-38425000I-271738J0D01*
G01*
G37*
G36*
G01*
X217549262Y-40475000D02*
X216592738Y-40475000D01*
G75*
G02*
X216321000Y-40203262I0J271738D01*
G01*
X216321000Y-39496738D01*
G75*
G02*
X216592738Y-39225000I271738J0D01*
G01*
X217549262Y-39225000D01*
G75*
G02*
X217821000Y-39496738I0J-271738D01*
G01*
X217821000Y-40203262D01*
G75*
G02*
X217549262Y-40475000I-271738J0D01*
G01*
G37*
%TD*%
%TO.C,C31*%
G36*
G01*
X224153262Y-38425000D02*
X223196738Y-38425000D01*
G75*
G02*
X222925000Y-38153262I0J271738D01*
G01*
X222925000Y-37446738D01*
G75*
G02*
X223196738Y-37175000I271738J0D01*
G01*
X224153262Y-37175000D01*
G75*
G02*
X224425000Y-37446738I0J-271738D01*
G01*
X224425000Y-38153262D01*
G75*
G02*
X224153262Y-38425000I-271738J0D01*
G01*
G37*
G36*
G01*
X224153262Y-40475000D02*
X223196738Y-40475000D01*
G75*
G02*
X222925000Y-40203262I0J271738D01*
G01*
X222925000Y-39496738D01*
G75*
G02*
X223196738Y-39225000I271738J0D01*
G01*
X224153262Y-39225000D01*
G75*
G02*
X224425000Y-39496738I0J-271738D01*
G01*
X224425000Y-40203262D01*
G75*
G02*
X224153262Y-40475000I-271738J0D01*
G01*
G37*
%TD*%
%TO.C,C30*%
G36*
G01*
X226312262Y-38425000D02*
X225355738Y-38425000D01*
G75*
G02*
X225084000Y-38153262I0J271738D01*
G01*
X225084000Y-37446738D01*
G75*
G02*
X225355738Y-37175000I271738J0D01*
G01*
X226312262Y-37175000D01*
G75*
G02*
X226584000Y-37446738I0J-271738D01*
G01*
X226584000Y-38153262D01*
G75*
G02*
X226312262Y-38425000I-271738J0D01*
G01*
G37*
G36*
G01*
X226312262Y-40475000D02*
X225355738Y-40475000D01*
G75*
G02*
X225084000Y-40203262I0J271738D01*
G01*
X225084000Y-39496738D01*
G75*
G02*
X225355738Y-39225000I271738J0D01*
G01*
X226312262Y-39225000D01*
G75*
G02*
X226584000Y-39496738I0J-271738D01*
G01*
X226584000Y-40203262D01*
G75*
G02*
X226312262Y-40475000I-271738J0D01*
G01*
G37*
%TD*%
%TO.C,C27*%
G36*
G01*
X211106338Y-29649200D02*
X212062862Y-29649200D01*
G75*
G02*
X212334600Y-29920938I0J-271738D01*
G01*
X212334600Y-30627462D01*
G75*
G02*
X212062862Y-30899200I-271738J0D01*
G01*
X211106338Y-30899200D01*
G75*
G02*
X210834600Y-30627462I0J271738D01*
G01*
X210834600Y-29920938D01*
G75*
G02*
X211106338Y-29649200I271738J0D01*
G01*
G37*
G36*
G01*
X211106338Y-27599200D02*
X212062862Y-27599200D01*
G75*
G02*
X212334600Y-27870938I0J-271738D01*
G01*
X212334600Y-28577462D01*
G75*
G02*
X212062862Y-28849200I-271738J0D01*
G01*
X211106338Y-28849200D01*
G75*
G02*
X210834600Y-28577462I0J271738D01*
G01*
X210834600Y-27870938D01*
G75*
G02*
X211106338Y-27599200I271738J0D01*
G01*
G37*
%TD*%
%TO.C,C26*%
G36*
G01*
X206881262Y-18994000D02*
X205924738Y-18994000D01*
G75*
G02*
X205653000Y-18722262I0J271738D01*
G01*
X205653000Y-18015738D01*
G75*
G02*
X205924738Y-17744000I271738J0D01*
G01*
X206881262Y-17744000D01*
G75*
G02*
X207153000Y-18015738I0J-271738D01*
G01*
X207153000Y-18722262D01*
G75*
G02*
X206881262Y-18994000I-271738J0D01*
G01*
G37*
G36*
G01*
X206881262Y-21044000D02*
X205924738Y-21044000D01*
G75*
G02*
X205653000Y-20772262I0J271738D01*
G01*
X205653000Y-20065738D01*
G75*
G02*
X205924738Y-19794000I271738J0D01*
G01*
X206881262Y-19794000D01*
G75*
G02*
X207153000Y-20065738I0J-271738D01*
G01*
X207153000Y-20772262D01*
G75*
G02*
X206881262Y-21044000I-271738J0D01*
G01*
G37*
%TD*%
%TO.C,C25*%
G36*
G01*
X122295238Y-20302000D02*
X123251762Y-20302000D01*
G75*
G02*
X123523500Y-20573738I0J-271738D01*
G01*
X123523500Y-21280262D01*
G75*
G02*
X123251762Y-21552000I-271738J0D01*
G01*
X122295238Y-21552000D01*
G75*
G02*
X122023500Y-21280262I0J271738D01*
G01*
X122023500Y-20573738D01*
G75*
G02*
X122295238Y-20302000I271738J0D01*
G01*
G37*
G36*
G01*
X122295238Y-18252000D02*
X123251762Y-18252000D01*
G75*
G02*
X123523500Y-18523738I0J-271738D01*
G01*
X123523500Y-19230262D01*
G75*
G02*
X123251762Y-19502000I-271738J0D01*
G01*
X122295238Y-19502000D01*
G75*
G02*
X122023500Y-19230262I0J271738D01*
G01*
X122023500Y-18523738D01*
G75*
G02*
X122295238Y-18252000I271738J0D01*
G01*
G37*
%TD*%
%TO.C,C24*%
G36*
G01*
X183825000Y-29143262D02*
X183825000Y-28186738D01*
G75*
G02*
X184096738Y-27915000I271738J0D01*
G01*
X184803262Y-27915000D01*
G75*
G02*
X185075000Y-28186738I0J-271738D01*
G01*
X185075000Y-29143262D01*
G75*
G02*
X184803262Y-29415000I-271738J0D01*
G01*
X184096738Y-29415000D01*
G75*
G02*
X183825000Y-29143262I0J271738D01*
G01*
G37*
G36*
G01*
X181775000Y-29143262D02*
X181775000Y-28186738D01*
G75*
G02*
X182046738Y-27915000I271738J0D01*
G01*
X182753262Y-27915000D01*
G75*
G02*
X183025000Y-28186738I0J-271738D01*
G01*
X183025000Y-29143262D01*
G75*
G02*
X182753262Y-29415000I-271738J0D01*
G01*
X182046738Y-29415000D01*
G75*
G02*
X181775000Y-29143262I0J271738D01*
G01*
G37*
%TD*%
%TO.C,C23*%
G36*
G01*
X195256738Y-32367000D02*
X196213262Y-32367000D01*
G75*
G02*
X196485000Y-32638738I0J-271738D01*
G01*
X196485000Y-33345262D01*
G75*
G02*
X196213262Y-33617000I-271738J0D01*
G01*
X195256738Y-33617000D01*
G75*
G02*
X194985000Y-33345262I0J271738D01*
G01*
X194985000Y-32638738D01*
G75*
G02*
X195256738Y-32367000I271738J0D01*
G01*
G37*
G36*
G01*
X195256738Y-30317000D02*
X196213262Y-30317000D01*
G75*
G02*
X196485000Y-30588738I0J-271738D01*
G01*
X196485000Y-31295262D01*
G75*
G02*
X196213262Y-31567000I-271738J0D01*
G01*
X195256738Y-31567000D01*
G75*
G02*
X194985000Y-31295262I0J271738D01*
G01*
X194985000Y-30588738D01*
G75*
G02*
X195256738Y-30317000I271738J0D01*
G01*
G37*
%TD*%
%TO.C,C21*%
G36*
G01*
X165809462Y-28519000D02*
X164852938Y-28519000D01*
G75*
G02*
X164581200Y-28247262I0J271738D01*
G01*
X164581200Y-27540738D01*
G75*
G02*
X164852938Y-27269000I271738J0D01*
G01*
X165809462Y-27269000D01*
G75*
G02*
X166081200Y-27540738I0J-271738D01*
G01*
X166081200Y-28247262D01*
G75*
G02*
X165809462Y-28519000I-271738J0D01*
G01*
G37*
G36*
G01*
X165809462Y-30569000D02*
X164852938Y-30569000D01*
G75*
G02*
X164581200Y-30297262I0J271738D01*
G01*
X164581200Y-29590738D01*
G75*
G02*
X164852938Y-29319000I271738J0D01*
G01*
X165809462Y-29319000D01*
G75*
G02*
X166081200Y-29590738I0J-271738D01*
G01*
X166081200Y-30297262D01*
G75*
G02*
X165809462Y-30569000I-271738J0D01*
G01*
G37*
%TD*%
%TO.C,C20*%
G36*
G01*
X168916938Y-29319000D02*
X169873462Y-29319000D01*
G75*
G02*
X170145200Y-29590738I0J-271738D01*
G01*
X170145200Y-30297262D01*
G75*
G02*
X169873462Y-30569000I-271738J0D01*
G01*
X168916938Y-30569000D01*
G75*
G02*
X168645200Y-30297262I0J271738D01*
G01*
X168645200Y-29590738D01*
G75*
G02*
X168916938Y-29319000I271738J0D01*
G01*
G37*
G36*
G01*
X168916938Y-27269000D02*
X169873462Y-27269000D01*
G75*
G02*
X170145200Y-27540738I0J-271738D01*
G01*
X170145200Y-28247262D01*
G75*
G02*
X169873462Y-28519000I-271738J0D01*
G01*
X168916938Y-28519000D01*
G75*
G02*
X168645200Y-28247262I0J271738D01*
G01*
X168645200Y-27540738D01*
G75*
G02*
X168916938Y-27269000I271738J0D01*
G01*
G37*
%TD*%
%TO.C,C19*%
G36*
G01*
X182531338Y-18727200D02*
X183487862Y-18727200D01*
G75*
G02*
X183759600Y-18998938I0J-271738D01*
G01*
X183759600Y-19705462D01*
G75*
G02*
X183487862Y-19977200I-271738J0D01*
G01*
X182531338Y-19977200D01*
G75*
G02*
X182259600Y-19705462I0J271738D01*
G01*
X182259600Y-18998938D01*
G75*
G02*
X182531338Y-18727200I271738J0D01*
G01*
G37*
G36*
G01*
X182531338Y-16677200D02*
X183487862Y-16677200D01*
G75*
G02*
X183759600Y-16948938I0J-271738D01*
G01*
X183759600Y-17655462D01*
G75*
G02*
X183487862Y-17927200I-271738J0D01*
G01*
X182531338Y-17927200D01*
G75*
G02*
X182259600Y-17655462I0J271738D01*
G01*
X182259600Y-16948938D01*
G75*
G02*
X182531338Y-16677200I271738J0D01*
G01*
G37*
%TD*%
%TO.C,C17*%
G36*
G01*
X186457600Y-21701062D02*
X186457600Y-20744538D01*
G75*
G02*
X186729338Y-20472800I271738J0D01*
G01*
X187435862Y-20472800D01*
G75*
G02*
X187707600Y-20744538I0J-271738D01*
G01*
X187707600Y-21701062D01*
G75*
G02*
X187435862Y-21972800I-271738J0D01*
G01*
X186729338Y-21972800D01*
G75*
G02*
X186457600Y-21701062I0J271738D01*
G01*
G37*
G36*
G01*
X184407600Y-21701062D02*
X184407600Y-20744538D01*
G75*
G02*
X184679338Y-20472800I271738J0D01*
G01*
X185385862Y-20472800D01*
G75*
G02*
X185657600Y-20744538I0J-271738D01*
G01*
X185657600Y-21701062D01*
G75*
G02*
X185385862Y-21972800I-271738J0D01*
G01*
X184679338Y-21972800D01*
G75*
G02*
X184407600Y-21701062I0J271738D01*
G01*
G37*
%TD*%
%TO.C,R2*%
G36*
G01*
X101400000Y-120021738D02*
X101400000Y-120978262D01*
G75*
G02*
X101128262Y-121250000I-271738J0D01*
G01*
X100421738Y-121250000D01*
G75*
G02*
X100150000Y-120978262I0J271738D01*
G01*
X100150000Y-120021738D01*
G75*
G02*
X100421738Y-119750000I271738J0D01*
G01*
X101128262Y-119750000D01*
G75*
G02*
X101400000Y-120021738I0J-271738D01*
G01*
G37*
G36*
G01*
X103450000Y-120021738D02*
X103450000Y-120978262D01*
G75*
G02*
X103178262Y-121250000I-271738J0D01*
G01*
X102471738Y-121250000D01*
G75*
G02*
X102200000Y-120978262I0J271738D01*
G01*
X102200000Y-120021738D01*
G75*
G02*
X102471738Y-119750000I271738J0D01*
G01*
X103178262Y-119750000D01*
G75*
G02*
X103450000Y-120021738I0J-271738D01*
G01*
G37*
%TD*%
%TO.C,R1*%
G36*
G01*
X101400000Y-117921738D02*
X101400000Y-118878262D01*
G75*
G02*
X101128262Y-119150000I-271738J0D01*
G01*
X100421738Y-119150000D01*
G75*
G02*
X100150000Y-118878262I0J271738D01*
G01*
X100150000Y-117921738D01*
G75*
G02*
X100421738Y-117650000I271738J0D01*
G01*
X101128262Y-117650000D01*
G75*
G02*
X101400000Y-117921738I0J-271738D01*
G01*
G37*
G36*
G01*
X103450000Y-117921738D02*
X103450000Y-118878262D01*
G75*
G02*
X103178262Y-119150000I-271738J0D01*
G01*
X102471738Y-119150000D01*
G75*
G02*
X102200000Y-118878262I0J271738D01*
G01*
X102200000Y-117921738D01*
G75*
G02*
X102471738Y-117650000I271738J0D01*
G01*
X103178262Y-117650000D01*
G75*
G02*
X103450000Y-117921738I0J-271738D01*
G01*
G37*
%TD*%
%TO.C,R49*%
G36*
G01*
X48621738Y-155300000D02*
X49578262Y-155300000D01*
G75*
G02*
X49850000Y-155571738I0J-271738D01*
G01*
X49850000Y-156278262D01*
G75*
G02*
X49578262Y-156550000I-271738J0D01*
G01*
X48621738Y-156550000D01*
G75*
G02*
X48350000Y-156278262I0J271738D01*
G01*
X48350000Y-155571738D01*
G75*
G02*
X48621738Y-155300000I271738J0D01*
G01*
G37*
G36*
G01*
X48621738Y-153250000D02*
X49578262Y-153250000D01*
G75*
G02*
X49850000Y-153521738I0J-271738D01*
G01*
X49850000Y-154228262D01*
G75*
G02*
X49578262Y-154500000I-271738J0D01*
G01*
X48621738Y-154500000D01*
G75*
G02*
X48350000Y-154228262I0J271738D01*
G01*
X48350000Y-153521738D01*
G75*
G02*
X48621738Y-153250000I271738J0D01*
G01*
G37*
%TD*%
%TO.C,R48*%
G36*
G01*
X70796738Y-77452000D02*
X71753262Y-77452000D01*
G75*
G02*
X72025000Y-77723738I0J-271738D01*
G01*
X72025000Y-78430262D01*
G75*
G02*
X71753262Y-78702000I-271738J0D01*
G01*
X70796738Y-78702000D01*
G75*
G02*
X70525000Y-78430262I0J271738D01*
G01*
X70525000Y-77723738D01*
G75*
G02*
X70796738Y-77452000I271738J0D01*
G01*
G37*
G36*
G01*
X70796738Y-75402000D02*
X71753262Y-75402000D01*
G75*
G02*
X72025000Y-75673738I0J-271738D01*
G01*
X72025000Y-76380262D01*
G75*
G02*
X71753262Y-76652000I-271738J0D01*
G01*
X70796738Y-76652000D01*
G75*
G02*
X70525000Y-76380262I0J271738D01*
G01*
X70525000Y-75673738D01*
G75*
G02*
X70796738Y-75402000I271738J0D01*
G01*
G37*
%TD*%
%TO.C,R47*%
G36*
G01*
X68764738Y-77452000D02*
X69721262Y-77452000D01*
G75*
G02*
X69993000Y-77723738I0J-271738D01*
G01*
X69993000Y-78430262D01*
G75*
G02*
X69721262Y-78702000I-271738J0D01*
G01*
X68764738Y-78702000D01*
G75*
G02*
X68493000Y-78430262I0J271738D01*
G01*
X68493000Y-77723738D01*
G75*
G02*
X68764738Y-77452000I271738J0D01*
G01*
G37*
G36*
G01*
X68764738Y-75402000D02*
X69721262Y-75402000D01*
G75*
G02*
X69993000Y-75673738I0J-271738D01*
G01*
X69993000Y-76380262D01*
G75*
G02*
X69721262Y-76652000I-271738J0D01*
G01*
X68764738Y-76652000D01*
G75*
G02*
X68493000Y-76380262I0J271738D01*
G01*
X68493000Y-75673738D01*
G75*
G02*
X68764738Y-75402000I271738J0D01*
G01*
G37*
%TD*%
%TO.C,R46*%
G36*
G01*
X66732738Y-77452000D02*
X67689262Y-77452000D01*
G75*
G02*
X67961000Y-77723738I0J-271738D01*
G01*
X67961000Y-78430262D01*
G75*
G02*
X67689262Y-78702000I-271738J0D01*
G01*
X66732738Y-78702000D01*
G75*
G02*
X66461000Y-78430262I0J271738D01*
G01*
X66461000Y-77723738D01*
G75*
G02*
X66732738Y-77452000I271738J0D01*
G01*
G37*
G36*
G01*
X66732738Y-75402000D02*
X67689262Y-75402000D01*
G75*
G02*
X67961000Y-75673738I0J-271738D01*
G01*
X67961000Y-76380262D01*
G75*
G02*
X67689262Y-76652000I-271738J0D01*
G01*
X66732738Y-76652000D01*
G75*
G02*
X66461000Y-76380262I0J271738D01*
G01*
X66461000Y-75673738D01*
G75*
G02*
X66732738Y-75402000I271738J0D01*
G01*
G37*
%TD*%
%TO.C,R45*%
G36*
G01*
X64700738Y-77452000D02*
X65657262Y-77452000D01*
G75*
G02*
X65929000Y-77723738I0J-271738D01*
G01*
X65929000Y-78430262D01*
G75*
G02*
X65657262Y-78702000I-271738J0D01*
G01*
X64700738Y-78702000D01*
G75*
G02*
X64429000Y-78430262I0J271738D01*
G01*
X64429000Y-77723738D01*
G75*
G02*
X64700738Y-77452000I271738J0D01*
G01*
G37*
G36*
G01*
X64700738Y-75402000D02*
X65657262Y-75402000D01*
G75*
G02*
X65929000Y-75673738I0J-271738D01*
G01*
X65929000Y-76380262D01*
G75*
G02*
X65657262Y-76652000I-271738J0D01*
G01*
X64700738Y-76652000D01*
G75*
G02*
X64429000Y-76380262I0J271738D01*
G01*
X64429000Y-75673738D01*
G75*
G02*
X64700738Y-75402000I271738J0D01*
G01*
G37*
%TD*%
%TO.C,R30*%
G36*
G01*
X242363000Y-27238262D02*
X242363000Y-26281738D01*
G75*
G02*
X242634738Y-26010000I271738J0D01*
G01*
X243341262Y-26010000D01*
G75*
G02*
X243613000Y-26281738I0J-271738D01*
G01*
X243613000Y-27238262D01*
G75*
G02*
X243341262Y-27510000I-271738J0D01*
G01*
X242634738Y-27510000D01*
G75*
G02*
X242363000Y-27238262I0J271738D01*
G01*
G37*
G36*
G01*
X240313000Y-27238262D02*
X240313000Y-26281738D01*
G75*
G02*
X240584738Y-26010000I271738J0D01*
G01*
X241291262Y-26010000D01*
G75*
G02*
X241563000Y-26281738I0J-271738D01*
G01*
X241563000Y-27238262D01*
G75*
G02*
X241291262Y-27510000I-271738J0D01*
G01*
X240584738Y-27510000D01*
G75*
G02*
X240313000Y-27238262I0J271738D01*
G01*
G37*
%TD*%
%TO.C,R43*%
G36*
G01*
X241905800Y-29905262D02*
X241905800Y-28948738D01*
G75*
G02*
X242177538Y-28677000I271738J0D01*
G01*
X242884062Y-28677000D01*
G75*
G02*
X243155800Y-28948738I0J-271738D01*
G01*
X243155800Y-29905262D01*
G75*
G02*
X242884062Y-30177000I-271738J0D01*
G01*
X242177538Y-30177000D01*
G75*
G02*
X241905800Y-29905262I0J271738D01*
G01*
G37*
G36*
G01*
X239855800Y-29905262D02*
X239855800Y-28948738D01*
G75*
G02*
X240127538Y-28677000I271738J0D01*
G01*
X240834062Y-28677000D01*
G75*
G02*
X241105800Y-28948738I0J-271738D01*
G01*
X241105800Y-29905262D01*
G75*
G02*
X240834062Y-30177000I-271738J0D01*
G01*
X240127538Y-30177000D01*
G75*
G02*
X239855800Y-29905262I0J271738D01*
G01*
G37*
%TD*%
%TO.C,R42*%
G36*
G01*
X237333900Y-28948738D02*
X237333900Y-29905262D01*
G75*
G02*
X237062162Y-30177000I-271738J0D01*
G01*
X236355638Y-30177000D01*
G75*
G02*
X236083900Y-29905262I0J271738D01*
G01*
X236083900Y-28948738D01*
G75*
G02*
X236355638Y-28677000I271738J0D01*
G01*
X237062162Y-28677000D01*
G75*
G02*
X237333900Y-28948738I0J-271738D01*
G01*
G37*
G36*
G01*
X239383900Y-28948738D02*
X239383900Y-29905262D01*
G75*
G02*
X239112162Y-30177000I-271738J0D01*
G01*
X238405638Y-30177000D01*
G75*
G02*
X238133900Y-29905262I0J271738D01*
G01*
X238133900Y-28948738D01*
G75*
G02*
X238405638Y-28677000I271738J0D01*
G01*
X239112162Y-28677000D01*
G75*
G02*
X239383900Y-28948738I0J-271738D01*
G01*
G37*
%TD*%
%TO.C,R41*%
G36*
G01*
X241829600Y-53374862D02*
X241829600Y-52418338D01*
G75*
G02*
X242101338Y-52146600I271738J0D01*
G01*
X242807862Y-52146600D01*
G75*
G02*
X243079600Y-52418338I0J-271738D01*
G01*
X243079600Y-53374862D01*
G75*
G02*
X242807862Y-53646600I-271738J0D01*
G01*
X242101338Y-53646600D01*
G75*
G02*
X241829600Y-53374862I0J271738D01*
G01*
G37*
G36*
G01*
X239779600Y-53374862D02*
X239779600Y-52418338D01*
G75*
G02*
X240051338Y-52146600I271738J0D01*
G01*
X240757862Y-52146600D01*
G75*
G02*
X241029600Y-52418338I0J-271738D01*
G01*
X241029600Y-53374862D01*
G75*
G02*
X240757862Y-53646600I-271738J0D01*
G01*
X240051338Y-53646600D01*
G75*
G02*
X239779600Y-53374862I0J271738D01*
G01*
G37*
%TD*%
%TO.C,R40*%
G36*
G01*
X236902000Y-53374862D02*
X236902000Y-52418338D01*
G75*
G02*
X237173738Y-52146600I271738J0D01*
G01*
X237880262Y-52146600D01*
G75*
G02*
X238152000Y-52418338I0J-271738D01*
G01*
X238152000Y-53374862D01*
G75*
G02*
X237880262Y-53646600I-271738J0D01*
G01*
X237173738Y-53646600D01*
G75*
G02*
X236902000Y-53374862I0J271738D01*
G01*
G37*
G36*
G01*
X234852000Y-53374862D02*
X234852000Y-52418338D01*
G75*
G02*
X235123738Y-52146600I271738J0D01*
G01*
X235830262Y-52146600D01*
G75*
G02*
X236102000Y-52418338I0J-271738D01*
G01*
X236102000Y-53374862D01*
G75*
G02*
X235830262Y-53646600I-271738J0D01*
G01*
X235123738Y-53646600D01*
G75*
G02*
X234852000Y-53374862I0J271738D01*
G01*
G37*
%TD*%
%TO.C,R39*%
G36*
G01*
X100455262Y-134056000D02*
X99498738Y-134056000D01*
G75*
G02*
X99227000Y-133784262I0J271738D01*
G01*
X99227000Y-133077738D01*
G75*
G02*
X99498738Y-132806000I271738J0D01*
G01*
X100455262Y-132806000D01*
G75*
G02*
X100727000Y-133077738I0J-271738D01*
G01*
X100727000Y-133784262D01*
G75*
G02*
X100455262Y-134056000I-271738J0D01*
G01*
G37*
G36*
G01*
X100455262Y-136106000D02*
X99498738Y-136106000D01*
G75*
G02*
X99227000Y-135834262I0J271738D01*
G01*
X99227000Y-135127738D01*
G75*
G02*
X99498738Y-134856000I271738J0D01*
G01*
X100455262Y-134856000D01*
G75*
G02*
X100727000Y-135127738I0J-271738D01*
G01*
X100727000Y-135834262D01*
G75*
G02*
X100455262Y-136106000I-271738J0D01*
G01*
G37*
%TD*%
%TO.C,R38*%
G36*
G01*
X80516262Y-134065000D02*
X79559738Y-134065000D01*
G75*
G02*
X79288000Y-133793262I0J271738D01*
G01*
X79288000Y-133086738D01*
G75*
G02*
X79559738Y-132815000I271738J0D01*
G01*
X80516262Y-132815000D01*
G75*
G02*
X80788000Y-133086738I0J-271738D01*
G01*
X80788000Y-133793262D01*
G75*
G02*
X80516262Y-134065000I-271738J0D01*
G01*
G37*
G36*
G01*
X80516262Y-136115000D02*
X79559738Y-136115000D01*
G75*
G02*
X79288000Y-135843262I0J271738D01*
G01*
X79288000Y-135136738D01*
G75*
G02*
X79559738Y-134865000I271738J0D01*
G01*
X80516262Y-134865000D01*
G75*
G02*
X80788000Y-135136738I0J-271738D01*
G01*
X80788000Y-135843262D01*
G75*
G02*
X80516262Y-136115000I-271738J0D01*
G01*
G37*
%TD*%
%TO.C,R37*%
G36*
G01*
X97407262Y-153741000D02*
X96450738Y-153741000D01*
G75*
G02*
X96179000Y-153469262I0J271738D01*
G01*
X96179000Y-152762738D01*
G75*
G02*
X96450738Y-152491000I271738J0D01*
G01*
X97407262Y-152491000D01*
G75*
G02*
X97679000Y-152762738I0J-271738D01*
G01*
X97679000Y-153469262D01*
G75*
G02*
X97407262Y-153741000I-271738J0D01*
G01*
G37*
G36*
G01*
X97407262Y-155791000D02*
X96450738Y-155791000D01*
G75*
G02*
X96179000Y-155519262I0J271738D01*
G01*
X96179000Y-154812738D01*
G75*
G02*
X96450738Y-154541000I271738J0D01*
G01*
X97407262Y-154541000D01*
G75*
G02*
X97679000Y-154812738I0J-271738D01*
G01*
X97679000Y-155519262D01*
G75*
G02*
X97407262Y-155791000I-271738J0D01*
G01*
G37*
%TD*%
%TO.C,R36*%
G36*
G01*
X80135262Y-149550000D02*
X79178738Y-149550000D01*
G75*
G02*
X78907000Y-149278262I0J271738D01*
G01*
X78907000Y-148571738D01*
G75*
G02*
X79178738Y-148300000I271738J0D01*
G01*
X80135262Y-148300000D01*
G75*
G02*
X80407000Y-148571738I0J-271738D01*
G01*
X80407000Y-149278262D01*
G75*
G02*
X80135262Y-149550000I-271738J0D01*
G01*
G37*
G36*
G01*
X80135262Y-151600000D02*
X79178738Y-151600000D01*
G75*
G02*
X78907000Y-151328262I0J271738D01*
G01*
X78907000Y-150621738D01*
G75*
G02*
X79178738Y-150350000I271738J0D01*
G01*
X80135262Y-150350000D01*
G75*
G02*
X80407000Y-150621738I0J-271738D01*
G01*
X80407000Y-151328262D01*
G75*
G02*
X80135262Y-151600000I-271738J0D01*
G01*
G37*
%TD*%
%TO.C,R35*%
G36*
G01*
X78103262Y-134056000D02*
X77146738Y-134056000D01*
G75*
G02*
X76875000Y-133784262I0J271738D01*
G01*
X76875000Y-133077738D01*
G75*
G02*
X77146738Y-132806000I271738J0D01*
G01*
X78103262Y-132806000D01*
G75*
G02*
X78375000Y-133077738I0J-271738D01*
G01*
X78375000Y-133784262D01*
G75*
G02*
X78103262Y-134056000I-271738J0D01*
G01*
G37*
G36*
G01*
X78103262Y-136106000D02*
X77146738Y-136106000D01*
G75*
G02*
X76875000Y-135834262I0J271738D01*
G01*
X76875000Y-135127738D01*
G75*
G02*
X77146738Y-134856000I271738J0D01*
G01*
X78103262Y-134856000D01*
G75*
G02*
X78375000Y-135127738I0J-271738D01*
G01*
X78375000Y-135834262D01*
G75*
G02*
X78103262Y-136106000I-271738J0D01*
G01*
G37*
%TD*%
%TO.C,R34*%
G36*
G01*
X58027102Y-134047000D02*
X57070578Y-134047000D01*
G75*
G02*
X56798840Y-133775262I0J271738D01*
G01*
X56798840Y-133068738D01*
G75*
G02*
X57070578Y-132797000I271738J0D01*
G01*
X58027102Y-132797000D01*
G75*
G02*
X58298840Y-133068738I0J-271738D01*
G01*
X58298840Y-133775262D01*
G75*
G02*
X58027102Y-134047000I-271738J0D01*
G01*
G37*
G36*
G01*
X58027102Y-136097000D02*
X57070578Y-136097000D01*
G75*
G02*
X56798840Y-135825262I0J271738D01*
G01*
X56798840Y-135118738D01*
G75*
G02*
X57070578Y-134847000I271738J0D01*
G01*
X58027102Y-134847000D01*
G75*
G02*
X58298840Y-135118738I0J-271738D01*
G01*
X58298840Y-135825262D01*
G75*
G02*
X58027102Y-136097000I-271738J0D01*
G01*
G37*
%TD*%
%TO.C,R33*%
G36*
G01*
X74050000Y-153662738D02*
X74050000Y-154619262D01*
G75*
G02*
X73778262Y-154891000I-271738J0D01*
G01*
X73071738Y-154891000D01*
G75*
G02*
X72800000Y-154619262I0J271738D01*
G01*
X72800000Y-153662738D01*
G75*
G02*
X73071738Y-153391000I271738J0D01*
G01*
X73778262Y-153391000D01*
G75*
G02*
X74050000Y-153662738I0J-271738D01*
G01*
G37*
G36*
G01*
X76100000Y-153662738D02*
X76100000Y-154619262D01*
G75*
G02*
X75828262Y-154891000I-271738J0D01*
G01*
X75121738Y-154891000D01*
G75*
G02*
X74850000Y-154619262I0J271738D01*
G01*
X74850000Y-153662738D01*
G75*
G02*
X75121738Y-153391000I271738J0D01*
G01*
X75828262Y-153391000D01*
G75*
G02*
X76100000Y-153662738I0J-271738D01*
G01*
G37*
%TD*%
%TO.C,R32*%
G36*
G01*
X57275262Y-149296000D02*
X56318738Y-149296000D01*
G75*
G02*
X56047000Y-149024262I0J271738D01*
G01*
X56047000Y-148317738D01*
G75*
G02*
X56318738Y-148046000I271738J0D01*
G01*
X57275262Y-148046000D01*
G75*
G02*
X57547000Y-148317738I0J-271738D01*
G01*
X57547000Y-149024262D01*
G75*
G02*
X57275262Y-149296000I-271738J0D01*
G01*
G37*
G36*
G01*
X57275262Y-151346000D02*
X56318738Y-151346000D01*
G75*
G02*
X56047000Y-151074262I0J271738D01*
G01*
X56047000Y-150367738D01*
G75*
G02*
X56318738Y-150096000I271738J0D01*
G01*
X57275262Y-150096000D01*
G75*
G02*
X57547000Y-150367738I0J-271738D01*
G01*
X57547000Y-151074262D01*
G75*
G02*
X57275262Y-151346000I-271738J0D01*
G01*
G37*
%TD*%
%TO.C,R31*%
G36*
G01*
X43799000Y-129981262D02*
X43799000Y-129024738D01*
G75*
G02*
X44070738Y-128753000I271738J0D01*
G01*
X44777262Y-128753000D01*
G75*
G02*
X45049000Y-129024738I0J-271738D01*
G01*
X45049000Y-129981262D01*
G75*
G02*
X44777262Y-130253000I-271738J0D01*
G01*
X44070738Y-130253000D01*
G75*
G02*
X43799000Y-129981262I0J271738D01*
G01*
G37*
G36*
G01*
X41749000Y-129981262D02*
X41749000Y-129024738D01*
G75*
G02*
X42020738Y-128753000I271738J0D01*
G01*
X42727262Y-128753000D01*
G75*
G02*
X42999000Y-129024738I0J-271738D01*
G01*
X42999000Y-129981262D01*
G75*
G02*
X42727262Y-130253000I-271738J0D01*
G01*
X42020738Y-130253000D01*
G75*
G02*
X41749000Y-129981262I0J271738D01*
G01*
G37*
%TD*%
%TO.C,R29*%
G36*
G01*
X39062000Y-129024738D02*
X39062000Y-129981262D01*
G75*
G02*
X38790262Y-130253000I-271738J0D01*
G01*
X38083738Y-130253000D01*
G75*
G02*
X37812000Y-129981262I0J271738D01*
G01*
X37812000Y-129024738D01*
G75*
G02*
X38083738Y-128753000I271738J0D01*
G01*
X38790262Y-128753000D01*
G75*
G02*
X39062000Y-129024738I0J-271738D01*
G01*
G37*
G36*
G01*
X41112000Y-129024738D02*
X41112000Y-129981262D01*
G75*
G02*
X40840262Y-130253000I-271738J0D01*
G01*
X40133738Y-130253000D01*
G75*
G02*
X39862000Y-129981262I0J271738D01*
G01*
X39862000Y-129024738D01*
G75*
G02*
X40133738Y-128753000I271738J0D01*
G01*
X40840262Y-128753000D01*
G75*
G02*
X41112000Y-129024738I0J-271738D01*
G01*
G37*
%TD*%
%TO.C,R28*%
G36*
G01*
X51640262Y-154503000D02*
X50683738Y-154503000D01*
G75*
G02*
X50412000Y-154231262I0J271738D01*
G01*
X50412000Y-153524738D01*
G75*
G02*
X50683738Y-153253000I271738J0D01*
G01*
X51640262Y-153253000D01*
G75*
G02*
X51912000Y-153524738I0J-271738D01*
G01*
X51912000Y-154231262D01*
G75*
G02*
X51640262Y-154503000I-271738J0D01*
G01*
G37*
G36*
G01*
X51640262Y-156553000D02*
X50683738Y-156553000D01*
G75*
G02*
X50412000Y-156281262I0J271738D01*
G01*
X50412000Y-155574738D01*
G75*
G02*
X50683738Y-155303000I271738J0D01*
G01*
X51640262Y-155303000D01*
G75*
G02*
X51912000Y-155574738I0J-271738D01*
G01*
X51912000Y-156281262D01*
G75*
G02*
X51640262Y-156553000I-271738J0D01*
G01*
G37*
%TD*%
%TO.C,R27*%
G36*
G01*
X47449262Y-154503000D02*
X46492738Y-154503000D01*
G75*
G02*
X46221000Y-154231262I0J271738D01*
G01*
X46221000Y-153524738D01*
G75*
G02*
X46492738Y-153253000I271738J0D01*
G01*
X47449262Y-153253000D01*
G75*
G02*
X47721000Y-153524738I0J-271738D01*
G01*
X47721000Y-154231262D01*
G75*
G02*
X47449262Y-154503000I-271738J0D01*
G01*
G37*
G36*
G01*
X47449262Y-156553000D02*
X46492738Y-156553000D01*
G75*
G02*
X46221000Y-156281262I0J271738D01*
G01*
X46221000Y-155574738D01*
G75*
G02*
X46492738Y-155303000I271738J0D01*
G01*
X47449262Y-155303000D01*
G75*
G02*
X47721000Y-155574738I0J-271738D01*
G01*
X47721000Y-156281262D01*
G75*
G02*
X47449262Y-156553000I-271738J0D01*
G01*
G37*
%TD*%
%TO.C,C14*%
G36*
G01*
X53300162Y-22736800D02*
X52343638Y-22736800D01*
G75*
G02*
X52071900Y-22465062I0J271738D01*
G01*
X52071900Y-21758538D01*
G75*
G02*
X52343638Y-21486800I271738J0D01*
G01*
X53300162Y-21486800D01*
G75*
G02*
X53571900Y-21758538I0J-271738D01*
G01*
X53571900Y-22465062D01*
G75*
G02*
X53300162Y-22736800I-271738J0D01*
G01*
G37*
G36*
G01*
X53300162Y-24786800D02*
X52343638Y-24786800D01*
G75*
G02*
X52071900Y-24515062I0J271738D01*
G01*
X52071900Y-23808538D01*
G75*
G02*
X52343638Y-23536800I271738J0D01*
G01*
X53300162Y-23536800D01*
G75*
G02*
X53571900Y-23808538I0J-271738D01*
G01*
X53571900Y-24515062D01*
G75*
G02*
X53300162Y-24786800I-271738J0D01*
G01*
G37*
%TD*%
%TO.C,C12*%
G36*
G01*
X57160962Y-22736800D02*
X56204438Y-22736800D01*
G75*
G02*
X55932700Y-22465062I0J271738D01*
G01*
X55932700Y-21758538D01*
G75*
G02*
X56204438Y-21486800I271738J0D01*
G01*
X57160962Y-21486800D01*
G75*
G02*
X57432700Y-21758538I0J-271738D01*
G01*
X57432700Y-22465062D01*
G75*
G02*
X57160962Y-22736800I-271738J0D01*
G01*
G37*
G36*
G01*
X57160962Y-24786800D02*
X56204438Y-24786800D01*
G75*
G02*
X55932700Y-24515062I0J271738D01*
G01*
X55932700Y-23808538D01*
G75*
G02*
X56204438Y-23536800I271738J0D01*
G01*
X57160962Y-23536800D01*
G75*
G02*
X57432700Y-23808538I0J-271738D01*
G01*
X57432700Y-24515062D01*
G75*
G02*
X57160962Y-24786800I-271738J0D01*
G01*
G37*
%TD*%
%TO.C,R10*%
G36*
G01*
X50237500Y-41712238D02*
X50237500Y-42668762D01*
G75*
G02*
X49965762Y-42940500I-271738J0D01*
G01*
X49259238Y-42940500D01*
G75*
G02*
X48987500Y-42668762I0J271738D01*
G01*
X48987500Y-41712238D01*
G75*
G02*
X49259238Y-41440500I271738J0D01*
G01*
X49965762Y-41440500D01*
G75*
G02*
X50237500Y-41712238I0J-271738D01*
G01*
G37*
G36*
G01*
X52287500Y-41712238D02*
X52287500Y-42668762D01*
G75*
G02*
X52015762Y-42940500I-271738J0D01*
G01*
X51309238Y-42940500D01*
G75*
G02*
X51037500Y-42668762I0J271738D01*
G01*
X51037500Y-41712238D01*
G75*
G02*
X51309238Y-41440500I271738J0D01*
G01*
X52015762Y-41440500D01*
G75*
G02*
X52287500Y-41712238I0J-271738D01*
G01*
G37*
%TD*%
%TO.C,R9*%
G36*
G01*
X47079000Y-53586738D02*
X47079000Y-54543262D01*
G75*
G02*
X46807262Y-54815000I-271738J0D01*
G01*
X46100738Y-54815000D01*
G75*
G02*
X45829000Y-54543262I0J271738D01*
G01*
X45829000Y-53586738D01*
G75*
G02*
X46100738Y-53315000I271738J0D01*
G01*
X46807262Y-53315000D01*
G75*
G02*
X47079000Y-53586738I0J-271738D01*
G01*
G37*
G36*
G01*
X49129000Y-53586738D02*
X49129000Y-54543262D01*
G75*
G02*
X48857262Y-54815000I-271738J0D01*
G01*
X48150738Y-54815000D01*
G75*
G02*
X47879000Y-54543262I0J271738D01*
G01*
X47879000Y-53586738D01*
G75*
G02*
X48150738Y-53315000I271738J0D01*
G01*
X48857262Y-53315000D01*
G75*
G02*
X49129000Y-53586738I0J-271738D01*
G01*
G37*
%TD*%
%TO.C,C11*%
G36*
G01*
X51018000Y-44803262D02*
X51018000Y-43846738D01*
G75*
G02*
X51289738Y-43575000I271738J0D01*
G01*
X51996262Y-43575000D01*
G75*
G02*
X52268000Y-43846738I0J-271738D01*
G01*
X52268000Y-44803262D01*
G75*
G02*
X51996262Y-45075000I-271738J0D01*
G01*
X51289738Y-45075000D01*
G75*
G02*
X51018000Y-44803262I0J271738D01*
G01*
G37*
G36*
G01*
X48968000Y-44803262D02*
X48968000Y-43846738D01*
G75*
G02*
X49239738Y-43575000I271738J0D01*
G01*
X49946262Y-43575000D01*
G75*
G02*
X50218000Y-43846738I0J-271738D01*
G01*
X50218000Y-44803262D01*
G75*
G02*
X49946262Y-45075000I-271738J0D01*
G01*
X49239738Y-45075000D01*
G75*
G02*
X48968000Y-44803262I0J271738D01*
G01*
G37*
%TD*%
%TO.C,C10*%
G36*
G01*
X47879000Y-60639262D02*
X47879000Y-59682738D01*
G75*
G02*
X48150738Y-59411000I271738J0D01*
G01*
X48857262Y-59411000D01*
G75*
G02*
X49129000Y-59682738I0J-271738D01*
G01*
X49129000Y-60639262D01*
G75*
G02*
X48857262Y-60911000I-271738J0D01*
G01*
X48150738Y-60911000D01*
G75*
G02*
X47879000Y-60639262I0J271738D01*
G01*
G37*
G36*
G01*
X45829000Y-60639262D02*
X45829000Y-59682738D01*
G75*
G02*
X46100738Y-59411000I271738J0D01*
G01*
X46807262Y-59411000D01*
G75*
G02*
X47079000Y-59682738I0J-271738D01*
G01*
X47079000Y-60639262D01*
G75*
G02*
X46807262Y-60911000I-271738J0D01*
G01*
X46100738Y-60911000D01*
G75*
G02*
X45829000Y-60639262I0J271738D01*
G01*
G37*
%TD*%
%TO.C,C9*%
G36*
G01*
X47879000Y-58607262D02*
X47879000Y-57650738D01*
G75*
G02*
X48150738Y-57379000I271738J0D01*
G01*
X48857262Y-57379000D01*
G75*
G02*
X49129000Y-57650738I0J-271738D01*
G01*
X49129000Y-58607262D01*
G75*
G02*
X48857262Y-58879000I-271738J0D01*
G01*
X48150738Y-58879000D01*
G75*
G02*
X47879000Y-58607262I0J271738D01*
G01*
G37*
G36*
G01*
X45829000Y-58607262D02*
X45829000Y-57650738D01*
G75*
G02*
X46100738Y-57379000I271738J0D01*
G01*
X46807262Y-57379000D01*
G75*
G02*
X47079000Y-57650738I0J-271738D01*
G01*
X47079000Y-58607262D01*
G75*
G02*
X46807262Y-58879000I-271738J0D01*
G01*
X46100738Y-58879000D01*
G75*
G02*
X45829000Y-58607262I0J271738D01*
G01*
G37*
%TD*%
%TO.C,C2*%
G36*
G01*
X47879000Y-52511262D02*
X47879000Y-51554738D01*
G75*
G02*
X48150738Y-51283000I271738J0D01*
G01*
X48857262Y-51283000D01*
G75*
G02*
X49129000Y-51554738I0J-271738D01*
G01*
X49129000Y-52511262D01*
G75*
G02*
X48857262Y-52783000I-271738J0D01*
G01*
X48150738Y-52783000D01*
G75*
G02*
X47879000Y-52511262I0J271738D01*
G01*
G37*
G36*
G01*
X45829000Y-52511262D02*
X45829000Y-51554738D01*
G75*
G02*
X46100738Y-51283000I271738J0D01*
G01*
X46807262Y-51283000D01*
G75*
G02*
X47079000Y-51554738I0J-271738D01*
G01*
X47079000Y-52511262D01*
G75*
G02*
X46807262Y-52783000I-271738J0D01*
G01*
X46100738Y-52783000D01*
G75*
G02*
X45829000Y-52511262I0J271738D01*
G01*
G37*
%TD*%
D50*
%TO.C,H10*%
X149000000Y-164000000D03*
%TD*%
%TO.C,H8*%
X263000000Y-164000000D03*
%TD*%
%TO.C,H7*%
X50000000Y-164000000D03*
%TD*%
%TO.C,H6*%
X236000000Y-20000000D03*
%TD*%
%TO.C,H5*%
X30600000Y-33000000D03*
%TD*%
D57*
%TO.C,D1*%
X243000000Y-23585000D03*
D58*
X243000000Y-21045000D03*
%TD*%
%TO.C,C13*%
G36*
G01*
X71003738Y-51798000D02*
X71960262Y-51798000D01*
G75*
G02*
X72232000Y-52069738I0J-271738D01*
G01*
X72232000Y-52776262D01*
G75*
G02*
X71960262Y-53048000I-271738J0D01*
G01*
X71003738Y-53048000D01*
G75*
G02*
X70732000Y-52776262I0J271738D01*
G01*
X70732000Y-52069738D01*
G75*
G02*
X71003738Y-51798000I271738J0D01*
G01*
G37*
G36*
G01*
X71003738Y-49748000D02*
X71960262Y-49748000D01*
G75*
G02*
X72232000Y-50019738I0J-271738D01*
G01*
X72232000Y-50726262D01*
G75*
G02*
X71960262Y-50998000I-271738J0D01*
G01*
X71003738Y-50998000D01*
G75*
G02*
X70732000Y-50726262I0J271738D01*
G01*
X70732000Y-50019738D01*
G75*
G02*
X71003738Y-49748000I271738J0D01*
G01*
G37*
%TD*%
%TO.C,R8*%
G36*
G01*
X60589738Y-62212000D02*
X61546262Y-62212000D01*
G75*
G02*
X61818000Y-62483738I0J-271738D01*
G01*
X61818000Y-63190262D01*
G75*
G02*
X61546262Y-63462000I-271738J0D01*
G01*
X60589738Y-63462000D01*
G75*
G02*
X60318000Y-63190262I0J271738D01*
G01*
X60318000Y-62483738D01*
G75*
G02*
X60589738Y-62212000I271738J0D01*
G01*
G37*
G36*
G01*
X60589738Y-60162000D02*
X61546262Y-60162000D01*
G75*
G02*
X61818000Y-60433738I0J-271738D01*
G01*
X61818000Y-61140262D01*
G75*
G02*
X61546262Y-61412000I-271738J0D01*
G01*
X60589738Y-61412000D01*
G75*
G02*
X60318000Y-61140262I0J271738D01*
G01*
X60318000Y-60433738D01*
G75*
G02*
X60589738Y-60162000I271738J0D01*
G01*
G37*
%TD*%
%TO.C,R7*%
G36*
G01*
X62621738Y-62212000D02*
X63578262Y-62212000D01*
G75*
G02*
X63850000Y-62483738I0J-271738D01*
G01*
X63850000Y-63190262D01*
G75*
G02*
X63578262Y-63462000I-271738J0D01*
G01*
X62621738Y-63462000D01*
G75*
G02*
X62350000Y-63190262I0J271738D01*
G01*
X62350000Y-62483738D01*
G75*
G02*
X62621738Y-62212000I271738J0D01*
G01*
G37*
G36*
G01*
X62621738Y-60162000D02*
X63578262Y-60162000D01*
G75*
G02*
X63850000Y-60433738I0J-271738D01*
G01*
X63850000Y-61140262D01*
G75*
G02*
X63578262Y-61412000I-271738J0D01*
G01*
X62621738Y-61412000D01*
G75*
G02*
X62350000Y-61140262I0J271738D01*
G01*
X62350000Y-60433738D01*
G75*
G02*
X62621738Y-60162000I271738J0D01*
G01*
G37*
%TD*%
%TO.C,R6*%
G36*
G01*
X64653738Y-62212000D02*
X65610262Y-62212000D01*
G75*
G02*
X65882000Y-62483738I0J-271738D01*
G01*
X65882000Y-63190262D01*
G75*
G02*
X65610262Y-63462000I-271738J0D01*
G01*
X64653738Y-63462000D01*
G75*
G02*
X64382000Y-63190262I0J271738D01*
G01*
X64382000Y-62483738D01*
G75*
G02*
X64653738Y-62212000I271738J0D01*
G01*
G37*
G36*
G01*
X64653738Y-60162000D02*
X65610262Y-60162000D01*
G75*
G02*
X65882000Y-60433738I0J-271738D01*
G01*
X65882000Y-61140262D01*
G75*
G02*
X65610262Y-61412000I-271738J0D01*
G01*
X64653738Y-61412000D01*
G75*
G02*
X64382000Y-61140262I0J271738D01*
G01*
X64382000Y-60433738D01*
G75*
G02*
X64653738Y-60162000I271738J0D01*
G01*
G37*
%TD*%
%TO.C,R5*%
G36*
G01*
X66812738Y-62212000D02*
X67769262Y-62212000D01*
G75*
G02*
X68041000Y-62483738I0J-271738D01*
G01*
X68041000Y-63190262D01*
G75*
G02*
X67769262Y-63462000I-271738J0D01*
G01*
X66812738Y-63462000D01*
G75*
G02*
X66541000Y-63190262I0J271738D01*
G01*
X66541000Y-62483738D01*
G75*
G02*
X66812738Y-62212000I271738J0D01*
G01*
G37*
G36*
G01*
X66812738Y-60162000D02*
X67769262Y-60162000D01*
G75*
G02*
X68041000Y-60433738I0J-271738D01*
G01*
X68041000Y-61140262D01*
G75*
G02*
X67769262Y-61412000I-271738J0D01*
G01*
X66812738Y-61412000D01*
G75*
G02*
X66541000Y-61140262I0J271738D01*
G01*
X66541000Y-60433738D01*
G75*
G02*
X66812738Y-60162000I271738J0D01*
G01*
G37*
%TD*%
%TO.C,R4*%
G36*
G01*
X65913000Y-55686262D02*
X65913000Y-54729738D01*
G75*
G02*
X66184738Y-54458000I271738J0D01*
G01*
X66891262Y-54458000D01*
G75*
G02*
X67163000Y-54729738I0J-271738D01*
G01*
X67163000Y-55686262D01*
G75*
G02*
X66891262Y-55958000I-271738J0D01*
G01*
X66184738Y-55958000D01*
G75*
G02*
X65913000Y-55686262I0J271738D01*
G01*
G37*
G36*
G01*
X63863000Y-55686262D02*
X63863000Y-54729738D01*
G75*
G02*
X64134738Y-54458000I271738J0D01*
G01*
X64841262Y-54458000D01*
G75*
G02*
X65113000Y-54729738I0J-271738D01*
G01*
X65113000Y-55686262D01*
G75*
G02*
X64841262Y-55958000I-271738J0D01*
G01*
X64134738Y-55958000D01*
G75*
G02*
X63863000Y-55686262I0J271738D01*
G01*
G37*
%TD*%
%TO.C,C8*%
G36*
G01*
X50593000Y-49590262D02*
X50593000Y-48633738D01*
G75*
G02*
X50864738Y-48362000I271738J0D01*
G01*
X51571262Y-48362000D01*
G75*
G02*
X51843000Y-48633738I0J-271738D01*
G01*
X51843000Y-49590262D01*
G75*
G02*
X51571262Y-49862000I-271738J0D01*
G01*
X50864738Y-49862000D01*
G75*
G02*
X50593000Y-49590262I0J271738D01*
G01*
G37*
G36*
G01*
X48543000Y-49590262D02*
X48543000Y-48633738D01*
G75*
G02*
X48814738Y-48362000I271738J0D01*
G01*
X49521262Y-48362000D01*
G75*
G02*
X49793000Y-48633738I0J-271738D01*
G01*
X49793000Y-49590262D01*
G75*
G02*
X49521262Y-49862000I-271738J0D01*
G01*
X48814738Y-49862000D01*
G75*
G02*
X48543000Y-49590262I0J271738D01*
G01*
G37*
%TD*%
%TO.C,C7*%
G36*
G01*
X50593000Y-47558262D02*
X50593000Y-46601738D01*
G75*
G02*
X50864738Y-46330000I271738J0D01*
G01*
X51571262Y-46330000D01*
G75*
G02*
X51843000Y-46601738I0J-271738D01*
G01*
X51843000Y-47558262D01*
G75*
G02*
X51571262Y-47830000I-271738J0D01*
G01*
X50864738Y-47830000D01*
G75*
G02*
X50593000Y-47558262I0J271738D01*
G01*
G37*
G36*
G01*
X48543000Y-47558262D02*
X48543000Y-46601738D01*
G75*
G02*
X48814738Y-46330000I271738J0D01*
G01*
X49521262Y-46330000D01*
G75*
G02*
X49793000Y-46601738I0J-271738D01*
G01*
X49793000Y-47558262D01*
G75*
G02*
X49521262Y-47830000I-271738J0D01*
G01*
X48814738Y-47830000D01*
G75*
G02*
X48543000Y-47558262I0J271738D01*
G01*
G37*
%TD*%
%TO.C,C6*%
G36*
G01*
X47879000Y-56575262D02*
X47879000Y-55618738D01*
G75*
G02*
X48150738Y-55347000I271738J0D01*
G01*
X48857262Y-55347000D01*
G75*
G02*
X49129000Y-55618738I0J-271738D01*
G01*
X49129000Y-56575262D01*
G75*
G02*
X48857262Y-56847000I-271738J0D01*
G01*
X48150738Y-56847000D01*
G75*
G02*
X47879000Y-56575262I0J271738D01*
G01*
G37*
G36*
G01*
X45829000Y-56575262D02*
X45829000Y-55618738D01*
G75*
G02*
X46100738Y-55347000I271738J0D01*
G01*
X46807262Y-55347000D01*
G75*
G02*
X47079000Y-55618738I0J-271738D01*
G01*
X47079000Y-56575262D01*
G75*
G02*
X46807262Y-56847000I-271738J0D01*
G01*
X46100738Y-56847000D01*
G75*
G02*
X45829000Y-56575262I0J271738D01*
G01*
G37*
%TD*%
%TO.C,C5*%
G36*
G01*
X60911262Y-47696000D02*
X59954738Y-47696000D01*
G75*
G02*
X59683000Y-47424262I0J271738D01*
G01*
X59683000Y-46717738D01*
G75*
G02*
X59954738Y-46446000I271738J0D01*
G01*
X60911262Y-46446000D01*
G75*
G02*
X61183000Y-46717738I0J-271738D01*
G01*
X61183000Y-47424262D01*
G75*
G02*
X60911262Y-47696000I-271738J0D01*
G01*
G37*
G36*
G01*
X60911262Y-49746000D02*
X59954738Y-49746000D01*
G75*
G02*
X59683000Y-49474262I0J271738D01*
G01*
X59683000Y-48767738D01*
G75*
G02*
X59954738Y-48496000I271738J0D01*
G01*
X60911262Y-48496000D01*
G75*
G02*
X61183000Y-48767738I0J-271738D01*
G01*
X61183000Y-49474262D01*
G75*
G02*
X60911262Y-49746000I-271738J0D01*
G01*
G37*
%TD*%
%TO.C,C4*%
G36*
G01*
X55890738Y-48496000D02*
X56847262Y-48496000D01*
G75*
G02*
X57119000Y-48767738I0J-271738D01*
G01*
X57119000Y-49474262D01*
G75*
G02*
X56847262Y-49746000I-271738J0D01*
G01*
X55890738Y-49746000D01*
G75*
G02*
X55619000Y-49474262I0J271738D01*
G01*
X55619000Y-48767738D01*
G75*
G02*
X55890738Y-48496000I271738J0D01*
G01*
G37*
G36*
G01*
X55890738Y-46446000D02*
X56847262Y-46446000D01*
G75*
G02*
X57119000Y-46717738I0J-271738D01*
G01*
X57119000Y-47424262D01*
G75*
G02*
X56847262Y-47696000I-271738J0D01*
G01*
X55890738Y-47696000D01*
G75*
G02*
X55619000Y-47424262I0J271738D01*
G01*
X55619000Y-46717738D01*
G75*
G02*
X55890738Y-46446000I271738J0D01*
G01*
G37*
%TD*%
M02*
