%TF.GenerationSoftware,KiCad,Pcbnew,(5.1.6)-1*%
%TF.CreationDate,2021-02-17T08:37:54+01:00*%
%TF.ProjectId,pihpsdr Controller,70696870-7364-4722-9043-6f6e74726f6c,rev?*%
%TF.SameCoordinates,Original*%
%TF.FileFunction,Soldermask,Top*%
%TF.FilePolarity,Negative*%
%FSLAX46Y46*%
G04 Gerber Fmt 4.6, Leading zero omitted, Abs format (unit mm)*
G04 Created by KiCad (PCBNEW (5.1.6)-1) date 2021-02-17 08:37:54*
%MOMM*%
%LPD*%
G01*
G04 APERTURE LIST*
%ADD10C,1.750000*%
%ADD11C,1.800000*%
%ADD12O,1.608000X3.116000*%
%ADD13O,3.116000X1.608000*%
%ADD14C,1.825000*%
%ADD15R,1.825000X1.825000*%
%ADD16O,2.716000X1.408000*%
%ADD17C,1.608000*%
%ADD18O,1.408000X2.716000*%
%ADD19C,1.300000*%
%ADD20C,6.100000*%
%ADD21C,1.609000*%
%ADD22C,3.270000*%
%ADD23C,1.500000*%
%ADD24C,2.050000*%
%ADD25C,4.808000*%
%ADD26O,1.800000X1.800000*%
%ADD27R,1.800000X1.800000*%
%ADD28O,1.600000X1.600000*%
%ADD29O,1.900000X1.900000*%
%ADD30C,5.700000*%
%ADD31C,7.100000*%
%ADD32C,1.900000*%
%ADD33R,1.900000X1.900000*%
G04 APERTURE END LIST*
D10*
%TO.C,SW16*%
X202250000Y-138750000D03*
X202250000Y-145250000D03*
X197750000Y-138750000D03*
X197750000Y-145250000D03*
%TD*%
%TO.C,SW15*%
X187250000Y-138750000D03*
X187250000Y-145250000D03*
X182750000Y-138750000D03*
X182750000Y-145250000D03*
%TD*%
%TO.C,SW14*%
X172250000Y-138750000D03*
X172250000Y-145250000D03*
X167750000Y-138750000D03*
X167750000Y-145250000D03*
%TD*%
%TO.C,SW13*%
X157250000Y-138750000D03*
X157250000Y-145250000D03*
X152750000Y-138750000D03*
X152750000Y-145250000D03*
%TD*%
%TO.C,SW12*%
X142250000Y-138750000D03*
X142250000Y-145250000D03*
X137750000Y-138750000D03*
X137750000Y-145250000D03*
%TD*%
%TO.C,SW11*%
X127250000Y-138750000D03*
X127250000Y-145250000D03*
X122750000Y-138750000D03*
X122750000Y-145250000D03*
%TD*%
%TO.C,SW10*%
X112250000Y-138750000D03*
X112250000Y-145250000D03*
X107750000Y-138750000D03*
X107750000Y-145250000D03*
%TD*%
%TO.C,SW9*%
X252750000Y-104250000D03*
X252750000Y-97750000D03*
X257250000Y-104250000D03*
X257250000Y-97750000D03*
%TD*%
%TO.C,SW8*%
X237750000Y-104250000D03*
X237750000Y-97750000D03*
X242250000Y-104250000D03*
X242250000Y-97750000D03*
%TD*%
%TO.C,SW7*%
X252750000Y-92250000D03*
X252750000Y-85750000D03*
X257250000Y-92250000D03*
X257250000Y-85750000D03*
%TD*%
%TO.C,SW6*%
X237750000Y-92250000D03*
X237750000Y-85750000D03*
X242250000Y-92250000D03*
X242250000Y-85750000D03*
%TD*%
%TO.C,SW5*%
X252750000Y-77250000D03*
X252750000Y-70750000D03*
X257250000Y-77250000D03*
X257250000Y-70750000D03*
%TD*%
%TO.C,SW4*%
X237750000Y-77250000D03*
X237750000Y-70750000D03*
X242250000Y-77250000D03*
X242250000Y-70750000D03*
%TD*%
%TO.C,SW3*%
X252750000Y-65250000D03*
X252750000Y-58750000D03*
X257250000Y-65250000D03*
X257250000Y-58750000D03*
%TD*%
%TO.C,SW2*%
X237750000Y-65250000D03*
X237750000Y-58750000D03*
X242250000Y-65250000D03*
X242250000Y-58750000D03*
%TD*%
%TO.C,SW1*%
X252750000Y-45250000D03*
X252750000Y-38750000D03*
X257250000Y-45250000D03*
X257250000Y-38750000D03*
%TD*%
%TO.C,SW0*%
X258250000Y-24750000D03*
X251750000Y-24750000D03*
X258250000Y-20250000D03*
X251750000Y-20250000D03*
%TD*%
D11*
%TO.C,J9*%
X28489000Y-151800000D03*
X35489000Y-151800000D03*
%TD*%
D12*
%TO.C,J8*%
X36300000Y-22000000D03*
X30300000Y-22000000D03*
D13*
X33300000Y-17300000D03*
%TD*%
D14*
%TO.C,J6*%
X211690000Y-50890000D03*
X209150000Y-50890000D03*
X206610000Y-50890000D03*
X204070000Y-50890000D03*
D15*
X201530000Y-50890000D03*
%TD*%
D11*
%TO.C,J5*%
X28500000Y-163300000D03*
X35500000Y-163300000D03*
%TD*%
D16*
%TO.C,J4*%
X34461500Y-51000500D03*
X34461500Y-41000500D03*
D17*
X39461500Y-43500500D03*
X39461500Y-46000500D03*
X39461500Y-48500500D03*
D18*
X29461500Y-46000500D03*
D19*
X39461500Y-51000500D03*
X39461500Y-41000500D03*
X34461500Y-46000500D03*
X29461500Y-51000500D03*
X26961500Y-51000500D03*
X29461500Y-41000500D03*
X26961500Y-41000500D03*
%TD*%
D20*
%TO.C,J3*%
X49670000Y-76430000D03*
X107670000Y-125430000D03*
X49670000Y-125430000D03*
D21*
X102800000Y-124160000D03*
X100260000Y-124160000D03*
X97720000Y-124160000D03*
X95180000Y-124160000D03*
X92640000Y-124160000D03*
X90100000Y-124160000D03*
X87560000Y-124160000D03*
X85020000Y-124160000D03*
X82480000Y-124160000D03*
X79940000Y-124160000D03*
X77400000Y-124160000D03*
X74860000Y-124160000D03*
X72320000Y-124160000D03*
X69780000Y-124160000D03*
X67240000Y-124160000D03*
X64700000Y-124160000D03*
X62160000Y-124160000D03*
X59620000Y-124160000D03*
X57080000Y-124160000D03*
X54540000Y-124160000D03*
X102800000Y-126700000D03*
X100260000Y-126700000D03*
X97720000Y-126700000D03*
X95180000Y-126700000D03*
X92640000Y-126700000D03*
X90100000Y-126700000D03*
X87560000Y-126700000D03*
X85020000Y-126700000D03*
X82480000Y-126700000D03*
X79940000Y-126700000D03*
X77400000Y-126700000D03*
X74860000Y-126700000D03*
X72320000Y-126700000D03*
X69780000Y-126700000D03*
X67240000Y-126700000D03*
X64700000Y-126700000D03*
X62160000Y-126700000D03*
X59620000Y-126700000D03*
X57080000Y-126700000D03*
X54540000Y-126700000D03*
%TD*%
D10*
%TO.C,J2*%
X78848000Y-60161000D03*
X78848000Y-62701000D03*
X78848000Y-65241000D03*
X78848000Y-67781000D03*
%TD*%
D22*
%TO.C,J1*%
X30350000Y-56840000D03*
X30350000Y-68270000D03*
D23*
X39240000Y-58110000D03*
X36700000Y-59380000D03*
X39240000Y-60650000D03*
X36700000Y-61920000D03*
X39240000Y-63190000D03*
X36700000Y-64460000D03*
X39240000Y-65730000D03*
X36700000Y-67000000D03*
%TD*%
D24*
%TO.C,F1*%
X69740500Y-22061000D03*
X92240500Y-22061000D03*
%TD*%
D25*
%TO.C,ENC5*%
X245500000Y-42000000D03*
X234500000Y-42000000D03*
D10*
X242500000Y-35000000D03*
X237500000Y-35000000D03*
X240000000Y-32500000D03*
X240000000Y-49500000D03*
X242540000Y-32500000D03*
X242500000Y-49500000D03*
X237460000Y-32500000D03*
X237500000Y-49500000D03*
%TD*%
D25*
%TO.C,ENC4*%
X95500000Y-142000000D03*
X84500000Y-142000000D03*
D10*
X92500000Y-135000000D03*
X87500000Y-135000000D03*
X90000000Y-132500000D03*
X90000000Y-149500000D03*
X92540000Y-132500000D03*
X92500000Y-149500000D03*
X87460000Y-132500000D03*
X87500000Y-149500000D03*
%TD*%
D25*
%TO.C,ENC3*%
X73000000Y-142000000D03*
X62000000Y-142000000D03*
D10*
X70000000Y-135000000D03*
X65000000Y-135000000D03*
X67500000Y-132500000D03*
X67500000Y-149500000D03*
X70040000Y-132500000D03*
X70000000Y-149500000D03*
X64960000Y-132500000D03*
X65000000Y-149500000D03*
%TD*%
D25*
%TO.C,ENC2*%
X50500000Y-142000000D03*
X39500000Y-142000000D03*
D10*
X47500000Y-135000000D03*
X42500000Y-135000000D03*
X45000000Y-132500000D03*
X45000000Y-149500000D03*
X47540000Y-132500000D03*
X47500000Y-149500000D03*
X42460000Y-132500000D03*
X42500000Y-149500000D03*
%TD*%
%TO.C,ENC1*%
X190147000Y-127090000D03*
X190147000Y-124550000D03*
X190147000Y-122010000D03*
X190147000Y-119470000D03*
%TD*%
D26*
%TO.C,J7*%
X143300500Y-114834500D03*
D27*
X143300500Y-117374500D03*
%TD*%
D26*
%TO.C,IC8*%
X181337000Y-51501000D03*
D27*
X178797000Y-51501000D03*
D26*
X176257000Y-51501000D03*
D28*
X181222000Y-96371000D03*
X176372000Y-96371000D03*
D29*
X181522000Y-99401000D03*
X176072000Y-99401000D03*
D26*
X187687000Y-99531000D03*
X187687000Y-96991000D03*
D27*
X187687000Y-94451000D03*
D26*
X187687000Y-91911000D03*
X187687000Y-89371000D03*
X187687000Y-86831000D03*
X187687000Y-84291000D03*
D27*
X187687000Y-81751000D03*
D26*
X187687000Y-79211000D03*
X187687000Y-76671000D03*
X187687000Y-74131000D03*
X187687000Y-71591000D03*
D27*
X187687000Y-69051000D03*
D26*
X187687000Y-66511000D03*
X187687000Y-63971000D03*
X187687000Y-61431000D03*
X187687000Y-58891000D03*
D27*
X187687000Y-56351000D03*
D26*
X187687000Y-53811000D03*
X187687000Y-51271000D03*
X169907000Y-51271000D03*
X169907000Y-53811000D03*
D27*
X169907000Y-56351000D03*
D26*
X169907000Y-58891000D03*
X169907000Y-61431000D03*
X169907000Y-63971000D03*
X169907000Y-66511000D03*
D27*
X169907000Y-69051000D03*
D26*
X169907000Y-71591000D03*
X169907000Y-74131000D03*
X169907000Y-76671000D03*
X169907000Y-79211000D03*
D27*
X169907000Y-81751000D03*
D26*
X169907000Y-84291000D03*
X169907000Y-86831000D03*
X169907000Y-89371000D03*
X169907000Y-91911000D03*
D27*
X169907000Y-94451000D03*
D26*
X169907000Y-96991000D03*
X169907000Y-99531000D03*
%TD*%
D30*
%TO.C,H11*%
X236000000Y-112000000D03*
%TD*%
%TO.C,H9*%
X30600000Y-134000000D03*
%TD*%
D31*
%TO.C,H4*%
X194100000Y-105820000D03*
%TD*%
%TO.C,H3*%
X67900000Y-105800000D03*
%TD*%
%TO.C,H2*%
X194100000Y-40170000D03*
%TD*%
%TO.C,H1*%
X67851080Y-40158500D03*
%TD*%
D30*
%TO.C,H10*%
X149000000Y-164000000D03*
%TD*%
%TO.C,H8*%
X263000000Y-164000000D03*
%TD*%
%TO.C,H7*%
X50000000Y-164000000D03*
%TD*%
%TO.C,H6*%
X236000000Y-20000000D03*
%TD*%
%TO.C,H5*%
X30600000Y-33000000D03*
%TD*%
D32*
%TO.C,D1*%
X243000000Y-23585000D03*
D33*
X243000000Y-21045000D03*
%TD*%
M02*
