%TF.GenerationSoftware,KiCad,Pcbnew,(5.1.6)-1*%
%TF.CreationDate,2021-02-21T00:16:36+01:00*%
%TF.ProjectId,pihpsdr Controller,70696870-7364-4722-9043-6f6e74726f6c,rev?*%
%TF.SameCoordinates,Original*%
%TF.FileFunction,Paste,Bot*%
%TF.FilePolarity,Positive*%
%FSLAX46Y46*%
G04 Gerber Fmt 4.6, Leading zero omitted, Abs format (unit mm)*
G04 Created by KiCad (PCBNEW (5.1.6)-1) date 2021-02-21 00:16:36*
%MOMM*%
%LPD*%
G01*
G04 APERTURE LIST*
%ADD10R,1.150000X1.400000*%
%ADD11C,17.800000*%
%ADD12R,2.500000X5.100000*%
%ADD13R,5.350000X8.540000*%
%ADD14R,0.890000X3.060000*%
%ADD15R,0.700000X1.000000*%
%ADD16R,2.850000X1.250000*%
%ADD17R,6.500000X5.550000*%
%ADD18R,3.000000X1.800000*%
%ADD19R,2.200000X2.800000*%
%ADD20R,2.800000X2.800000*%
%ADD21R,1.525000X0.700000*%
%ADD22R,0.450000X1.475000*%
%ADD23R,0.650000X1.850000*%
%ADD24R,0.460000X0.840000*%
%ADD25R,3.150000X2.200000*%
%ADD26R,2.250000X2.350000*%
%ADD27R,2.450000X2.350000*%
%ADD28O,0.875000X0.250000*%
%ADD29O,0.250000X0.875000*%
G04 APERTURE END LIST*
D10*
%TO.C,Y1*%
X66618000Y-50298000D03*
X66618000Y-52498000D03*
X68218000Y-52498000D03*
X68218000Y-50298000D03*
%TD*%
D11*
%TO.C,U2*%
X127616000Y-125693000D03*
D12*
X116166000Y-125693000D03*
X139066000Y-125693000D03*
%TD*%
D13*
%TO.C,U1*%
X203863000Y-35589000D03*
D14*
X207673000Y-28284000D03*
X206403000Y-28284000D03*
X205133000Y-28284000D03*
X203863000Y-28284000D03*
X202593000Y-28284000D03*
X201323000Y-28284000D03*
X200053000Y-28284000D03*
%TD*%
D15*
%TO.C,Q2*%
X159921000Y-27211000D03*
X158971000Y-29611000D03*
X160871000Y-29611000D03*
%TD*%
D16*
%TO.C,Q1*%
X159667800Y-19019000D03*
D17*
X166067800Y-21299000D03*
D16*
X159667800Y-23579000D03*
%TD*%
D18*
%TO.C,L3*%
X229330000Y-28284000D03*
X221830000Y-28284000D03*
%TD*%
%TO.C,L2*%
X110324000Y-18822500D03*
X117824000Y-18822500D03*
%TD*%
%TO.C,L1*%
X182358400Y-24855000D03*
X189858400Y-24855000D03*
%TD*%
D19*
%TO.C,J9*%
X27389000Y-148100000D03*
D20*
X36789000Y-148100000D03*
X40889000Y-152550000D03*
%TD*%
D19*
%TO.C,J5*%
X29400000Y-167000000D03*
X27400000Y-159600000D03*
D20*
X36800000Y-159600000D03*
%TD*%
D21*
%TO.C,IC7*%
X91085000Y-119089000D03*
X91085000Y-117819000D03*
X91085000Y-116549000D03*
X91085000Y-115279000D03*
X85661000Y-115279000D03*
X85661000Y-116549000D03*
X85661000Y-117819000D03*
X85661000Y-119089000D03*
%TD*%
D22*
%TO.C,IC3*%
X75352600Y-113103000D03*
X74702600Y-113103000D03*
X74052600Y-113103000D03*
X73402600Y-113103000D03*
X73402600Y-118979000D03*
X74052600Y-118979000D03*
X74702600Y-118979000D03*
X75352600Y-118979000D03*
%TD*%
D23*
%TO.C,IC2*%
X66449000Y-91379000D03*
X67719000Y-91379000D03*
X68989000Y-91379000D03*
X70259000Y-91379000D03*
X71529000Y-91379000D03*
X72799000Y-91379000D03*
X74069000Y-91379000D03*
X75339000Y-91379000D03*
X76609000Y-91379000D03*
X77879000Y-91379000D03*
X79149000Y-91379000D03*
X80419000Y-91379000D03*
X81689000Y-91379000D03*
X82959000Y-91379000D03*
X82959000Y-82029000D03*
X81689000Y-82029000D03*
X80419000Y-82029000D03*
X79149000Y-82029000D03*
X77879000Y-82029000D03*
X76609000Y-82029000D03*
X75339000Y-82029000D03*
X74069000Y-82029000D03*
X72799000Y-82029000D03*
X71529000Y-82029000D03*
X70259000Y-82029000D03*
X68989000Y-82029000D03*
X67719000Y-82029000D03*
X66449000Y-82029000D03*
%TD*%
%TO.C,IC1*%
X223120000Y-108953000D03*
X221850000Y-108953000D03*
X220580000Y-108953000D03*
X219310000Y-108953000D03*
X218040000Y-108953000D03*
X216770000Y-108953000D03*
X215500000Y-108953000D03*
X214230000Y-108953000D03*
X212960000Y-108953000D03*
X211690000Y-108953000D03*
X210420000Y-108953000D03*
X209150000Y-108953000D03*
X207880000Y-108953000D03*
X206610000Y-108953000D03*
X206610000Y-118303000D03*
X207880000Y-118303000D03*
X209150000Y-118303000D03*
X210420000Y-118303000D03*
X211690000Y-118303000D03*
X212960000Y-118303000D03*
X214230000Y-118303000D03*
X215500000Y-118303000D03*
X216770000Y-118303000D03*
X218040000Y-118303000D03*
X219310000Y-118303000D03*
X220580000Y-118303000D03*
X221850000Y-118303000D03*
X223120000Y-118303000D03*
%TD*%
D24*
%TO.C,D3*%
X189054800Y-21661600D03*
X189054800Y-19361600D03*
%TD*%
D25*
%TO.C,D2*%
X98072000Y-25053000D03*
X98072000Y-18053000D03*
%TD*%
D26*
%TO.C,C32*%
X220373000Y-44704000D03*
X220373000Y-39804000D03*
%TD*%
%TO.C,C29*%
X217071000Y-33147000D03*
X217071000Y-28247000D03*
%TD*%
D27*
%TO.C,C22*%
X195735000Y-22263000D03*
X195735000Y-28463000D03*
%TD*%
%TO.C,C18*%
X104422000Y-24272000D03*
X104422000Y-18072000D03*
%TD*%
%TO.C,C34*%
G36*
G01*
X214775000Y-37669000D02*
X213525000Y-37669000D01*
G75*
G02*
X213275000Y-37419000I0J250000D01*
G01*
X213275000Y-36494000D01*
G75*
G02*
X213525000Y-36244000I250000J0D01*
G01*
X214775000Y-36244000D01*
G75*
G02*
X215025000Y-36494000I0J-250000D01*
G01*
X215025000Y-37419000D01*
G75*
G02*
X214775000Y-37669000I-250000J0D01*
G01*
G37*
G36*
G01*
X214775000Y-40644000D02*
X213525000Y-40644000D01*
G75*
G02*
X213275000Y-40394000I0J250000D01*
G01*
X213275000Y-39469000D01*
G75*
G02*
X213525000Y-39219000I250000J0D01*
G01*
X214775000Y-39219000D01*
G75*
G02*
X215025000Y-39469000I0J-250000D01*
G01*
X215025000Y-40394000D01*
G75*
G02*
X214775000Y-40644000I-250000J0D01*
G01*
G37*
%TD*%
%TO.C,C8*%
G36*
G01*
X49397000Y-49864000D02*
X49397000Y-48614000D01*
G75*
G02*
X49647000Y-48364000I250000J0D01*
G01*
X50572000Y-48364000D01*
G75*
G02*
X50822000Y-48614000I0J-250000D01*
G01*
X50822000Y-49864000D01*
G75*
G02*
X50572000Y-50114000I-250000J0D01*
G01*
X49647000Y-50114000D01*
G75*
G02*
X49397000Y-49864000I0J250000D01*
G01*
G37*
G36*
G01*
X46422000Y-49864000D02*
X46422000Y-48614000D01*
G75*
G02*
X46672000Y-48364000I250000J0D01*
G01*
X47597000Y-48364000D01*
G75*
G02*
X47847000Y-48614000I0J-250000D01*
G01*
X47847000Y-49864000D01*
G75*
G02*
X47597000Y-50114000I-250000J0D01*
G01*
X46672000Y-50114000D01*
G75*
G02*
X46422000Y-49864000I0J250000D01*
G01*
G37*
%TD*%
%TO.C,C7*%
G36*
G01*
X49397000Y-47451000D02*
X49397000Y-46201000D01*
G75*
G02*
X49647000Y-45951000I250000J0D01*
G01*
X50572000Y-45951000D01*
G75*
G02*
X50822000Y-46201000I0J-250000D01*
G01*
X50822000Y-47451000D01*
G75*
G02*
X50572000Y-47701000I-250000J0D01*
G01*
X49647000Y-47701000D01*
G75*
G02*
X49397000Y-47451000I0J250000D01*
G01*
G37*
G36*
G01*
X46422000Y-47451000D02*
X46422000Y-46201000D01*
G75*
G02*
X46672000Y-45951000I250000J0D01*
G01*
X47597000Y-45951000D01*
G75*
G02*
X47847000Y-46201000I0J-250000D01*
G01*
X47847000Y-47451000D01*
G75*
G02*
X47597000Y-47701000I-250000J0D01*
G01*
X46672000Y-47701000D01*
G75*
G02*
X46422000Y-47451000I0J250000D01*
G01*
G37*
%TD*%
%TO.C,R69*%
G36*
G01*
X182410999Y-128048000D02*
X183311001Y-128048000D01*
G75*
G02*
X183561000Y-128297999I0J-249999D01*
G01*
X183561000Y-128948001D01*
G75*
G02*
X183311001Y-129198000I-249999J0D01*
G01*
X182410999Y-129198000D01*
G75*
G02*
X182161000Y-128948001I0J249999D01*
G01*
X182161000Y-128297999D01*
G75*
G02*
X182410999Y-128048000I249999J0D01*
G01*
G37*
G36*
G01*
X182410999Y-125998000D02*
X183311001Y-125998000D01*
G75*
G02*
X183561000Y-126247999I0J-249999D01*
G01*
X183561000Y-126898001D01*
G75*
G02*
X183311001Y-127148000I-249999J0D01*
G01*
X182410999Y-127148000D01*
G75*
G02*
X182161000Y-126898001I0J249999D01*
G01*
X182161000Y-126247999D01*
G75*
G02*
X182410999Y-125998000I249999J0D01*
G01*
G37*
%TD*%
%TO.C,R68*%
G36*
G01*
X183311001Y-123338000D02*
X182410999Y-123338000D01*
G75*
G02*
X182161000Y-123088001I0J249999D01*
G01*
X182161000Y-122437999D01*
G75*
G02*
X182410999Y-122188000I249999J0D01*
G01*
X183311001Y-122188000D01*
G75*
G02*
X183561000Y-122437999I0J-249999D01*
G01*
X183561000Y-123088001D01*
G75*
G02*
X183311001Y-123338000I-249999J0D01*
G01*
G37*
G36*
G01*
X183311001Y-125388000D02*
X182410999Y-125388000D01*
G75*
G02*
X182161000Y-125138001I0J249999D01*
G01*
X182161000Y-124487999D01*
G75*
G02*
X182410999Y-124238000I249999J0D01*
G01*
X183311001Y-124238000D01*
G75*
G02*
X183561000Y-124487999I0J-249999D01*
G01*
X183561000Y-125138001D01*
G75*
G02*
X183311001Y-125388000I-249999J0D01*
G01*
G37*
%TD*%
%TO.C,R67*%
G36*
G01*
X42849001Y-160159000D02*
X41948999Y-160159000D01*
G75*
G02*
X41699000Y-159909001I0J249999D01*
G01*
X41699000Y-159258999D01*
G75*
G02*
X41948999Y-159009000I249999J0D01*
G01*
X42849001Y-159009000D01*
G75*
G02*
X43099000Y-159258999I0J-249999D01*
G01*
X43099000Y-159909001D01*
G75*
G02*
X42849001Y-160159000I-249999J0D01*
G01*
G37*
G36*
G01*
X42849001Y-162209000D02*
X41948999Y-162209000D01*
G75*
G02*
X41699000Y-161959001I0J249999D01*
G01*
X41699000Y-161308999D01*
G75*
G02*
X41948999Y-161059000I249999J0D01*
G01*
X42849001Y-161059000D01*
G75*
G02*
X43099000Y-161308999I0J-249999D01*
G01*
X43099000Y-161959001D01*
G75*
G02*
X42849001Y-162209000I-249999J0D01*
G01*
G37*
%TD*%
%TO.C,R66*%
G36*
G01*
X41948999Y-165132000D02*
X42849001Y-165132000D01*
G75*
G02*
X43099000Y-165381999I0J-249999D01*
G01*
X43099000Y-166032001D01*
G75*
G02*
X42849001Y-166282000I-249999J0D01*
G01*
X41948999Y-166282000D01*
G75*
G02*
X41699000Y-166032001I0J249999D01*
G01*
X41699000Y-165381999D01*
G75*
G02*
X41948999Y-165132000I249999J0D01*
G01*
G37*
G36*
G01*
X41948999Y-163082000D02*
X42849001Y-163082000D01*
G75*
G02*
X43099000Y-163331999I0J-249999D01*
G01*
X43099000Y-163982001D01*
G75*
G02*
X42849001Y-164232000I-249999J0D01*
G01*
X41948999Y-164232000D01*
G75*
G02*
X41699000Y-163982001I0J249999D01*
G01*
X41699000Y-163331999D01*
G75*
G02*
X41948999Y-163082000I249999J0D01*
G01*
G37*
%TD*%
%TO.C,R65*%
G36*
G01*
X197316999Y-149375000D02*
X198217001Y-149375000D01*
G75*
G02*
X198467000Y-149624999I0J-249999D01*
G01*
X198467000Y-150275001D01*
G75*
G02*
X198217001Y-150525000I-249999J0D01*
G01*
X197316999Y-150525000D01*
G75*
G02*
X197067000Y-150275001I0J249999D01*
G01*
X197067000Y-149624999D01*
G75*
G02*
X197316999Y-149375000I249999J0D01*
G01*
G37*
G36*
G01*
X197316999Y-147325000D02*
X198217001Y-147325000D01*
G75*
G02*
X198467000Y-147574999I0J-249999D01*
G01*
X198467000Y-148225001D01*
G75*
G02*
X198217001Y-148475000I-249999J0D01*
G01*
X197316999Y-148475000D01*
G75*
G02*
X197067000Y-148225001I0J249999D01*
G01*
X197067000Y-147574999D01*
G75*
G02*
X197316999Y-147325000I249999J0D01*
G01*
G37*
%TD*%
%TO.C,R54*%
G36*
G01*
X182267499Y-149375000D02*
X183167501Y-149375000D01*
G75*
G02*
X183417500Y-149624999I0J-249999D01*
G01*
X183417500Y-150275001D01*
G75*
G02*
X183167501Y-150525000I-249999J0D01*
G01*
X182267499Y-150525000D01*
G75*
G02*
X182017500Y-150275001I0J249999D01*
G01*
X182017500Y-149624999D01*
G75*
G02*
X182267499Y-149375000I249999J0D01*
G01*
G37*
G36*
G01*
X182267499Y-147325000D02*
X183167501Y-147325000D01*
G75*
G02*
X183417500Y-147574999I0J-249999D01*
G01*
X183417500Y-148225001D01*
G75*
G02*
X183167501Y-148475000I-249999J0D01*
G01*
X182267499Y-148475000D01*
G75*
G02*
X182017500Y-148225001I0J249999D01*
G01*
X182017500Y-147574999D01*
G75*
G02*
X182267499Y-147325000I249999J0D01*
G01*
G37*
%TD*%
%TO.C,R53*%
G36*
G01*
X167344999Y-149375000D02*
X168245001Y-149375000D01*
G75*
G02*
X168495000Y-149624999I0J-249999D01*
G01*
X168495000Y-150275001D01*
G75*
G02*
X168245001Y-150525000I-249999J0D01*
G01*
X167344999Y-150525000D01*
G75*
G02*
X167095000Y-150275001I0J249999D01*
G01*
X167095000Y-149624999D01*
G75*
G02*
X167344999Y-149375000I249999J0D01*
G01*
G37*
G36*
G01*
X167344999Y-147325000D02*
X168245001Y-147325000D01*
G75*
G02*
X168495000Y-147574999I0J-249999D01*
G01*
X168495000Y-148225001D01*
G75*
G02*
X168245001Y-148475000I-249999J0D01*
G01*
X167344999Y-148475000D01*
G75*
G02*
X167095000Y-148225001I0J249999D01*
G01*
X167095000Y-147574999D01*
G75*
G02*
X167344999Y-147325000I249999J0D01*
G01*
G37*
%TD*%
%TO.C,R52*%
G36*
G01*
X152295499Y-149375000D02*
X153195501Y-149375000D01*
G75*
G02*
X153445500Y-149624999I0J-249999D01*
G01*
X153445500Y-150275001D01*
G75*
G02*
X153195501Y-150525000I-249999J0D01*
G01*
X152295499Y-150525000D01*
G75*
G02*
X152045500Y-150275001I0J249999D01*
G01*
X152045500Y-149624999D01*
G75*
G02*
X152295499Y-149375000I249999J0D01*
G01*
G37*
G36*
G01*
X152295499Y-147325000D02*
X153195501Y-147325000D01*
G75*
G02*
X153445500Y-147574999I0J-249999D01*
G01*
X153445500Y-148225001D01*
G75*
G02*
X153195501Y-148475000I-249999J0D01*
G01*
X152295499Y-148475000D01*
G75*
G02*
X152045500Y-148225001I0J249999D01*
G01*
X152045500Y-147574999D01*
G75*
G02*
X152295499Y-147325000I249999J0D01*
G01*
G37*
%TD*%
%TO.C,R51*%
G36*
G01*
X137309499Y-149375000D02*
X138209501Y-149375000D01*
G75*
G02*
X138459500Y-149624999I0J-249999D01*
G01*
X138459500Y-150275001D01*
G75*
G02*
X138209501Y-150525000I-249999J0D01*
G01*
X137309499Y-150525000D01*
G75*
G02*
X137059500Y-150275001I0J249999D01*
G01*
X137059500Y-149624999D01*
G75*
G02*
X137309499Y-149375000I249999J0D01*
G01*
G37*
G36*
G01*
X137309499Y-147325000D02*
X138209501Y-147325000D01*
G75*
G02*
X138459500Y-147574999I0J-249999D01*
G01*
X138459500Y-148225001D01*
G75*
G02*
X138209501Y-148475000I-249999J0D01*
G01*
X137309499Y-148475000D01*
G75*
G02*
X137059500Y-148225001I0J249999D01*
G01*
X137059500Y-147574999D01*
G75*
G02*
X137309499Y-147325000I249999J0D01*
G01*
G37*
%TD*%
%TO.C,R50*%
G36*
G01*
X122323499Y-149375000D02*
X123223501Y-149375000D01*
G75*
G02*
X123473500Y-149624999I0J-249999D01*
G01*
X123473500Y-150275001D01*
G75*
G02*
X123223501Y-150525000I-249999J0D01*
G01*
X122323499Y-150525000D01*
G75*
G02*
X122073500Y-150275001I0J249999D01*
G01*
X122073500Y-149624999D01*
G75*
G02*
X122323499Y-149375000I249999J0D01*
G01*
G37*
G36*
G01*
X122323499Y-147325000D02*
X123223501Y-147325000D01*
G75*
G02*
X123473500Y-147574999I0J-249999D01*
G01*
X123473500Y-148225001D01*
G75*
G02*
X123223501Y-148475000I-249999J0D01*
G01*
X122323499Y-148475000D01*
G75*
G02*
X122073500Y-148225001I0J249999D01*
G01*
X122073500Y-147574999D01*
G75*
G02*
X122323499Y-147325000I249999J0D01*
G01*
G37*
%TD*%
%TO.C,R44*%
G36*
G01*
X107273999Y-149375000D02*
X108174001Y-149375000D01*
G75*
G02*
X108424000Y-149624999I0J-249999D01*
G01*
X108424000Y-150275001D01*
G75*
G02*
X108174001Y-150525000I-249999J0D01*
G01*
X107273999Y-150525000D01*
G75*
G02*
X107024000Y-150275001I0J249999D01*
G01*
X107024000Y-149624999D01*
G75*
G02*
X107273999Y-149375000I249999J0D01*
G01*
G37*
G36*
G01*
X107273999Y-147325000D02*
X108174001Y-147325000D01*
G75*
G02*
X108424000Y-147574999I0J-249999D01*
G01*
X108424000Y-148225001D01*
G75*
G02*
X108174001Y-148475000I-249999J0D01*
G01*
X107273999Y-148475000D01*
G75*
G02*
X107024000Y-148225001I0J249999D01*
G01*
X107024000Y-147574999D01*
G75*
G02*
X107273999Y-147325000I249999J0D01*
G01*
G37*
%TD*%
%TO.C,R26*%
G36*
G01*
X261907500Y-104680001D02*
X261907500Y-103779999D01*
G75*
G02*
X262157499Y-103530000I249999J0D01*
G01*
X262807501Y-103530000D01*
G75*
G02*
X263057500Y-103779999I0J-249999D01*
G01*
X263057500Y-104680001D01*
G75*
G02*
X262807501Y-104930000I-249999J0D01*
G01*
X262157499Y-104930000D01*
G75*
G02*
X261907500Y-104680001I0J249999D01*
G01*
G37*
G36*
G01*
X259857500Y-104680001D02*
X259857500Y-103779999D01*
G75*
G02*
X260107499Y-103530000I249999J0D01*
G01*
X260757501Y-103530000D01*
G75*
G02*
X261007500Y-103779999I0J-249999D01*
G01*
X261007500Y-104680001D01*
G75*
G02*
X260757501Y-104930000I-249999J0D01*
G01*
X260107499Y-104930000D01*
G75*
G02*
X259857500Y-104680001I0J249999D01*
G01*
G37*
%TD*%
%TO.C,R25*%
G36*
G01*
X261916500Y-102648001D02*
X261916500Y-101747999D01*
G75*
G02*
X262166499Y-101498000I249999J0D01*
G01*
X262816501Y-101498000D01*
G75*
G02*
X263066500Y-101747999I0J-249999D01*
G01*
X263066500Y-102648001D01*
G75*
G02*
X262816501Y-102898000I-249999J0D01*
G01*
X262166499Y-102898000D01*
G75*
G02*
X261916500Y-102648001I0J249999D01*
G01*
G37*
G36*
G01*
X259866500Y-102648001D02*
X259866500Y-101747999D01*
G75*
G02*
X260116499Y-101498000I249999J0D01*
G01*
X260766501Y-101498000D01*
G75*
G02*
X261016500Y-101747999I0J-249999D01*
G01*
X261016500Y-102648001D01*
G75*
G02*
X260766501Y-102898000I-249999J0D01*
G01*
X260116499Y-102898000D01*
G75*
G02*
X259866500Y-102648001I0J249999D01*
G01*
G37*
%TD*%
%TO.C,R24*%
G36*
G01*
X261907500Y-92678501D02*
X261907500Y-91778499D01*
G75*
G02*
X262157499Y-91528500I249999J0D01*
G01*
X262807501Y-91528500D01*
G75*
G02*
X263057500Y-91778499I0J-249999D01*
G01*
X263057500Y-92678501D01*
G75*
G02*
X262807501Y-92928500I-249999J0D01*
G01*
X262157499Y-92928500D01*
G75*
G02*
X261907500Y-92678501I0J249999D01*
G01*
G37*
G36*
G01*
X259857500Y-92678501D02*
X259857500Y-91778499D01*
G75*
G02*
X260107499Y-91528500I249999J0D01*
G01*
X260757501Y-91528500D01*
G75*
G02*
X261007500Y-91778499I0J-249999D01*
G01*
X261007500Y-92678501D01*
G75*
G02*
X260757501Y-92928500I-249999J0D01*
G01*
X260107499Y-92928500D01*
G75*
G02*
X259857500Y-92678501I0J249999D01*
G01*
G37*
%TD*%
%TO.C,R23*%
G36*
G01*
X261907500Y-90646501D02*
X261907500Y-89746499D01*
G75*
G02*
X262157499Y-89496500I249999J0D01*
G01*
X262807501Y-89496500D01*
G75*
G02*
X263057500Y-89746499I0J-249999D01*
G01*
X263057500Y-90646501D01*
G75*
G02*
X262807501Y-90896500I-249999J0D01*
G01*
X262157499Y-90896500D01*
G75*
G02*
X261907500Y-90646501I0J249999D01*
G01*
G37*
G36*
G01*
X259857500Y-90646501D02*
X259857500Y-89746499D01*
G75*
G02*
X260107499Y-89496500I249999J0D01*
G01*
X260757501Y-89496500D01*
G75*
G02*
X261007500Y-89746499I0J-249999D01*
G01*
X261007500Y-90646501D01*
G75*
G02*
X260757501Y-90896500I-249999J0D01*
G01*
X260107499Y-90896500D01*
G75*
G02*
X259857500Y-90646501I0J249999D01*
G01*
G37*
%TD*%
%TO.C,R22*%
G36*
G01*
X261907500Y-77692501D02*
X261907500Y-76792499D01*
G75*
G02*
X262157499Y-76542500I249999J0D01*
G01*
X262807501Y-76542500D01*
G75*
G02*
X263057500Y-76792499I0J-249999D01*
G01*
X263057500Y-77692501D01*
G75*
G02*
X262807501Y-77942500I-249999J0D01*
G01*
X262157499Y-77942500D01*
G75*
G02*
X261907500Y-77692501I0J249999D01*
G01*
G37*
G36*
G01*
X259857500Y-77692501D02*
X259857500Y-76792499D01*
G75*
G02*
X260107499Y-76542500I249999J0D01*
G01*
X260757501Y-76542500D01*
G75*
G02*
X261007500Y-76792499I0J-249999D01*
G01*
X261007500Y-77692501D01*
G75*
G02*
X260757501Y-77942500I-249999J0D01*
G01*
X260107499Y-77942500D01*
G75*
G02*
X259857500Y-77692501I0J249999D01*
G01*
G37*
%TD*%
%TO.C,R21*%
G36*
G01*
X261898500Y-75660501D02*
X261898500Y-74760499D01*
G75*
G02*
X262148499Y-74510500I249999J0D01*
G01*
X262798501Y-74510500D01*
G75*
G02*
X263048500Y-74760499I0J-249999D01*
G01*
X263048500Y-75660501D01*
G75*
G02*
X262798501Y-75910500I-249999J0D01*
G01*
X262148499Y-75910500D01*
G75*
G02*
X261898500Y-75660501I0J249999D01*
G01*
G37*
G36*
G01*
X259848500Y-75660501D02*
X259848500Y-74760499D01*
G75*
G02*
X260098499Y-74510500I249999J0D01*
G01*
X260748501Y-74510500D01*
G75*
G02*
X260998500Y-74760499I0J-249999D01*
G01*
X260998500Y-75660501D01*
G75*
G02*
X260748501Y-75910500I-249999J0D01*
G01*
X260098499Y-75910500D01*
G75*
G02*
X259848500Y-75660501I0J249999D01*
G01*
G37*
%TD*%
%TO.C,R20*%
G36*
G01*
X261907500Y-65754501D02*
X261907500Y-64854499D01*
G75*
G02*
X262157499Y-64604500I249999J0D01*
G01*
X262807501Y-64604500D01*
G75*
G02*
X263057500Y-64854499I0J-249999D01*
G01*
X263057500Y-65754501D01*
G75*
G02*
X262807501Y-66004500I-249999J0D01*
G01*
X262157499Y-66004500D01*
G75*
G02*
X261907500Y-65754501I0J249999D01*
G01*
G37*
G36*
G01*
X259857500Y-65754501D02*
X259857500Y-64854499D01*
G75*
G02*
X260107499Y-64604500I249999J0D01*
G01*
X260757501Y-64604500D01*
G75*
G02*
X261007500Y-64854499I0J-249999D01*
G01*
X261007500Y-65754501D01*
G75*
G02*
X260757501Y-66004500I-249999J0D01*
G01*
X260107499Y-66004500D01*
G75*
G02*
X259857500Y-65754501I0J249999D01*
G01*
G37*
%TD*%
%TO.C,R19*%
G36*
G01*
X261907500Y-63659001D02*
X261907500Y-62758999D01*
G75*
G02*
X262157499Y-62509000I249999J0D01*
G01*
X262807501Y-62509000D01*
G75*
G02*
X263057500Y-62758999I0J-249999D01*
G01*
X263057500Y-63659001D01*
G75*
G02*
X262807501Y-63909000I-249999J0D01*
G01*
X262157499Y-63909000D01*
G75*
G02*
X261907500Y-63659001I0J249999D01*
G01*
G37*
G36*
G01*
X259857500Y-63659001D02*
X259857500Y-62758999D01*
G75*
G02*
X260107499Y-62509000I249999J0D01*
G01*
X260757501Y-62509000D01*
G75*
G02*
X261007500Y-62758999I0J-249999D01*
G01*
X261007500Y-63659001D01*
G75*
G02*
X260757501Y-63909000I-249999J0D01*
G01*
X260107499Y-63909000D01*
G75*
G02*
X259857500Y-63659001I0J249999D01*
G01*
G37*
%TD*%
%TO.C,R18*%
G36*
G01*
X261907500Y-45688501D02*
X261907500Y-44788499D01*
G75*
G02*
X262157499Y-44538500I249999J0D01*
G01*
X262807501Y-44538500D01*
G75*
G02*
X263057500Y-44788499I0J-249999D01*
G01*
X263057500Y-45688501D01*
G75*
G02*
X262807501Y-45938500I-249999J0D01*
G01*
X262157499Y-45938500D01*
G75*
G02*
X261907500Y-45688501I0J249999D01*
G01*
G37*
G36*
G01*
X259857500Y-45688501D02*
X259857500Y-44788499D01*
G75*
G02*
X260107499Y-44538500I249999J0D01*
G01*
X260757501Y-44538500D01*
G75*
G02*
X261007500Y-44788499I0J-249999D01*
G01*
X261007500Y-45688501D01*
G75*
G02*
X260757501Y-45938500I-249999J0D01*
G01*
X260107499Y-45938500D01*
G75*
G02*
X259857500Y-45688501I0J249999D01*
G01*
G37*
%TD*%
%TO.C,C35*%
G36*
G01*
X84747999Y-91853000D02*
X85648001Y-91853000D01*
G75*
G02*
X85898000Y-92102999I0J-249999D01*
G01*
X85898000Y-92753001D01*
G75*
G02*
X85648001Y-93003000I-249999J0D01*
G01*
X84747999Y-93003000D01*
G75*
G02*
X84498000Y-92753001I0J249999D01*
G01*
X84498000Y-92102999D01*
G75*
G02*
X84747999Y-91853000I249999J0D01*
G01*
G37*
G36*
G01*
X84747999Y-89803000D02*
X85648001Y-89803000D01*
G75*
G02*
X85898000Y-90052999I0J-249999D01*
G01*
X85898000Y-90703001D01*
G75*
G02*
X85648001Y-90953000I-249999J0D01*
G01*
X84747999Y-90953000D01*
G75*
G02*
X84498000Y-90703001I0J249999D01*
G01*
X84498000Y-90052999D01*
G75*
G02*
X84747999Y-89803000I249999J0D01*
G01*
G37*
%TD*%
%TO.C,C16*%
G36*
G01*
X81330001Y-95144000D02*
X80429999Y-95144000D01*
G75*
G02*
X80180000Y-94894001I0J249999D01*
G01*
X80180000Y-94243999D01*
G75*
G02*
X80429999Y-93994000I249999J0D01*
G01*
X81330001Y-93994000D01*
G75*
G02*
X81580000Y-94243999I0J-249999D01*
G01*
X81580000Y-94894001D01*
G75*
G02*
X81330001Y-95144000I-249999J0D01*
G01*
G37*
G36*
G01*
X81330001Y-97194000D02*
X80429999Y-97194000D01*
G75*
G02*
X80180000Y-96944001I0J249999D01*
G01*
X80180000Y-96293999D01*
G75*
G02*
X80429999Y-96044000I249999J0D01*
G01*
X81330001Y-96044000D01*
G75*
G02*
X81580000Y-96293999I0J-249999D01*
G01*
X81580000Y-96944001D01*
G75*
G02*
X81330001Y-97194000I-249999J0D01*
G01*
G37*
%TD*%
%TO.C,C15*%
G36*
G01*
X208694501Y-104669000D02*
X207794499Y-104669000D01*
G75*
G02*
X207544500Y-104419001I0J249999D01*
G01*
X207544500Y-103768999D01*
G75*
G02*
X207794499Y-103519000I249999J0D01*
G01*
X208694501Y-103519000D01*
G75*
G02*
X208944500Y-103768999I0J-249999D01*
G01*
X208944500Y-104419001D01*
G75*
G02*
X208694501Y-104669000I-249999J0D01*
G01*
G37*
G36*
G01*
X208694501Y-106719000D02*
X207794499Y-106719000D01*
G75*
G02*
X207544500Y-106469001I0J249999D01*
G01*
X207544500Y-105818999D01*
G75*
G02*
X207794499Y-105569000I249999J0D01*
G01*
X208694501Y-105569000D01*
G75*
G02*
X208944500Y-105818999I0J-249999D01*
G01*
X208944500Y-106469001D01*
G75*
G02*
X208694501Y-106719000I-249999J0D01*
G01*
G37*
%TD*%
%TO.C,C1*%
G36*
G01*
X202857999Y-109252000D02*
X203758001Y-109252000D01*
G75*
G02*
X204008000Y-109501999I0J-249999D01*
G01*
X204008000Y-110152001D01*
G75*
G02*
X203758001Y-110402000I-249999J0D01*
G01*
X202857999Y-110402000D01*
G75*
G02*
X202608000Y-110152001I0J249999D01*
G01*
X202608000Y-109501999D01*
G75*
G02*
X202857999Y-109252000I249999J0D01*
G01*
G37*
G36*
G01*
X202857999Y-107202000D02*
X203758001Y-107202000D01*
G75*
G02*
X204008000Y-107451999I0J-249999D01*
G01*
X204008000Y-108102001D01*
G75*
G02*
X203758001Y-108352000I-249999J0D01*
G01*
X202857999Y-108352000D01*
G75*
G02*
X202608000Y-108102001I0J249999D01*
G01*
X202608000Y-107451999D01*
G75*
G02*
X202857999Y-107202000I249999J0D01*
G01*
G37*
%TD*%
%TO.C,R17*%
G36*
G01*
X83362001Y-95144000D02*
X82461999Y-95144000D01*
G75*
G02*
X82212000Y-94894001I0J249999D01*
G01*
X82212000Y-94243999D01*
G75*
G02*
X82461999Y-93994000I249999J0D01*
G01*
X83362001Y-93994000D01*
G75*
G02*
X83612000Y-94243999I0J-249999D01*
G01*
X83612000Y-94894001D01*
G75*
G02*
X83362001Y-95144000I-249999J0D01*
G01*
G37*
G36*
G01*
X83362001Y-97194000D02*
X82461999Y-97194000D01*
G75*
G02*
X82212000Y-96944001I0J249999D01*
G01*
X82212000Y-96293999D01*
G75*
G02*
X82461999Y-96044000I249999J0D01*
G01*
X83362001Y-96044000D01*
G75*
G02*
X83612000Y-96293999I0J-249999D01*
G01*
X83612000Y-96944001D01*
G75*
G02*
X83362001Y-97194000I-249999J0D01*
G01*
G37*
%TD*%
%TO.C,R16*%
G36*
G01*
X79298001Y-95144000D02*
X78397999Y-95144000D01*
G75*
G02*
X78148000Y-94894001I0J249999D01*
G01*
X78148000Y-94243999D01*
G75*
G02*
X78397999Y-93994000I249999J0D01*
G01*
X79298001Y-93994000D01*
G75*
G02*
X79548000Y-94243999I0J-249999D01*
G01*
X79548000Y-94894001D01*
G75*
G02*
X79298001Y-95144000I-249999J0D01*
G01*
G37*
G36*
G01*
X79298001Y-97194000D02*
X78397999Y-97194000D01*
G75*
G02*
X78148000Y-96944001I0J249999D01*
G01*
X78148000Y-96293999D01*
G75*
G02*
X78397999Y-96044000I249999J0D01*
G01*
X79298001Y-96044000D01*
G75*
G02*
X79548000Y-96293999I0J-249999D01*
G01*
X79548000Y-96944001D01*
G75*
G02*
X79298001Y-97194000I-249999J0D01*
G01*
G37*
%TD*%
%TO.C,R15*%
G36*
G01*
X209889999Y-105569000D02*
X210790001Y-105569000D01*
G75*
G02*
X211040000Y-105818999I0J-249999D01*
G01*
X211040000Y-106469001D01*
G75*
G02*
X210790001Y-106719000I-249999J0D01*
G01*
X209889999Y-106719000D01*
G75*
G02*
X209640000Y-106469001I0J249999D01*
G01*
X209640000Y-105818999D01*
G75*
G02*
X209889999Y-105569000I249999J0D01*
G01*
G37*
G36*
G01*
X209889999Y-103519000D02*
X210790001Y-103519000D01*
G75*
G02*
X211040000Y-103768999I0J-249999D01*
G01*
X211040000Y-104419001D01*
G75*
G02*
X210790001Y-104669000I-249999J0D01*
G01*
X209889999Y-104669000D01*
G75*
G02*
X209640000Y-104419001I0J249999D01*
G01*
X209640000Y-103768999D01*
G75*
G02*
X209889999Y-103519000I249999J0D01*
G01*
G37*
%TD*%
%TO.C,R14*%
G36*
G01*
X245842000Y-29877001D02*
X245842000Y-28976999D01*
G75*
G02*
X246091999Y-28727000I249999J0D01*
G01*
X246742001Y-28727000D01*
G75*
G02*
X246992000Y-28976999I0J-249999D01*
G01*
X246992000Y-29877001D01*
G75*
G02*
X246742001Y-30127000I-249999J0D01*
G01*
X246091999Y-30127000D01*
G75*
G02*
X245842000Y-29877001I0J249999D01*
G01*
G37*
G36*
G01*
X243792000Y-29877001D02*
X243792000Y-28976999D01*
G75*
G02*
X244041999Y-28727000I249999J0D01*
G01*
X244692001Y-28727000D01*
G75*
G02*
X244942000Y-28976999I0J-249999D01*
G01*
X244942000Y-29877001D01*
G75*
G02*
X244692001Y-30127000I-249999J0D01*
G01*
X244041999Y-30127000D01*
G75*
G02*
X243792000Y-29877001I0J249999D01*
G01*
G37*
%TD*%
%TO.C,R13*%
G36*
G01*
X57061999Y-136666000D02*
X57962001Y-136666000D01*
G75*
G02*
X58212000Y-136915999I0J-249999D01*
G01*
X58212000Y-137566001D01*
G75*
G02*
X57962001Y-137816000I-249999J0D01*
G01*
X57061999Y-137816000D01*
G75*
G02*
X56812000Y-137566001I0J249999D01*
G01*
X56812000Y-136915999D01*
G75*
G02*
X57061999Y-136666000I249999J0D01*
G01*
G37*
G36*
G01*
X57061999Y-138716000D02*
X57962001Y-138716000D01*
G75*
G02*
X58212000Y-138965999I0J-249999D01*
G01*
X58212000Y-139616001D01*
G75*
G02*
X57962001Y-139866000I-249999J0D01*
G01*
X57061999Y-139866000D01*
G75*
G02*
X56812000Y-139616001I0J249999D01*
G01*
X56812000Y-138965999D01*
G75*
G02*
X57061999Y-138716000I249999J0D01*
G01*
G37*
%TD*%
%TO.C,R12*%
G36*
G01*
X54521999Y-138716000D02*
X55422001Y-138716000D01*
G75*
G02*
X55672000Y-138965999I0J-249999D01*
G01*
X55672000Y-139616001D01*
G75*
G02*
X55422001Y-139866000I-249999J0D01*
G01*
X54521999Y-139866000D01*
G75*
G02*
X54272000Y-139616001I0J249999D01*
G01*
X54272000Y-138965999D01*
G75*
G02*
X54521999Y-138716000I249999J0D01*
G01*
G37*
G36*
G01*
X54521999Y-136666000D02*
X55422001Y-136666000D01*
G75*
G02*
X55672000Y-136915999I0J-249999D01*
G01*
X55672000Y-137566001D01*
G75*
G02*
X55422001Y-137816000I-249999J0D01*
G01*
X54521999Y-137816000D01*
G75*
G02*
X54272000Y-137566001I0J249999D01*
G01*
X54272000Y-136915999D01*
G75*
G02*
X54521999Y-136666000I249999J0D01*
G01*
G37*
%TD*%
%TO.C,R11*%
G36*
G01*
X79540999Y-138716000D02*
X80441001Y-138716000D01*
G75*
G02*
X80691000Y-138965999I0J-249999D01*
G01*
X80691000Y-139616001D01*
G75*
G02*
X80441001Y-139866000I-249999J0D01*
G01*
X79540999Y-139866000D01*
G75*
G02*
X79291000Y-139616001I0J249999D01*
G01*
X79291000Y-138965999D01*
G75*
G02*
X79540999Y-138716000I249999J0D01*
G01*
G37*
G36*
G01*
X79540999Y-136666000D02*
X80441001Y-136666000D01*
G75*
G02*
X80691000Y-136915999I0J-249999D01*
G01*
X80691000Y-137566001D01*
G75*
G02*
X80441001Y-137816000I-249999J0D01*
G01*
X79540999Y-137816000D01*
G75*
G02*
X79291000Y-137566001I0J249999D01*
G01*
X79291000Y-136915999D01*
G75*
G02*
X79540999Y-136666000I249999J0D01*
G01*
G37*
%TD*%
%TO.C,R3*%
G36*
G01*
X212429999Y-105560000D02*
X213330001Y-105560000D01*
G75*
G02*
X213580000Y-105809999I0J-249999D01*
G01*
X213580000Y-106460001D01*
G75*
G02*
X213330001Y-106710000I-249999J0D01*
G01*
X212429999Y-106710000D01*
G75*
G02*
X212180000Y-106460001I0J249999D01*
G01*
X212180000Y-105809999D01*
G75*
G02*
X212429999Y-105560000I249999J0D01*
G01*
G37*
G36*
G01*
X212429999Y-103510000D02*
X213330001Y-103510000D01*
G75*
G02*
X213580000Y-103759999I0J-249999D01*
G01*
X213580000Y-104410001D01*
G75*
G02*
X213330001Y-104660000I-249999J0D01*
G01*
X212429999Y-104660000D01*
G75*
G02*
X212180000Y-104410001I0J249999D01*
G01*
X212180000Y-103759999D01*
G75*
G02*
X212429999Y-103510000I249999J0D01*
G01*
G37*
%TD*%
%TO.C,C28*%
G36*
G01*
X213268199Y-29699200D02*
X214168201Y-29699200D01*
G75*
G02*
X214418200Y-29949199I0J-249999D01*
G01*
X214418200Y-30599201D01*
G75*
G02*
X214168201Y-30849200I-249999J0D01*
G01*
X213268199Y-30849200D01*
G75*
G02*
X213018200Y-30599201I0J249999D01*
G01*
X213018200Y-29949199D01*
G75*
G02*
X213268199Y-29699200I249999J0D01*
G01*
G37*
G36*
G01*
X213268199Y-27649200D02*
X214168201Y-27649200D01*
G75*
G02*
X214418200Y-27899199I0J-249999D01*
G01*
X214418200Y-28549201D01*
G75*
G02*
X214168201Y-28799200I-249999J0D01*
G01*
X213268199Y-28799200D01*
G75*
G02*
X213018200Y-28549201I0J249999D01*
G01*
X213018200Y-27899199D01*
G75*
G02*
X213268199Y-27649200I249999J0D01*
G01*
G37*
%TD*%
%TO.C,IC6*%
G36*
G01*
X57456500Y-57646500D02*
X57921500Y-57646500D01*
G75*
G02*
X58154000Y-57879000I0J-232500D01*
G01*
X58154000Y-58344000D01*
G75*
G02*
X57921500Y-58576500I-232500J0D01*
G01*
X57456500Y-58576500D01*
G75*
G02*
X57224000Y-58344000I0J232500D01*
G01*
X57224000Y-57879000D01*
G75*
G02*
X57456500Y-57646500I232500J0D01*
G01*
G37*
G36*
G01*
X56306500Y-57646500D02*
X56771500Y-57646500D01*
G75*
G02*
X57004000Y-57879000I0J-232500D01*
G01*
X57004000Y-58344000D01*
G75*
G02*
X56771500Y-58576500I-232500J0D01*
G01*
X56306500Y-58576500D01*
G75*
G02*
X56074000Y-58344000I0J232500D01*
G01*
X56074000Y-57879000D01*
G75*
G02*
X56306500Y-57646500I232500J0D01*
G01*
G37*
G36*
G01*
X55156500Y-57646500D02*
X55621500Y-57646500D01*
G75*
G02*
X55854000Y-57879000I0J-232500D01*
G01*
X55854000Y-58344000D01*
G75*
G02*
X55621500Y-58576500I-232500J0D01*
G01*
X55156500Y-58576500D01*
G75*
G02*
X54924000Y-58344000I0J232500D01*
G01*
X54924000Y-57879000D01*
G75*
G02*
X55156500Y-57646500I232500J0D01*
G01*
G37*
G36*
G01*
X57456500Y-56496500D02*
X57921500Y-56496500D01*
G75*
G02*
X58154000Y-56729000I0J-232500D01*
G01*
X58154000Y-57194000D01*
G75*
G02*
X57921500Y-57426500I-232500J0D01*
G01*
X57456500Y-57426500D01*
G75*
G02*
X57224000Y-57194000I0J232500D01*
G01*
X57224000Y-56729000D01*
G75*
G02*
X57456500Y-56496500I232500J0D01*
G01*
G37*
G36*
G01*
X56306500Y-56496500D02*
X56771500Y-56496500D01*
G75*
G02*
X57004000Y-56729000I0J-232500D01*
G01*
X57004000Y-57194000D01*
G75*
G02*
X56771500Y-57426500I-232500J0D01*
G01*
X56306500Y-57426500D01*
G75*
G02*
X56074000Y-57194000I0J232500D01*
G01*
X56074000Y-56729000D01*
G75*
G02*
X56306500Y-56496500I232500J0D01*
G01*
G37*
G36*
G01*
X55156500Y-56496500D02*
X55621500Y-56496500D01*
G75*
G02*
X55854000Y-56729000I0J-232500D01*
G01*
X55854000Y-57194000D01*
G75*
G02*
X55621500Y-57426500I-232500J0D01*
G01*
X55156500Y-57426500D01*
G75*
G02*
X54924000Y-57194000I0J232500D01*
G01*
X54924000Y-56729000D01*
G75*
G02*
X55156500Y-56496500I232500J0D01*
G01*
G37*
G36*
G01*
X57456500Y-55346500D02*
X57921500Y-55346500D01*
G75*
G02*
X58154000Y-55579000I0J-232500D01*
G01*
X58154000Y-56044000D01*
G75*
G02*
X57921500Y-56276500I-232500J0D01*
G01*
X57456500Y-56276500D01*
G75*
G02*
X57224000Y-56044000I0J232500D01*
G01*
X57224000Y-55579000D01*
G75*
G02*
X57456500Y-55346500I232500J0D01*
G01*
G37*
G36*
G01*
X56306500Y-55346500D02*
X56771500Y-55346500D01*
G75*
G02*
X57004000Y-55579000I0J-232500D01*
G01*
X57004000Y-56044000D01*
G75*
G02*
X56771500Y-56276500I-232500J0D01*
G01*
X56306500Y-56276500D01*
G75*
G02*
X56074000Y-56044000I0J232500D01*
G01*
X56074000Y-55579000D01*
G75*
G02*
X56306500Y-55346500I232500J0D01*
G01*
G37*
G36*
G01*
X55156500Y-55346500D02*
X55621500Y-55346500D01*
G75*
G02*
X55854000Y-55579000I0J-232500D01*
G01*
X55854000Y-56044000D01*
G75*
G02*
X55621500Y-56276500I-232500J0D01*
G01*
X55156500Y-56276500D01*
G75*
G02*
X54924000Y-56044000I0J232500D01*
G01*
X54924000Y-55579000D01*
G75*
G02*
X55156500Y-55346500I232500J0D01*
G01*
G37*
D28*
X54101500Y-55211500D03*
G36*
G01*
X53726500Y-55586500D02*
X54476500Y-55586500D01*
G75*
G02*
X54539000Y-55649000I0J-62500D01*
G01*
X54539000Y-55774000D01*
G75*
G02*
X54476500Y-55836500I-62500J0D01*
G01*
X53726500Y-55836500D01*
G75*
G02*
X53664000Y-55774000I0J62500D01*
G01*
X53664000Y-55649000D01*
G75*
G02*
X53726500Y-55586500I62500J0D01*
G01*
G37*
G36*
G01*
X53726500Y-56086500D02*
X54476500Y-56086500D01*
G75*
G02*
X54539000Y-56149000I0J-62500D01*
G01*
X54539000Y-56274000D01*
G75*
G02*
X54476500Y-56336500I-62500J0D01*
G01*
X53726500Y-56336500D01*
G75*
G02*
X53664000Y-56274000I0J62500D01*
G01*
X53664000Y-56149000D01*
G75*
G02*
X53726500Y-56086500I62500J0D01*
G01*
G37*
G36*
G01*
X53726500Y-56586500D02*
X54476500Y-56586500D01*
G75*
G02*
X54539000Y-56649000I0J-62500D01*
G01*
X54539000Y-56774000D01*
G75*
G02*
X54476500Y-56836500I-62500J0D01*
G01*
X53726500Y-56836500D01*
G75*
G02*
X53664000Y-56774000I0J62500D01*
G01*
X53664000Y-56649000D01*
G75*
G02*
X53726500Y-56586500I62500J0D01*
G01*
G37*
G36*
G01*
X53726500Y-57086500D02*
X54476500Y-57086500D01*
G75*
G02*
X54539000Y-57149000I0J-62500D01*
G01*
X54539000Y-57274000D01*
G75*
G02*
X54476500Y-57336500I-62500J0D01*
G01*
X53726500Y-57336500D01*
G75*
G02*
X53664000Y-57274000I0J62500D01*
G01*
X53664000Y-57149000D01*
G75*
G02*
X53726500Y-57086500I62500J0D01*
G01*
G37*
G36*
G01*
X53726500Y-57586500D02*
X54476500Y-57586500D01*
G75*
G02*
X54539000Y-57649000I0J-62500D01*
G01*
X54539000Y-57774000D01*
G75*
G02*
X54476500Y-57836500I-62500J0D01*
G01*
X53726500Y-57836500D01*
G75*
G02*
X53664000Y-57774000I0J62500D01*
G01*
X53664000Y-57649000D01*
G75*
G02*
X53726500Y-57586500I62500J0D01*
G01*
G37*
G36*
G01*
X53726500Y-58086500D02*
X54476500Y-58086500D01*
G75*
G02*
X54539000Y-58149000I0J-62500D01*
G01*
X54539000Y-58274000D01*
G75*
G02*
X54476500Y-58336500I-62500J0D01*
G01*
X53726500Y-58336500D01*
G75*
G02*
X53664000Y-58274000I0J62500D01*
G01*
X53664000Y-58149000D01*
G75*
G02*
X53726500Y-58086500I62500J0D01*
G01*
G37*
X54101500Y-58711500D03*
D29*
X54789000Y-59399000D03*
G36*
G01*
X55226500Y-58961500D02*
X55351500Y-58961500D01*
G75*
G02*
X55414000Y-59024000I0J-62500D01*
G01*
X55414000Y-59774000D01*
G75*
G02*
X55351500Y-59836500I-62500J0D01*
G01*
X55226500Y-59836500D01*
G75*
G02*
X55164000Y-59774000I0J62500D01*
G01*
X55164000Y-59024000D01*
G75*
G02*
X55226500Y-58961500I62500J0D01*
G01*
G37*
G36*
G01*
X55726500Y-58961500D02*
X55851500Y-58961500D01*
G75*
G02*
X55914000Y-59024000I0J-62500D01*
G01*
X55914000Y-59774000D01*
G75*
G02*
X55851500Y-59836500I-62500J0D01*
G01*
X55726500Y-59836500D01*
G75*
G02*
X55664000Y-59774000I0J62500D01*
G01*
X55664000Y-59024000D01*
G75*
G02*
X55726500Y-58961500I62500J0D01*
G01*
G37*
G36*
G01*
X56226500Y-58961500D02*
X56351500Y-58961500D01*
G75*
G02*
X56414000Y-59024000I0J-62500D01*
G01*
X56414000Y-59774000D01*
G75*
G02*
X56351500Y-59836500I-62500J0D01*
G01*
X56226500Y-59836500D01*
G75*
G02*
X56164000Y-59774000I0J62500D01*
G01*
X56164000Y-59024000D01*
G75*
G02*
X56226500Y-58961500I62500J0D01*
G01*
G37*
G36*
G01*
X56726500Y-58961500D02*
X56851500Y-58961500D01*
G75*
G02*
X56914000Y-59024000I0J-62500D01*
G01*
X56914000Y-59774000D01*
G75*
G02*
X56851500Y-59836500I-62500J0D01*
G01*
X56726500Y-59836500D01*
G75*
G02*
X56664000Y-59774000I0J62500D01*
G01*
X56664000Y-59024000D01*
G75*
G02*
X56726500Y-58961500I62500J0D01*
G01*
G37*
G36*
G01*
X57226500Y-58961500D02*
X57351500Y-58961500D01*
G75*
G02*
X57414000Y-59024000I0J-62500D01*
G01*
X57414000Y-59774000D01*
G75*
G02*
X57351500Y-59836500I-62500J0D01*
G01*
X57226500Y-59836500D01*
G75*
G02*
X57164000Y-59774000I0J62500D01*
G01*
X57164000Y-59024000D01*
G75*
G02*
X57226500Y-58961500I62500J0D01*
G01*
G37*
G36*
G01*
X57726500Y-58961500D02*
X57851500Y-58961500D01*
G75*
G02*
X57914000Y-59024000I0J-62500D01*
G01*
X57914000Y-59774000D01*
G75*
G02*
X57851500Y-59836500I-62500J0D01*
G01*
X57726500Y-59836500D01*
G75*
G02*
X57664000Y-59774000I0J62500D01*
G01*
X57664000Y-59024000D01*
G75*
G02*
X57726500Y-58961500I62500J0D01*
G01*
G37*
X58289000Y-59399000D03*
D28*
X58976500Y-58711500D03*
G36*
G01*
X58601500Y-58086500D02*
X59351500Y-58086500D01*
G75*
G02*
X59414000Y-58149000I0J-62500D01*
G01*
X59414000Y-58274000D01*
G75*
G02*
X59351500Y-58336500I-62500J0D01*
G01*
X58601500Y-58336500D01*
G75*
G02*
X58539000Y-58274000I0J62500D01*
G01*
X58539000Y-58149000D01*
G75*
G02*
X58601500Y-58086500I62500J0D01*
G01*
G37*
G36*
G01*
X58601500Y-57586500D02*
X59351500Y-57586500D01*
G75*
G02*
X59414000Y-57649000I0J-62500D01*
G01*
X59414000Y-57774000D01*
G75*
G02*
X59351500Y-57836500I-62500J0D01*
G01*
X58601500Y-57836500D01*
G75*
G02*
X58539000Y-57774000I0J62500D01*
G01*
X58539000Y-57649000D01*
G75*
G02*
X58601500Y-57586500I62500J0D01*
G01*
G37*
G36*
G01*
X58601500Y-57086500D02*
X59351500Y-57086500D01*
G75*
G02*
X59414000Y-57149000I0J-62500D01*
G01*
X59414000Y-57274000D01*
G75*
G02*
X59351500Y-57336500I-62500J0D01*
G01*
X58601500Y-57336500D01*
G75*
G02*
X58539000Y-57274000I0J62500D01*
G01*
X58539000Y-57149000D01*
G75*
G02*
X58601500Y-57086500I62500J0D01*
G01*
G37*
G36*
G01*
X58601500Y-56586500D02*
X59351500Y-56586500D01*
G75*
G02*
X59414000Y-56649000I0J-62500D01*
G01*
X59414000Y-56774000D01*
G75*
G02*
X59351500Y-56836500I-62500J0D01*
G01*
X58601500Y-56836500D01*
G75*
G02*
X58539000Y-56774000I0J62500D01*
G01*
X58539000Y-56649000D01*
G75*
G02*
X58601500Y-56586500I62500J0D01*
G01*
G37*
G36*
G01*
X58601500Y-56086500D02*
X59351500Y-56086500D01*
G75*
G02*
X59414000Y-56149000I0J-62500D01*
G01*
X59414000Y-56274000D01*
G75*
G02*
X59351500Y-56336500I-62500J0D01*
G01*
X58601500Y-56336500D01*
G75*
G02*
X58539000Y-56274000I0J62500D01*
G01*
X58539000Y-56149000D01*
G75*
G02*
X58601500Y-56086500I62500J0D01*
G01*
G37*
G36*
G01*
X58601500Y-55586500D02*
X59351500Y-55586500D01*
G75*
G02*
X59414000Y-55649000I0J-62500D01*
G01*
X59414000Y-55774000D01*
G75*
G02*
X59351500Y-55836500I-62500J0D01*
G01*
X58601500Y-55836500D01*
G75*
G02*
X58539000Y-55774000I0J62500D01*
G01*
X58539000Y-55649000D01*
G75*
G02*
X58601500Y-55586500I62500J0D01*
G01*
G37*
X58976500Y-55211500D03*
D29*
X58289000Y-54524000D03*
G36*
G01*
X57726500Y-54086500D02*
X57851500Y-54086500D01*
G75*
G02*
X57914000Y-54149000I0J-62500D01*
G01*
X57914000Y-54899000D01*
G75*
G02*
X57851500Y-54961500I-62500J0D01*
G01*
X57726500Y-54961500D01*
G75*
G02*
X57664000Y-54899000I0J62500D01*
G01*
X57664000Y-54149000D01*
G75*
G02*
X57726500Y-54086500I62500J0D01*
G01*
G37*
G36*
G01*
X57226500Y-54086500D02*
X57351500Y-54086500D01*
G75*
G02*
X57414000Y-54149000I0J-62500D01*
G01*
X57414000Y-54899000D01*
G75*
G02*
X57351500Y-54961500I-62500J0D01*
G01*
X57226500Y-54961500D01*
G75*
G02*
X57164000Y-54899000I0J62500D01*
G01*
X57164000Y-54149000D01*
G75*
G02*
X57226500Y-54086500I62500J0D01*
G01*
G37*
G36*
G01*
X56726500Y-54086500D02*
X56851500Y-54086500D01*
G75*
G02*
X56914000Y-54149000I0J-62500D01*
G01*
X56914000Y-54899000D01*
G75*
G02*
X56851500Y-54961500I-62500J0D01*
G01*
X56726500Y-54961500D01*
G75*
G02*
X56664000Y-54899000I0J62500D01*
G01*
X56664000Y-54149000D01*
G75*
G02*
X56726500Y-54086500I62500J0D01*
G01*
G37*
G36*
G01*
X56226500Y-54086500D02*
X56351500Y-54086500D01*
G75*
G02*
X56414000Y-54149000I0J-62500D01*
G01*
X56414000Y-54899000D01*
G75*
G02*
X56351500Y-54961500I-62500J0D01*
G01*
X56226500Y-54961500D01*
G75*
G02*
X56164000Y-54899000I0J62500D01*
G01*
X56164000Y-54149000D01*
G75*
G02*
X56226500Y-54086500I62500J0D01*
G01*
G37*
G36*
G01*
X55726500Y-54086500D02*
X55851500Y-54086500D01*
G75*
G02*
X55914000Y-54149000I0J-62500D01*
G01*
X55914000Y-54899000D01*
G75*
G02*
X55851500Y-54961500I-62500J0D01*
G01*
X55726500Y-54961500D01*
G75*
G02*
X55664000Y-54899000I0J62500D01*
G01*
X55664000Y-54149000D01*
G75*
G02*
X55726500Y-54086500I62500J0D01*
G01*
G37*
G36*
G01*
X55226500Y-54086500D02*
X55351500Y-54086500D01*
G75*
G02*
X55414000Y-54149000I0J-62500D01*
G01*
X55414000Y-54899000D01*
G75*
G02*
X55351500Y-54961500I-62500J0D01*
G01*
X55226500Y-54961500D01*
G75*
G02*
X55164000Y-54899000I0J62500D01*
G01*
X55164000Y-54149000D01*
G75*
G02*
X55226500Y-54086500I62500J0D01*
G01*
G37*
X54789000Y-54524000D03*
%TD*%
%TO.C,R64*%
G36*
G01*
X70473199Y-119716800D02*
X71373201Y-119716800D01*
G75*
G02*
X71623200Y-119966799I0J-249999D01*
G01*
X71623200Y-120616801D01*
G75*
G02*
X71373201Y-120866800I-249999J0D01*
G01*
X70473199Y-120866800D01*
G75*
G02*
X70223200Y-120616801I0J249999D01*
G01*
X70223200Y-119966799D01*
G75*
G02*
X70473199Y-119716800I249999J0D01*
G01*
G37*
G36*
G01*
X70473199Y-117666800D02*
X71373201Y-117666800D01*
G75*
G02*
X71623200Y-117916799I0J-249999D01*
G01*
X71623200Y-118566801D01*
G75*
G02*
X71373201Y-118816800I-249999J0D01*
G01*
X70473199Y-118816800D01*
G75*
G02*
X70223200Y-118566801I0J249999D01*
G01*
X70223200Y-117916799D01*
G75*
G02*
X70473199Y-117666800I249999J0D01*
G01*
G37*
%TD*%
%TO.C,R63*%
G36*
G01*
X68466599Y-119716800D02*
X69366601Y-119716800D01*
G75*
G02*
X69616600Y-119966799I0J-249999D01*
G01*
X69616600Y-120616801D01*
G75*
G02*
X69366601Y-120866800I-249999J0D01*
G01*
X68466599Y-120866800D01*
G75*
G02*
X68216600Y-120616801I0J249999D01*
G01*
X68216600Y-119966799D01*
G75*
G02*
X68466599Y-119716800I249999J0D01*
G01*
G37*
G36*
G01*
X68466599Y-117666800D02*
X69366601Y-117666800D01*
G75*
G02*
X69616600Y-117916799I0J-249999D01*
G01*
X69616600Y-118566801D01*
G75*
G02*
X69366601Y-118816800I-249999J0D01*
G01*
X68466599Y-118816800D01*
G75*
G02*
X68216600Y-118566801I0J249999D01*
G01*
X68216600Y-117916799D01*
G75*
G02*
X68466599Y-117666800I249999J0D01*
G01*
G37*
%TD*%
%TO.C,R62*%
G36*
G01*
X211044000Y-23527001D02*
X211044000Y-22626999D01*
G75*
G02*
X211293999Y-22377000I249999J0D01*
G01*
X211944001Y-22377000D01*
G75*
G02*
X212194000Y-22626999I0J-249999D01*
G01*
X212194000Y-23527001D01*
G75*
G02*
X211944001Y-23777000I-249999J0D01*
G01*
X211293999Y-23777000D01*
G75*
G02*
X211044000Y-23527001I0J249999D01*
G01*
G37*
G36*
G01*
X208994000Y-23527001D02*
X208994000Y-22626999D01*
G75*
G02*
X209243999Y-22377000I249999J0D01*
G01*
X209894001Y-22377000D01*
G75*
G02*
X210144000Y-22626999I0J-249999D01*
G01*
X210144000Y-23527001D01*
G75*
G02*
X209894001Y-23777000I-249999J0D01*
G01*
X209243999Y-23777000D01*
G75*
G02*
X208994000Y-23527001I0J249999D01*
G01*
G37*
%TD*%
%TO.C,R61*%
G36*
G01*
X206853000Y-23527001D02*
X206853000Y-22626999D01*
G75*
G02*
X207102999Y-22377000I249999J0D01*
G01*
X207753001Y-22377000D01*
G75*
G02*
X208003000Y-22626999I0J-249999D01*
G01*
X208003000Y-23527001D01*
G75*
G02*
X207753001Y-23777000I-249999J0D01*
G01*
X207102999Y-23777000D01*
G75*
G02*
X206853000Y-23527001I0J249999D01*
G01*
G37*
G36*
G01*
X204803000Y-23527001D02*
X204803000Y-22626999D01*
G75*
G02*
X205052999Y-22377000I249999J0D01*
G01*
X205703001Y-22377000D01*
G75*
G02*
X205953000Y-22626999I0J-249999D01*
G01*
X205953000Y-23527001D01*
G75*
G02*
X205703001Y-23777000I-249999J0D01*
G01*
X205052999Y-23777000D01*
G75*
G02*
X204803000Y-23527001I0J249999D01*
G01*
G37*
%TD*%
%TO.C,R60*%
G36*
G01*
X202904999Y-22511000D02*
X203805001Y-22511000D01*
G75*
G02*
X204055000Y-22760999I0J-249999D01*
G01*
X204055000Y-23411001D01*
G75*
G02*
X203805001Y-23661000I-249999J0D01*
G01*
X202904999Y-23661000D01*
G75*
G02*
X202655000Y-23411001I0J249999D01*
G01*
X202655000Y-22760999D01*
G75*
G02*
X202904999Y-22511000I249999J0D01*
G01*
G37*
G36*
G01*
X202904999Y-20461000D02*
X203805001Y-20461000D01*
G75*
G02*
X204055000Y-20710999I0J-249999D01*
G01*
X204055000Y-21361001D01*
G75*
G02*
X203805001Y-21611000I-249999J0D01*
G01*
X202904999Y-21611000D01*
G75*
G02*
X202655000Y-21361001I0J249999D01*
G01*
X202655000Y-20710999D01*
G75*
G02*
X202904999Y-20461000I249999J0D01*
G01*
G37*
%TD*%
%TO.C,R59*%
G36*
G01*
X200825999Y-22511000D02*
X201726001Y-22511000D01*
G75*
G02*
X201976000Y-22760999I0J-249999D01*
G01*
X201976000Y-23411001D01*
G75*
G02*
X201726001Y-23661000I-249999J0D01*
G01*
X200825999Y-23661000D01*
G75*
G02*
X200576000Y-23411001I0J249999D01*
G01*
X200576000Y-22760999D01*
G75*
G02*
X200825999Y-22511000I249999J0D01*
G01*
G37*
G36*
G01*
X200825999Y-20461000D02*
X201726001Y-20461000D01*
G75*
G02*
X201976000Y-20710999I0J-249999D01*
G01*
X201976000Y-21361001D01*
G75*
G02*
X201726001Y-21611000I-249999J0D01*
G01*
X200825999Y-21611000D01*
G75*
G02*
X200576000Y-21361001I0J249999D01*
G01*
X200576000Y-20710999D01*
G75*
G02*
X200825999Y-20461000I249999J0D01*
G01*
G37*
%TD*%
%TO.C,R58*%
G36*
G01*
X171928001Y-28469000D02*
X171027999Y-28469000D01*
G75*
G02*
X170778000Y-28219001I0J249999D01*
G01*
X170778000Y-27568999D01*
G75*
G02*
X171027999Y-27319000I249999J0D01*
G01*
X171928001Y-27319000D01*
G75*
G02*
X172178000Y-27568999I0J-249999D01*
G01*
X172178000Y-28219001D01*
G75*
G02*
X171928001Y-28469000I-249999J0D01*
G01*
G37*
G36*
G01*
X171928001Y-30519000D02*
X171027999Y-30519000D01*
G75*
G02*
X170778000Y-30269001I0J249999D01*
G01*
X170778000Y-29618999D01*
G75*
G02*
X171027999Y-29369000I249999J0D01*
G01*
X171928001Y-29369000D01*
G75*
G02*
X172178000Y-29618999I0J-249999D01*
G01*
X172178000Y-30269001D01*
G75*
G02*
X171928001Y-30519000I-249999J0D01*
G01*
G37*
%TD*%
%TO.C,R57*%
G36*
G01*
X166862399Y-29369000D02*
X167762401Y-29369000D01*
G75*
G02*
X168012400Y-29618999I0J-249999D01*
G01*
X168012400Y-30269001D01*
G75*
G02*
X167762401Y-30519000I-249999J0D01*
G01*
X166862399Y-30519000D01*
G75*
G02*
X166612400Y-30269001I0J249999D01*
G01*
X166612400Y-29618999D01*
G75*
G02*
X166862399Y-29369000I249999J0D01*
G01*
G37*
G36*
G01*
X166862399Y-27319000D02*
X167762401Y-27319000D01*
G75*
G02*
X168012400Y-27568999I0J-249999D01*
G01*
X168012400Y-28219001D01*
G75*
G02*
X167762401Y-28469000I-249999J0D01*
G01*
X166862399Y-28469000D01*
G75*
G02*
X166612400Y-28219001I0J249999D01*
G01*
X166612400Y-27568999D01*
G75*
G02*
X166862399Y-27319000I249999J0D01*
G01*
G37*
%TD*%
%TO.C,R56*%
G36*
G01*
X185491601Y-17877200D02*
X184591599Y-17877200D01*
G75*
G02*
X184341600Y-17627201I0J249999D01*
G01*
X184341600Y-16977199D01*
G75*
G02*
X184591599Y-16727200I249999J0D01*
G01*
X185491601Y-16727200D01*
G75*
G02*
X185741600Y-16977199I0J-249999D01*
G01*
X185741600Y-17627201D01*
G75*
G02*
X185491601Y-17877200I-249999J0D01*
G01*
G37*
G36*
G01*
X185491601Y-19927200D02*
X184591599Y-19927200D01*
G75*
G02*
X184341600Y-19677201I0J249999D01*
G01*
X184341600Y-19027199D01*
G75*
G02*
X184591599Y-18777200I249999J0D01*
G01*
X185491601Y-18777200D01*
G75*
G02*
X185741600Y-19027199I0J-249999D01*
G01*
X185741600Y-19677201D01*
G75*
G02*
X185491601Y-19927200I-249999J0D01*
G01*
G37*
%TD*%
%TO.C,R55*%
G36*
G01*
X187523601Y-17877200D02*
X186623599Y-17877200D01*
G75*
G02*
X186373600Y-17627201I0J249999D01*
G01*
X186373600Y-16977199D01*
G75*
G02*
X186623599Y-16727200I249999J0D01*
G01*
X187523601Y-16727200D01*
G75*
G02*
X187773600Y-16977199I0J-249999D01*
G01*
X187773600Y-17627201D01*
G75*
G02*
X187523601Y-17877200I-249999J0D01*
G01*
G37*
G36*
G01*
X187523601Y-19927200D02*
X186623599Y-19927200D01*
G75*
G02*
X186373600Y-19677201I0J249999D01*
G01*
X186373600Y-19027199D01*
G75*
G02*
X186623599Y-18777200I249999J0D01*
G01*
X187523601Y-18777200D01*
G75*
G02*
X187773600Y-19027199I0J-249999D01*
G01*
X187773600Y-19677201D01*
G75*
G02*
X187523601Y-19927200I-249999J0D01*
G01*
G37*
%TD*%
%TO.C,C33*%
G36*
G01*
X217521001Y-38375000D02*
X216620999Y-38375000D01*
G75*
G02*
X216371000Y-38125001I0J249999D01*
G01*
X216371000Y-37474999D01*
G75*
G02*
X216620999Y-37225000I249999J0D01*
G01*
X217521001Y-37225000D01*
G75*
G02*
X217771000Y-37474999I0J-249999D01*
G01*
X217771000Y-38125001D01*
G75*
G02*
X217521001Y-38375000I-249999J0D01*
G01*
G37*
G36*
G01*
X217521001Y-40425000D02*
X216620999Y-40425000D01*
G75*
G02*
X216371000Y-40175001I0J249999D01*
G01*
X216371000Y-39524999D01*
G75*
G02*
X216620999Y-39275000I249999J0D01*
G01*
X217521001Y-39275000D01*
G75*
G02*
X217771000Y-39524999I0J-249999D01*
G01*
X217771000Y-40175001D01*
G75*
G02*
X217521001Y-40425000I-249999J0D01*
G01*
G37*
%TD*%
%TO.C,C31*%
G36*
G01*
X224125001Y-38375000D02*
X223224999Y-38375000D01*
G75*
G02*
X222975000Y-38125001I0J249999D01*
G01*
X222975000Y-37474999D01*
G75*
G02*
X223224999Y-37225000I249999J0D01*
G01*
X224125001Y-37225000D01*
G75*
G02*
X224375000Y-37474999I0J-249999D01*
G01*
X224375000Y-38125001D01*
G75*
G02*
X224125001Y-38375000I-249999J0D01*
G01*
G37*
G36*
G01*
X224125001Y-40425000D02*
X223224999Y-40425000D01*
G75*
G02*
X222975000Y-40175001I0J249999D01*
G01*
X222975000Y-39524999D01*
G75*
G02*
X223224999Y-39275000I249999J0D01*
G01*
X224125001Y-39275000D01*
G75*
G02*
X224375000Y-39524999I0J-249999D01*
G01*
X224375000Y-40175001D01*
G75*
G02*
X224125001Y-40425000I-249999J0D01*
G01*
G37*
%TD*%
%TO.C,C30*%
G36*
G01*
X226284001Y-38375000D02*
X225383999Y-38375000D01*
G75*
G02*
X225134000Y-38125001I0J249999D01*
G01*
X225134000Y-37474999D01*
G75*
G02*
X225383999Y-37225000I249999J0D01*
G01*
X226284001Y-37225000D01*
G75*
G02*
X226534000Y-37474999I0J-249999D01*
G01*
X226534000Y-38125001D01*
G75*
G02*
X226284001Y-38375000I-249999J0D01*
G01*
G37*
G36*
G01*
X226284001Y-40425000D02*
X225383999Y-40425000D01*
G75*
G02*
X225134000Y-40175001I0J249999D01*
G01*
X225134000Y-39524999D01*
G75*
G02*
X225383999Y-39275000I249999J0D01*
G01*
X226284001Y-39275000D01*
G75*
G02*
X226534000Y-39524999I0J-249999D01*
G01*
X226534000Y-40175001D01*
G75*
G02*
X226284001Y-40425000I-249999J0D01*
G01*
G37*
%TD*%
%TO.C,C27*%
G36*
G01*
X211134599Y-29699200D02*
X212034601Y-29699200D01*
G75*
G02*
X212284600Y-29949199I0J-249999D01*
G01*
X212284600Y-30599201D01*
G75*
G02*
X212034601Y-30849200I-249999J0D01*
G01*
X211134599Y-30849200D01*
G75*
G02*
X210884600Y-30599201I0J249999D01*
G01*
X210884600Y-29949199D01*
G75*
G02*
X211134599Y-29699200I249999J0D01*
G01*
G37*
G36*
G01*
X211134599Y-27649200D02*
X212034601Y-27649200D01*
G75*
G02*
X212284600Y-27899199I0J-249999D01*
G01*
X212284600Y-28549201D01*
G75*
G02*
X212034601Y-28799200I-249999J0D01*
G01*
X211134599Y-28799200D01*
G75*
G02*
X210884600Y-28549201I0J249999D01*
G01*
X210884600Y-27899199D01*
G75*
G02*
X211134599Y-27649200I249999J0D01*
G01*
G37*
%TD*%
%TO.C,C26*%
G36*
G01*
X206853001Y-18944000D02*
X205952999Y-18944000D01*
G75*
G02*
X205703000Y-18694001I0J249999D01*
G01*
X205703000Y-18043999D01*
G75*
G02*
X205952999Y-17794000I249999J0D01*
G01*
X206853001Y-17794000D01*
G75*
G02*
X207103000Y-18043999I0J-249999D01*
G01*
X207103000Y-18694001D01*
G75*
G02*
X206853001Y-18944000I-249999J0D01*
G01*
G37*
G36*
G01*
X206853001Y-20994000D02*
X205952999Y-20994000D01*
G75*
G02*
X205703000Y-20744001I0J249999D01*
G01*
X205703000Y-20093999D01*
G75*
G02*
X205952999Y-19844000I249999J0D01*
G01*
X206853001Y-19844000D01*
G75*
G02*
X207103000Y-20093999I0J-249999D01*
G01*
X207103000Y-20744001D01*
G75*
G02*
X206853001Y-20994000I-249999J0D01*
G01*
G37*
%TD*%
%TO.C,C25*%
G36*
G01*
X122323499Y-20352000D02*
X123223501Y-20352000D01*
G75*
G02*
X123473500Y-20601999I0J-249999D01*
G01*
X123473500Y-21252001D01*
G75*
G02*
X123223501Y-21502000I-249999J0D01*
G01*
X122323499Y-21502000D01*
G75*
G02*
X122073500Y-21252001I0J249999D01*
G01*
X122073500Y-20601999D01*
G75*
G02*
X122323499Y-20352000I249999J0D01*
G01*
G37*
G36*
G01*
X122323499Y-18302000D02*
X123223501Y-18302000D01*
G75*
G02*
X123473500Y-18551999I0J-249999D01*
G01*
X123473500Y-19202001D01*
G75*
G02*
X123223501Y-19452000I-249999J0D01*
G01*
X122323499Y-19452000D01*
G75*
G02*
X122073500Y-19202001I0J249999D01*
G01*
X122073500Y-18551999D01*
G75*
G02*
X122323499Y-18302000I249999J0D01*
G01*
G37*
%TD*%
%TO.C,C24*%
G36*
G01*
X183875000Y-29115001D02*
X183875000Y-28214999D01*
G75*
G02*
X184124999Y-27965000I249999J0D01*
G01*
X184775001Y-27965000D01*
G75*
G02*
X185025000Y-28214999I0J-249999D01*
G01*
X185025000Y-29115001D01*
G75*
G02*
X184775001Y-29365000I-249999J0D01*
G01*
X184124999Y-29365000D01*
G75*
G02*
X183875000Y-29115001I0J249999D01*
G01*
G37*
G36*
G01*
X181825000Y-29115001D02*
X181825000Y-28214999D01*
G75*
G02*
X182074999Y-27965000I249999J0D01*
G01*
X182725001Y-27965000D01*
G75*
G02*
X182975000Y-28214999I0J-249999D01*
G01*
X182975000Y-29115001D01*
G75*
G02*
X182725001Y-29365000I-249999J0D01*
G01*
X182074999Y-29365000D01*
G75*
G02*
X181825000Y-29115001I0J249999D01*
G01*
G37*
%TD*%
%TO.C,C23*%
G36*
G01*
X195284999Y-32417000D02*
X196185001Y-32417000D01*
G75*
G02*
X196435000Y-32666999I0J-249999D01*
G01*
X196435000Y-33317001D01*
G75*
G02*
X196185001Y-33567000I-249999J0D01*
G01*
X195284999Y-33567000D01*
G75*
G02*
X195035000Y-33317001I0J249999D01*
G01*
X195035000Y-32666999D01*
G75*
G02*
X195284999Y-32417000I249999J0D01*
G01*
G37*
G36*
G01*
X195284999Y-30367000D02*
X196185001Y-30367000D01*
G75*
G02*
X196435000Y-30616999I0J-249999D01*
G01*
X196435000Y-31267001D01*
G75*
G02*
X196185001Y-31517000I-249999J0D01*
G01*
X195284999Y-31517000D01*
G75*
G02*
X195035000Y-31267001I0J249999D01*
G01*
X195035000Y-30616999D01*
G75*
G02*
X195284999Y-30367000I249999J0D01*
G01*
G37*
%TD*%
%TO.C,C21*%
G36*
G01*
X165781201Y-28469000D02*
X164881199Y-28469000D01*
G75*
G02*
X164631200Y-28219001I0J249999D01*
G01*
X164631200Y-27568999D01*
G75*
G02*
X164881199Y-27319000I249999J0D01*
G01*
X165781201Y-27319000D01*
G75*
G02*
X166031200Y-27568999I0J-249999D01*
G01*
X166031200Y-28219001D01*
G75*
G02*
X165781201Y-28469000I-249999J0D01*
G01*
G37*
G36*
G01*
X165781201Y-30519000D02*
X164881199Y-30519000D01*
G75*
G02*
X164631200Y-30269001I0J249999D01*
G01*
X164631200Y-29618999D01*
G75*
G02*
X164881199Y-29369000I249999J0D01*
G01*
X165781201Y-29369000D01*
G75*
G02*
X166031200Y-29618999I0J-249999D01*
G01*
X166031200Y-30269001D01*
G75*
G02*
X165781201Y-30519000I-249999J0D01*
G01*
G37*
%TD*%
%TO.C,C20*%
G36*
G01*
X168945199Y-29369000D02*
X169845201Y-29369000D01*
G75*
G02*
X170095200Y-29618999I0J-249999D01*
G01*
X170095200Y-30269001D01*
G75*
G02*
X169845201Y-30519000I-249999J0D01*
G01*
X168945199Y-30519000D01*
G75*
G02*
X168695200Y-30269001I0J249999D01*
G01*
X168695200Y-29618999D01*
G75*
G02*
X168945199Y-29369000I249999J0D01*
G01*
G37*
G36*
G01*
X168945199Y-27319000D02*
X169845201Y-27319000D01*
G75*
G02*
X170095200Y-27568999I0J-249999D01*
G01*
X170095200Y-28219001D01*
G75*
G02*
X169845201Y-28469000I-249999J0D01*
G01*
X168945199Y-28469000D01*
G75*
G02*
X168695200Y-28219001I0J249999D01*
G01*
X168695200Y-27568999D01*
G75*
G02*
X168945199Y-27319000I249999J0D01*
G01*
G37*
%TD*%
%TO.C,C19*%
G36*
G01*
X182559599Y-18777200D02*
X183459601Y-18777200D01*
G75*
G02*
X183709600Y-19027199I0J-249999D01*
G01*
X183709600Y-19677201D01*
G75*
G02*
X183459601Y-19927200I-249999J0D01*
G01*
X182559599Y-19927200D01*
G75*
G02*
X182309600Y-19677201I0J249999D01*
G01*
X182309600Y-19027199D01*
G75*
G02*
X182559599Y-18777200I249999J0D01*
G01*
G37*
G36*
G01*
X182559599Y-16727200D02*
X183459601Y-16727200D01*
G75*
G02*
X183709600Y-16977199I0J-249999D01*
G01*
X183709600Y-17627201D01*
G75*
G02*
X183459601Y-17877200I-249999J0D01*
G01*
X182559599Y-17877200D01*
G75*
G02*
X182309600Y-17627201I0J249999D01*
G01*
X182309600Y-16977199D01*
G75*
G02*
X182559599Y-16727200I249999J0D01*
G01*
G37*
%TD*%
%TO.C,C17*%
G36*
G01*
X186507600Y-21672801D02*
X186507600Y-20772799D01*
G75*
G02*
X186757599Y-20522800I249999J0D01*
G01*
X187407601Y-20522800D01*
G75*
G02*
X187657600Y-20772799I0J-249999D01*
G01*
X187657600Y-21672801D01*
G75*
G02*
X187407601Y-21922800I-249999J0D01*
G01*
X186757599Y-21922800D01*
G75*
G02*
X186507600Y-21672801I0J249999D01*
G01*
G37*
G36*
G01*
X184457600Y-21672801D02*
X184457600Y-20772799D01*
G75*
G02*
X184707599Y-20522800I249999J0D01*
G01*
X185357601Y-20522800D01*
G75*
G02*
X185607600Y-20772799I0J-249999D01*
G01*
X185607600Y-21672801D01*
G75*
G02*
X185357601Y-21922800I-249999J0D01*
G01*
X184707599Y-21922800D01*
G75*
G02*
X184457600Y-21672801I0J249999D01*
G01*
G37*
%TD*%
%TO.C,R2*%
G36*
G01*
X101350000Y-120049999D02*
X101350000Y-120950001D01*
G75*
G02*
X101100001Y-121200000I-249999J0D01*
G01*
X100449999Y-121200000D01*
G75*
G02*
X100200000Y-120950001I0J249999D01*
G01*
X100200000Y-120049999D01*
G75*
G02*
X100449999Y-119800000I249999J0D01*
G01*
X101100001Y-119800000D01*
G75*
G02*
X101350000Y-120049999I0J-249999D01*
G01*
G37*
G36*
G01*
X103400000Y-120049999D02*
X103400000Y-120950001D01*
G75*
G02*
X103150001Y-121200000I-249999J0D01*
G01*
X102499999Y-121200000D01*
G75*
G02*
X102250000Y-120950001I0J249999D01*
G01*
X102250000Y-120049999D01*
G75*
G02*
X102499999Y-119800000I249999J0D01*
G01*
X103150001Y-119800000D01*
G75*
G02*
X103400000Y-120049999I0J-249999D01*
G01*
G37*
%TD*%
%TO.C,R1*%
G36*
G01*
X101350000Y-117949999D02*
X101350000Y-118850001D01*
G75*
G02*
X101100001Y-119100000I-249999J0D01*
G01*
X100449999Y-119100000D01*
G75*
G02*
X100200000Y-118850001I0J249999D01*
G01*
X100200000Y-117949999D01*
G75*
G02*
X100449999Y-117700000I249999J0D01*
G01*
X101100001Y-117700000D01*
G75*
G02*
X101350000Y-117949999I0J-249999D01*
G01*
G37*
G36*
G01*
X103400000Y-117949999D02*
X103400000Y-118850001D01*
G75*
G02*
X103150001Y-119100000I-249999J0D01*
G01*
X102499999Y-119100000D01*
G75*
G02*
X102250000Y-118850001I0J249999D01*
G01*
X102250000Y-117949999D01*
G75*
G02*
X102499999Y-117700000I249999J0D01*
G01*
X103150001Y-117700000D01*
G75*
G02*
X103400000Y-117949999I0J-249999D01*
G01*
G37*
%TD*%
%TO.C,R49*%
G36*
G01*
X48649999Y-155350000D02*
X49550001Y-155350000D01*
G75*
G02*
X49800000Y-155599999I0J-249999D01*
G01*
X49800000Y-156250001D01*
G75*
G02*
X49550001Y-156500000I-249999J0D01*
G01*
X48649999Y-156500000D01*
G75*
G02*
X48400000Y-156250001I0J249999D01*
G01*
X48400000Y-155599999D01*
G75*
G02*
X48649999Y-155350000I249999J0D01*
G01*
G37*
G36*
G01*
X48649999Y-153300000D02*
X49550001Y-153300000D01*
G75*
G02*
X49800000Y-153549999I0J-249999D01*
G01*
X49800000Y-154200001D01*
G75*
G02*
X49550001Y-154450000I-249999J0D01*
G01*
X48649999Y-154450000D01*
G75*
G02*
X48400000Y-154200001I0J249999D01*
G01*
X48400000Y-153549999D01*
G75*
G02*
X48649999Y-153300000I249999J0D01*
G01*
G37*
%TD*%
%TO.C,R48*%
G36*
G01*
X70824999Y-77502000D02*
X71725001Y-77502000D01*
G75*
G02*
X71975000Y-77751999I0J-249999D01*
G01*
X71975000Y-78402001D01*
G75*
G02*
X71725001Y-78652000I-249999J0D01*
G01*
X70824999Y-78652000D01*
G75*
G02*
X70575000Y-78402001I0J249999D01*
G01*
X70575000Y-77751999D01*
G75*
G02*
X70824999Y-77502000I249999J0D01*
G01*
G37*
G36*
G01*
X70824999Y-75452000D02*
X71725001Y-75452000D01*
G75*
G02*
X71975000Y-75701999I0J-249999D01*
G01*
X71975000Y-76352001D01*
G75*
G02*
X71725001Y-76602000I-249999J0D01*
G01*
X70824999Y-76602000D01*
G75*
G02*
X70575000Y-76352001I0J249999D01*
G01*
X70575000Y-75701999D01*
G75*
G02*
X70824999Y-75452000I249999J0D01*
G01*
G37*
%TD*%
%TO.C,R47*%
G36*
G01*
X68792999Y-77502000D02*
X69693001Y-77502000D01*
G75*
G02*
X69943000Y-77751999I0J-249999D01*
G01*
X69943000Y-78402001D01*
G75*
G02*
X69693001Y-78652000I-249999J0D01*
G01*
X68792999Y-78652000D01*
G75*
G02*
X68543000Y-78402001I0J249999D01*
G01*
X68543000Y-77751999D01*
G75*
G02*
X68792999Y-77502000I249999J0D01*
G01*
G37*
G36*
G01*
X68792999Y-75452000D02*
X69693001Y-75452000D01*
G75*
G02*
X69943000Y-75701999I0J-249999D01*
G01*
X69943000Y-76352001D01*
G75*
G02*
X69693001Y-76602000I-249999J0D01*
G01*
X68792999Y-76602000D01*
G75*
G02*
X68543000Y-76352001I0J249999D01*
G01*
X68543000Y-75701999D01*
G75*
G02*
X68792999Y-75452000I249999J0D01*
G01*
G37*
%TD*%
%TO.C,R46*%
G36*
G01*
X66760999Y-77502000D02*
X67661001Y-77502000D01*
G75*
G02*
X67911000Y-77751999I0J-249999D01*
G01*
X67911000Y-78402001D01*
G75*
G02*
X67661001Y-78652000I-249999J0D01*
G01*
X66760999Y-78652000D01*
G75*
G02*
X66511000Y-78402001I0J249999D01*
G01*
X66511000Y-77751999D01*
G75*
G02*
X66760999Y-77502000I249999J0D01*
G01*
G37*
G36*
G01*
X66760999Y-75452000D02*
X67661001Y-75452000D01*
G75*
G02*
X67911000Y-75701999I0J-249999D01*
G01*
X67911000Y-76352001D01*
G75*
G02*
X67661001Y-76602000I-249999J0D01*
G01*
X66760999Y-76602000D01*
G75*
G02*
X66511000Y-76352001I0J249999D01*
G01*
X66511000Y-75701999D01*
G75*
G02*
X66760999Y-75452000I249999J0D01*
G01*
G37*
%TD*%
%TO.C,R45*%
G36*
G01*
X64728999Y-77502000D02*
X65629001Y-77502000D01*
G75*
G02*
X65879000Y-77751999I0J-249999D01*
G01*
X65879000Y-78402001D01*
G75*
G02*
X65629001Y-78652000I-249999J0D01*
G01*
X64728999Y-78652000D01*
G75*
G02*
X64479000Y-78402001I0J249999D01*
G01*
X64479000Y-77751999D01*
G75*
G02*
X64728999Y-77502000I249999J0D01*
G01*
G37*
G36*
G01*
X64728999Y-75452000D02*
X65629001Y-75452000D01*
G75*
G02*
X65879000Y-75701999I0J-249999D01*
G01*
X65879000Y-76352001D01*
G75*
G02*
X65629001Y-76602000I-249999J0D01*
G01*
X64728999Y-76602000D01*
G75*
G02*
X64479000Y-76352001I0J249999D01*
G01*
X64479000Y-75701999D01*
G75*
G02*
X64728999Y-75452000I249999J0D01*
G01*
G37*
%TD*%
%TO.C,R30*%
G36*
G01*
X242413000Y-27210001D02*
X242413000Y-26309999D01*
G75*
G02*
X242662999Y-26060000I249999J0D01*
G01*
X243313001Y-26060000D01*
G75*
G02*
X243563000Y-26309999I0J-249999D01*
G01*
X243563000Y-27210001D01*
G75*
G02*
X243313001Y-27460000I-249999J0D01*
G01*
X242662999Y-27460000D01*
G75*
G02*
X242413000Y-27210001I0J249999D01*
G01*
G37*
G36*
G01*
X240363000Y-27210001D02*
X240363000Y-26309999D01*
G75*
G02*
X240612999Y-26060000I249999J0D01*
G01*
X241263001Y-26060000D01*
G75*
G02*
X241513000Y-26309999I0J-249999D01*
G01*
X241513000Y-27210001D01*
G75*
G02*
X241263001Y-27460000I-249999J0D01*
G01*
X240612999Y-27460000D01*
G75*
G02*
X240363000Y-27210001I0J249999D01*
G01*
G37*
%TD*%
%TO.C,R43*%
G36*
G01*
X241955800Y-29877001D02*
X241955800Y-28976999D01*
G75*
G02*
X242205799Y-28727000I249999J0D01*
G01*
X242855801Y-28727000D01*
G75*
G02*
X243105800Y-28976999I0J-249999D01*
G01*
X243105800Y-29877001D01*
G75*
G02*
X242855801Y-30127000I-249999J0D01*
G01*
X242205799Y-30127000D01*
G75*
G02*
X241955800Y-29877001I0J249999D01*
G01*
G37*
G36*
G01*
X239905800Y-29877001D02*
X239905800Y-28976999D01*
G75*
G02*
X240155799Y-28727000I249999J0D01*
G01*
X240805801Y-28727000D01*
G75*
G02*
X241055800Y-28976999I0J-249999D01*
G01*
X241055800Y-29877001D01*
G75*
G02*
X240805801Y-30127000I-249999J0D01*
G01*
X240155799Y-30127000D01*
G75*
G02*
X239905800Y-29877001I0J249999D01*
G01*
G37*
%TD*%
%TO.C,R42*%
G36*
G01*
X237283900Y-28976999D02*
X237283900Y-29877001D01*
G75*
G02*
X237033901Y-30127000I-249999J0D01*
G01*
X236383899Y-30127000D01*
G75*
G02*
X236133900Y-29877001I0J249999D01*
G01*
X236133900Y-28976999D01*
G75*
G02*
X236383899Y-28727000I249999J0D01*
G01*
X237033901Y-28727000D01*
G75*
G02*
X237283900Y-28976999I0J-249999D01*
G01*
G37*
G36*
G01*
X239333900Y-28976999D02*
X239333900Y-29877001D01*
G75*
G02*
X239083901Y-30127000I-249999J0D01*
G01*
X238433899Y-30127000D01*
G75*
G02*
X238183900Y-29877001I0J249999D01*
G01*
X238183900Y-28976999D01*
G75*
G02*
X238433899Y-28727000I249999J0D01*
G01*
X239083901Y-28727000D01*
G75*
G02*
X239333900Y-28976999I0J-249999D01*
G01*
G37*
%TD*%
%TO.C,R41*%
G36*
G01*
X241879600Y-53346601D02*
X241879600Y-52446599D01*
G75*
G02*
X242129599Y-52196600I249999J0D01*
G01*
X242779601Y-52196600D01*
G75*
G02*
X243029600Y-52446599I0J-249999D01*
G01*
X243029600Y-53346601D01*
G75*
G02*
X242779601Y-53596600I-249999J0D01*
G01*
X242129599Y-53596600D01*
G75*
G02*
X241879600Y-53346601I0J249999D01*
G01*
G37*
G36*
G01*
X239829600Y-53346601D02*
X239829600Y-52446599D01*
G75*
G02*
X240079599Y-52196600I249999J0D01*
G01*
X240729601Y-52196600D01*
G75*
G02*
X240979600Y-52446599I0J-249999D01*
G01*
X240979600Y-53346601D01*
G75*
G02*
X240729601Y-53596600I-249999J0D01*
G01*
X240079599Y-53596600D01*
G75*
G02*
X239829600Y-53346601I0J249999D01*
G01*
G37*
%TD*%
%TO.C,R40*%
G36*
G01*
X236952000Y-53346601D02*
X236952000Y-52446599D01*
G75*
G02*
X237201999Y-52196600I249999J0D01*
G01*
X237852001Y-52196600D01*
G75*
G02*
X238102000Y-52446599I0J-249999D01*
G01*
X238102000Y-53346601D01*
G75*
G02*
X237852001Y-53596600I-249999J0D01*
G01*
X237201999Y-53596600D01*
G75*
G02*
X236952000Y-53346601I0J249999D01*
G01*
G37*
G36*
G01*
X234902000Y-53346601D02*
X234902000Y-52446599D01*
G75*
G02*
X235151999Y-52196600I249999J0D01*
G01*
X235802001Y-52196600D01*
G75*
G02*
X236052000Y-52446599I0J-249999D01*
G01*
X236052000Y-53346601D01*
G75*
G02*
X235802001Y-53596600I-249999J0D01*
G01*
X235151999Y-53596600D01*
G75*
G02*
X234902000Y-53346601I0J249999D01*
G01*
G37*
%TD*%
%TO.C,R39*%
G36*
G01*
X100427001Y-134006000D02*
X99526999Y-134006000D01*
G75*
G02*
X99277000Y-133756001I0J249999D01*
G01*
X99277000Y-133105999D01*
G75*
G02*
X99526999Y-132856000I249999J0D01*
G01*
X100427001Y-132856000D01*
G75*
G02*
X100677000Y-133105999I0J-249999D01*
G01*
X100677000Y-133756001D01*
G75*
G02*
X100427001Y-134006000I-249999J0D01*
G01*
G37*
G36*
G01*
X100427001Y-136056000D02*
X99526999Y-136056000D01*
G75*
G02*
X99277000Y-135806001I0J249999D01*
G01*
X99277000Y-135155999D01*
G75*
G02*
X99526999Y-134906000I249999J0D01*
G01*
X100427001Y-134906000D01*
G75*
G02*
X100677000Y-135155999I0J-249999D01*
G01*
X100677000Y-135806001D01*
G75*
G02*
X100427001Y-136056000I-249999J0D01*
G01*
G37*
%TD*%
%TO.C,R38*%
G36*
G01*
X80488001Y-134015000D02*
X79587999Y-134015000D01*
G75*
G02*
X79338000Y-133765001I0J249999D01*
G01*
X79338000Y-133114999D01*
G75*
G02*
X79587999Y-132865000I249999J0D01*
G01*
X80488001Y-132865000D01*
G75*
G02*
X80738000Y-133114999I0J-249999D01*
G01*
X80738000Y-133765001D01*
G75*
G02*
X80488001Y-134015000I-249999J0D01*
G01*
G37*
G36*
G01*
X80488001Y-136065000D02*
X79587999Y-136065000D01*
G75*
G02*
X79338000Y-135815001I0J249999D01*
G01*
X79338000Y-135164999D01*
G75*
G02*
X79587999Y-134915000I249999J0D01*
G01*
X80488001Y-134915000D01*
G75*
G02*
X80738000Y-135164999I0J-249999D01*
G01*
X80738000Y-135815001D01*
G75*
G02*
X80488001Y-136065000I-249999J0D01*
G01*
G37*
%TD*%
%TO.C,R37*%
G36*
G01*
X97379001Y-153691000D02*
X96478999Y-153691000D01*
G75*
G02*
X96229000Y-153441001I0J249999D01*
G01*
X96229000Y-152790999D01*
G75*
G02*
X96478999Y-152541000I249999J0D01*
G01*
X97379001Y-152541000D01*
G75*
G02*
X97629000Y-152790999I0J-249999D01*
G01*
X97629000Y-153441001D01*
G75*
G02*
X97379001Y-153691000I-249999J0D01*
G01*
G37*
G36*
G01*
X97379001Y-155741000D02*
X96478999Y-155741000D01*
G75*
G02*
X96229000Y-155491001I0J249999D01*
G01*
X96229000Y-154840999D01*
G75*
G02*
X96478999Y-154591000I249999J0D01*
G01*
X97379001Y-154591000D01*
G75*
G02*
X97629000Y-154840999I0J-249999D01*
G01*
X97629000Y-155491001D01*
G75*
G02*
X97379001Y-155741000I-249999J0D01*
G01*
G37*
%TD*%
%TO.C,R36*%
G36*
G01*
X80107001Y-149500000D02*
X79206999Y-149500000D01*
G75*
G02*
X78957000Y-149250001I0J249999D01*
G01*
X78957000Y-148599999D01*
G75*
G02*
X79206999Y-148350000I249999J0D01*
G01*
X80107001Y-148350000D01*
G75*
G02*
X80357000Y-148599999I0J-249999D01*
G01*
X80357000Y-149250001D01*
G75*
G02*
X80107001Y-149500000I-249999J0D01*
G01*
G37*
G36*
G01*
X80107001Y-151550000D02*
X79206999Y-151550000D01*
G75*
G02*
X78957000Y-151300001I0J249999D01*
G01*
X78957000Y-150649999D01*
G75*
G02*
X79206999Y-150400000I249999J0D01*
G01*
X80107001Y-150400000D01*
G75*
G02*
X80357000Y-150649999I0J-249999D01*
G01*
X80357000Y-151300001D01*
G75*
G02*
X80107001Y-151550000I-249999J0D01*
G01*
G37*
%TD*%
%TO.C,R35*%
G36*
G01*
X78075001Y-134006000D02*
X77174999Y-134006000D01*
G75*
G02*
X76925000Y-133756001I0J249999D01*
G01*
X76925000Y-133105999D01*
G75*
G02*
X77174999Y-132856000I249999J0D01*
G01*
X78075001Y-132856000D01*
G75*
G02*
X78325000Y-133105999I0J-249999D01*
G01*
X78325000Y-133756001D01*
G75*
G02*
X78075001Y-134006000I-249999J0D01*
G01*
G37*
G36*
G01*
X78075001Y-136056000D02*
X77174999Y-136056000D01*
G75*
G02*
X76925000Y-135806001I0J249999D01*
G01*
X76925000Y-135155999D01*
G75*
G02*
X77174999Y-134906000I249999J0D01*
G01*
X78075001Y-134906000D01*
G75*
G02*
X78325000Y-135155999I0J-249999D01*
G01*
X78325000Y-135806001D01*
G75*
G02*
X78075001Y-136056000I-249999J0D01*
G01*
G37*
%TD*%
%TO.C,R34*%
G36*
G01*
X57998841Y-133997000D02*
X57098839Y-133997000D01*
G75*
G02*
X56848840Y-133747001I0J249999D01*
G01*
X56848840Y-133096999D01*
G75*
G02*
X57098839Y-132847000I249999J0D01*
G01*
X57998841Y-132847000D01*
G75*
G02*
X58248840Y-133096999I0J-249999D01*
G01*
X58248840Y-133747001D01*
G75*
G02*
X57998841Y-133997000I-249999J0D01*
G01*
G37*
G36*
G01*
X57998841Y-136047000D02*
X57098839Y-136047000D01*
G75*
G02*
X56848840Y-135797001I0J249999D01*
G01*
X56848840Y-135146999D01*
G75*
G02*
X57098839Y-134897000I249999J0D01*
G01*
X57998841Y-134897000D01*
G75*
G02*
X58248840Y-135146999I0J-249999D01*
G01*
X58248840Y-135797001D01*
G75*
G02*
X57998841Y-136047000I-249999J0D01*
G01*
G37*
%TD*%
%TO.C,R33*%
G36*
G01*
X74000000Y-153690999D02*
X74000000Y-154591001D01*
G75*
G02*
X73750001Y-154841000I-249999J0D01*
G01*
X73099999Y-154841000D01*
G75*
G02*
X72850000Y-154591001I0J249999D01*
G01*
X72850000Y-153690999D01*
G75*
G02*
X73099999Y-153441000I249999J0D01*
G01*
X73750001Y-153441000D01*
G75*
G02*
X74000000Y-153690999I0J-249999D01*
G01*
G37*
G36*
G01*
X76050000Y-153690999D02*
X76050000Y-154591001D01*
G75*
G02*
X75800001Y-154841000I-249999J0D01*
G01*
X75149999Y-154841000D01*
G75*
G02*
X74900000Y-154591001I0J249999D01*
G01*
X74900000Y-153690999D01*
G75*
G02*
X75149999Y-153441000I249999J0D01*
G01*
X75800001Y-153441000D01*
G75*
G02*
X76050000Y-153690999I0J-249999D01*
G01*
G37*
%TD*%
%TO.C,R32*%
G36*
G01*
X57247001Y-149246000D02*
X56346999Y-149246000D01*
G75*
G02*
X56097000Y-148996001I0J249999D01*
G01*
X56097000Y-148345999D01*
G75*
G02*
X56346999Y-148096000I249999J0D01*
G01*
X57247001Y-148096000D01*
G75*
G02*
X57497000Y-148345999I0J-249999D01*
G01*
X57497000Y-148996001D01*
G75*
G02*
X57247001Y-149246000I-249999J0D01*
G01*
G37*
G36*
G01*
X57247001Y-151296000D02*
X56346999Y-151296000D01*
G75*
G02*
X56097000Y-151046001I0J249999D01*
G01*
X56097000Y-150395999D01*
G75*
G02*
X56346999Y-150146000I249999J0D01*
G01*
X57247001Y-150146000D01*
G75*
G02*
X57497000Y-150395999I0J-249999D01*
G01*
X57497000Y-151046001D01*
G75*
G02*
X57247001Y-151296000I-249999J0D01*
G01*
G37*
%TD*%
%TO.C,R31*%
G36*
G01*
X43849000Y-129953001D02*
X43849000Y-129052999D01*
G75*
G02*
X44098999Y-128803000I249999J0D01*
G01*
X44749001Y-128803000D01*
G75*
G02*
X44999000Y-129052999I0J-249999D01*
G01*
X44999000Y-129953001D01*
G75*
G02*
X44749001Y-130203000I-249999J0D01*
G01*
X44098999Y-130203000D01*
G75*
G02*
X43849000Y-129953001I0J249999D01*
G01*
G37*
G36*
G01*
X41799000Y-129953001D02*
X41799000Y-129052999D01*
G75*
G02*
X42048999Y-128803000I249999J0D01*
G01*
X42699001Y-128803000D01*
G75*
G02*
X42949000Y-129052999I0J-249999D01*
G01*
X42949000Y-129953001D01*
G75*
G02*
X42699001Y-130203000I-249999J0D01*
G01*
X42048999Y-130203000D01*
G75*
G02*
X41799000Y-129953001I0J249999D01*
G01*
G37*
%TD*%
%TO.C,R29*%
G36*
G01*
X39012000Y-129052999D02*
X39012000Y-129953001D01*
G75*
G02*
X38762001Y-130203000I-249999J0D01*
G01*
X38111999Y-130203000D01*
G75*
G02*
X37862000Y-129953001I0J249999D01*
G01*
X37862000Y-129052999D01*
G75*
G02*
X38111999Y-128803000I249999J0D01*
G01*
X38762001Y-128803000D01*
G75*
G02*
X39012000Y-129052999I0J-249999D01*
G01*
G37*
G36*
G01*
X41062000Y-129052999D02*
X41062000Y-129953001D01*
G75*
G02*
X40812001Y-130203000I-249999J0D01*
G01*
X40161999Y-130203000D01*
G75*
G02*
X39912000Y-129953001I0J249999D01*
G01*
X39912000Y-129052999D01*
G75*
G02*
X40161999Y-128803000I249999J0D01*
G01*
X40812001Y-128803000D01*
G75*
G02*
X41062000Y-129052999I0J-249999D01*
G01*
G37*
%TD*%
%TO.C,R28*%
G36*
G01*
X51612001Y-154453000D02*
X50711999Y-154453000D01*
G75*
G02*
X50462000Y-154203001I0J249999D01*
G01*
X50462000Y-153552999D01*
G75*
G02*
X50711999Y-153303000I249999J0D01*
G01*
X51612001Y-153303000D01*
G75*
G02*
X51862000Y-153552999I0J-249999D01*
G01*
X51862000Y-154203001D01*
G75*
G02*
X51612001Y-154453000I-249999J0D01*
G01*
G37*
G36*
G01*
X51612001Y-156503000D02*
X50711999Y-156503000D01*
G75*
G02*
X50462000Y-156253001I0J249999D01*
G01*
X50462000Y-155602999D01*
G75*
G02*
X50711999Y-155353000I249999J0D01*
G01*
X51612001Y-155353000D01*
G75*
G02*
X51862000Y-155602999I0J-249999D01*
G01*
X51862000Y-156253001D01*
G75*
G02*
X51612001Y-156503000I-249999J0D01*
G01*
G37*
%TD*%
%TO.C,R27*%
G36*
G01*
X47421001Y-154453000D02*
X46520999Y-154453000D01*
G75*
G02*
X46271000Y-154203001I0J249999D01*
G01*
X46271000Y-153552999D01*
G75*
G02*
X46520999Y-153303000I249999J0D01*
G01*
X47421001Y-153303000D01*
G75*
G02*
X47671000Y-153552999I0J-249999D01*
G01*
X47671000Y-154203001D01*
G75*
G02*
X47421001Y-154453000I-249999J0D01*
G01*
G37*
G36*
G01*
X47421001Y-156503000D02*
X46520999Y-156503000D01*
G75*
G02*
X46271000Y-156253001I0J249999D01*
G01*
X46271000Y-155602999D01*
G75*
G02*
X46520999Y-155353000I249999J0D01*
G01*
X47421001Y-155353000D01*
G75*
G02*
X47671000Y-155602999I0J-249999D01*
G01*
X47671000Y-156253001D01*
G75*
G02*
X47421001Y-156503000I-249999J0D01*
G01*
G37*
%TD*%
%TO.C,C14*%
G36*
G01*
X53271901Y-22686800D02*
X52371899Y-22686800D01*
G75*
G02*
X52121900Y-22436801I0J249999D01*
G01*
X52121900Y-21786799D01*
G75*
G02*
X52371899Y-21536800I249999J0D01*
G01*
X53271901Y-21536800D01*
G75*
G02*
X53521900Y-21786799I0J-249999D01*
G01*
X53521900Y-22436801D01*
G75*
G02*
X53271901Y-22686800I-249999J0D01*
G01*
G37*
G36*
G01*
X53271901Y-24736800D02*
X52371899Y-24736800D01*
G75*
G02*
X52121900Y-24486801I0J249999D01*
G01*
X52121900Y-23836799D01*
G75*
G02*
X52371899Y-23586800I249999J0D01*
G01*
X53271901Y-23586800D01*
G75*
G02*
X53521900Y-23836799I0J-249999D01*
G01*
X53521900Y-24486801D01*
G75*
G02*
X53271901Y-24736800I-249999J0D01*
G01*
G37*
%TD*%
%TO.C,C12*%
G36*
G01*
X57132701Y-22686800D02*
X56232699Y-22686800D01*
G75*
G02*
X55982700Y-22436801I0J249999D01*
G01*
X55982700Y-21786799D01*
G75*
G02*
X56232699Y-21536800I249999J0D01*
G01*
X57132701Y-21536800D01*
G75*
G02*
X57382700Y-21786799I0J-249999D01*
G01*
X57382700Y-22436801D01*
G75*
G02*
X57132701Y-22686800I-249999J0D01*
G01*
G37*
G36*
G01*
X57132701Y-24736800D02*
X56232699Y-24736800D01*
G75*
G02*
X55982700Y-24486801I0J249999D01*
G01*
X55982700Y-23836799D01*
G75*
G02*
X56232699Y-23586800I249999J0D01*
G01*
X57132701Y-23586800D01*
G75*
G02*
X57382700Y-23836799I0J-249999D01*
G01*
X57382700Y-24486801D01*
G75*
G02*
X57132701Y-24736800I-249999J0D01*
G01*
G37*
%TD*%
%TO.C,R10*%
G36*
G01*
X50187500Y-41740499D02*
X50187500Y-42640501D01*
G75*
G02*
X49937501Y-42890500I-249999J0D01*
G01*
X49287499Y-42890500D01*
G75*
G02*
X49037500Y-42640501I0J249999D01*
G01*
X49037500Y-41740499D01*
G75*
G02*
X49287499Y-41490500I249999J0D01*
G01*
X49937501Y-41490500D01*
G75*
G02*
X50187500Y-41740499I0J-249999D01*
G01*
G37*
G36*
G01*
X52237500Y-41740499D02*
X52237500Y-42640501D01*
G75*
G02*
X51987501Y-42890500I-249999J0D01*
G01*
X51337499Y-42890500D01*
G75*
G02*
X51087500Y-42640501I0J249999D01*
G01*
X51087500Y-41740499D01*
G75*
G02*
X51337499Y-41490500I249999J0D01*
G01*
X51987501Y-41490500D01*
G75*
G02*
X52237500Y-41740499I0J-249999D01*
G01*
G37*
%TD*%
%TO.C,R9*%
G36*
G01*
X47029000Y-53614999D02*
X47029000Y-54515001D01*
G75*
G02*
X46779001Y-54765000I-249999J0D01*
G01*
X46128999Y-54765000D01*
G75*
G02*
X45879000Y-54515001I0J249999D01*
G01*
X45879000Y-53614999D01*
G75*
G02*
X46128999Y-53365000I249999J0D01*
G01*
X46779001Y-53365000D01*
G75*
G02*
X47029000Y-53614999I0J-249999D01*
G01*
G37*
G36*
G01*
X49079000Y-53614999D02*
X49079000Y-54515001D01*
G75*
G02*
X48829001Y-54765000I-249999J0D01*
G01*
X48178999Y-54765000D01*
G75*
G02*
X47929000Y-54515001I0J249999D01*
G01*
X47929000Y-53614999D01*
G75*
G02*
X48178999Y-53365000I249999J0D01*
G01*
X48829001Y-53365000D01*
G75*
G02*
X49079000Y-53614999I0J-249999D01*
G01*
G37*
%TD*%
%TO.C,C11*%
G36*
G01*
X51068000Y-44775001D02*
X51068000Y-43874999D01*
G75*
G02*
X51317999Y-43625000I249999J0D01*
G01*
X51968001Y-43625000D01*
G75*
G02*
X52218000Y-43874999I0J-249999D01*
G01*
X52218000Y-44775001D01*
G75*
G02*
X51968001Y-45025000I-249999J0D01*
G01*
X51317999Y-45025000D01*
G75*
G02*
X51068000Y-44775001I0J249999D01*
G01*
G37*
G36*
G01*
X49018000Y-44775001D02*
X49018000Y-43874999D01*
G75*
G02*
X49267999Y-43625000I249999J0D01*
G01*
X49918001Y-43625000D01*
G75*
G02*
X50168000Y-43874999I0J-249999D01*
G01*
X50168000Y-44775001D01*
G75*
G02*
X49918001Y-45025000I-249999J0D01*
G01*
X49267999Y-45025000D01*
G75*
G02*
X49018000Y-44775001I0J249999D01*
G01*
G37*
%TD*%
%TO.C,C10*%
G36*
G01*
X47929000Y-60611001D02*
X47929000Y-59710999D01*
G75*
G02*
X48178999Y-59461000I249999J0D01*
G01*
X48829001Y-59461000D01*
G75*
G02*
X49079000Y-59710999I0J-249999D01*
G01*
X49079000Y-60611001D01*
G75*
G02*
X48829001Y-60861000I-249999J0D01*
G01*
X48178999Y-60861000D01*
G75*
G02*
X47929000Y-60611001I0J249999D01*
G01*
G37*
G36*
G01*
X45879000Y-60611001D02*
X45879000Y-59710999D01*
G75*
G02*
X46128999Y-59461000I249999J0D01*
G01*
X46779001Y-59461000D01*
G75*
G02*
X47029000Y-59710999I0J-249999D01*
G01*
X47029000Y-60611001D01*
G75*
G02*
X46779001Y-60861000I-249999J0D01*
G01*
X46128999Y-60861000D01*
G75*
G02*
X45879000Y-60611001I0J249999D01*
G01*
G37*
%TD*%
%TO.C,C9*%
G36*
G01*
X47929000Y-58579001D02*
X47929000Y-57678999D01*
G75*
G02*
X48178999Y-57429000I249999J0D01*
G01*
X48829001Y-57429000D01*
G75*
G02*
X49079000Y-57678999I0J-249999D01*
G01*
X49079000Y-58579001D01*
G75*
G02*
X48829001Y-58829000I-249999J0D01*
G01*
X48178999Y-58829000D01*
G75*
G02*
X47929000Y-58579001I0J249999D01*
G01*
G37*
G36*
G01*
X45879000Y-58579001D02*
X45879000Y-57678999D01*
G75*
G02*
X46128999Y-57429000I249999J0D01*
G01*
X46779001Y-57429000D01*
G75*
G02*
X47029000Y-57678999I0J-249999D01*
G01*
X47029000Y-58579001D01*
G75*
G02*
X46779001Y-58829000I-249999J0D01*
G01*
X46128999Y-58829000D01*
G75*
G02*
X45879000Y-58579001I0J249999D01*
G01*
G37*
%TD*%
%TO.C,C2*%
G36*
G01*
X47929000Y-52483001D02*
X47929000Y-51582999D01*
G75*
G02*
X48178999Y-51333000I249999J0D01*
G01*
X48829001Y-51333000D01*
G75*
G02*
X49079000Y-51582999I0J-249999D01*
G01*
X49079000Y-52483001D01*
G75*
G02*
X48829001Y-52733000I-249999J0D01*
G01*
X48178999Y-52733000D01*
G75*
G02*
X47929000Y-52483001I0J249999D01*
G01*
G37*
G36*
G01*
X45879000Y-52483001D02*
X45879000Y-51582999D01*
G75*
G02*
X46128999Y-51333000I249999J0D01*
G01*
X46779001Y-51333000D01*
G75*
G02*
X47029000Y-51582999I0J-249999D01*
G01*
X47029000Y-52483001D01*
G75*
G02*
X46779001Y-52733000I-249999J0D01*
G01*
X46128999Y-52733000D01*
G75*
G02*
X45879000Y-52483001I0J249999D01*
G01*
G37*
%TD*%
%TO.C,C13*%
G36*
G01*
X71031999Y-51848000D02*
X71932001Y-51848000D01*
G75*
G02*
X72182000Y-52097999I0J-249999D01*
G01*
X72182000Y-52748001D01*
G75*
G02*
X71932001Y-52998000I-249999J0D01*
G01*
X71031999Y-52998000D01*
G75*
G02*
X70782000Y-52748001I0J249999D01*
G01*
X70782000Y-52097999D01*
G75*
G02*
X71031999Y-51848000I249999J0D01*
G01*
G37*
G36*
G01*
X71031999Y-49798000D02*
X71932001Y-49798000D01*
G75*
G02*
X72182000Y-50047999I0J-249999D01*
G01*
X72182000Y-50698001D01*
G75*
G02*
X71932001Y-50948000I-249999J0D01*
G01*
X71031999Y-50948000D01*
G75*
G02*
X70782000Y-50698001I0J249999D01*
G01*
X70782000Y-50047999D01*
G75*
G02*
X71031999Y-49798000I249999J0D01*
G01*
G37*
%TD*%
%TO.C,R8*%
G36*
G01*
X60617999Y-62262000D02*
X61518001Y-62262000D01*
G75*
G02*
X61768000Y-62511999I0J-249999D01*
G01*
X61768000Y-63162001D01*
G75*
G02*
X61518001Y-63412000I-249999J0D01*
G01*
X60617999Y-63412000D01*
G75*
G02*
X60368000Y-63162001I0J249999D01*
G01*
X60368000Y-62511999D01*
G75*
G02*
X60617999Y-62262000I249999J0D01*
G01*
G37*
G36*
G01*
X60617999Y-60212000D02*
X61518001Y-60212000D01*
G75*
G02*
X61768000Y-60461999I0J-249999D01*
G01*
X61768000Y-61112001D01*
G75*
G02*
X61518001Y-61362000I-249999J0D01*
G01*
X60617999Y-61362000D01*
G75*
G02*
X60368000Y-61112001I0J249999D01*
G01*
X60368000Y-60461999D01*
G75*
G02*
X60617999Y-60212000I249999J0D01*
G01*
G37*
%TD*%
%TO.C,R7*%
G36*
G01*
X62649999Y-62262000D02*
X63550001Y-62262000D01*
G75*
G02*
X63800000Y-62511999I0J-249999D01*
G01*
X63800000Y-63162001D01*
G75*
G02*
X63550001Y-63412000I-249999J0D01*
G01*
X62649999Y-63412000D01*
G75*
G02*
X62400000Y-63162001I0J249999D01*
G01*
X62400000Y-62511999D01*
G75*
G02*
X62649999Y-62262000I249999J0D01*
G01*
G37*
G36*
G01*
X62649999Y-60212000D02*
X63550001Y-60212000D01*
G75*
G02*
X63800000Y-60461999I0J-249999D01*
G01*
X63800000Y-61112001D01*
G75*
G02*
X63550001Y-61362000I-249999J0D01*
G01*
X62649999Y-61362000D01*
G75*
G02*
X62400000Y-61112001I0J249999D01*
G01*
X62400000Y-60461999D01*
G75*
G02*
X62649999Y-60212000I249999J0D01*
G01*
G37*
%TD*%
%TO.C,R6*%
G36*
G01*
X64681999Y-62262000D02*
X65582001Y-62262000D01*
G75*
G02*
X65832000Y-62511999I0J-249999D01*
G01*
X65832000Y-63162001D01*
G75*
G02*
X65582001Y-63412000I-249999J0D01*
G01*
X64681999Y-63412000D01*
G75*
G02*
X64432000Y-63162001I0J249999D01*
G01*
X64432000Y-62511999D01*
G75*
G02*
X64681999Y-62262000I249999J0D01*
G01*
G37*
G36*
G01*
X64681999Y-60212000D02*
X65582001Y-60212000D01*
G75*
G02*
X65832000Y-60461999I0J-249999D01*
G01*
X65832000Y-61112001D01*
G75*
G02*
X65582001Y-61362000I-249999J0D01*
G01*
X64681999Y-61362000D01*
G75*
G02*
X64432000Y-61112001I0J249999D01*
G01*
X64432000Y-60461999D01*
G75*
G02*
X64681999Y-60212000I249999J0D01*
G01*
G37*
%TD*%
%TO.C,R5*%
G36*
G01*
X66840999Y-62262000D02*
X67741001Y-62262000D01*
G75*
G02*
X67991000Y-62511999I0J-249999D01*
G01*
X67991000Y-63162001D01*
G75*
G02*
X67741001Y-63412000I-249999J0D01*
G01*
X66840999Y-63412000D01*
G75*
G02*
X66591000Y-63162001I0J249999D01*
G01*
X66591000Y-62511999D01*
G75*
G02*
X66840999Y-62262000I249999J0D01*
G01*
G37*
G36*
G01*
X66840999Y-60212000D02*
X67741001Y-60212000D01*
G75*
G02*
X67991000Y-60461999I0J-249999D01*
G01*
X67991000Y-61112001D01*
G75*
G02*
X67741001Y-61362000I-249999J0D01*
G01*
X66840999Y-61362000D01*
G75*
G02*
X66591000Y-61112001I0J249999D01*
G01*
X66591000Y-60461999D01*
G75*
G02*
X66840999Y-60212000I249999J0D01*
G01*
G37*
%TD*%
%TO.C,R4*%
G36*
G01*
X65963000Y-55658001D02*
X65963000Y-54757999D01*
G75*
G02*
X66212999Y-54508000I249999J0D01*
G01*
X66863001Y-54508000D01*
G75*
G02*
X67113000Y-54757999I0J-249999D01*
G01*
X67113000Y-55658001D01*
G75*
G02*
X66863001Y-55908000I-249999J0D01*
G01*
X66212999Y-55908000D01*
G75*
G02*
X65963000Y-55658001I0J249999D01*
G01*
G37*
G36*
G01*
X63913000Y-55658001D02*
X63913000Y-54757999D01*
G75*
G02*
X64162999Y-54508000I249999J0D01*
G01*
X64813001Y-54508000D01*
G75*
G02*
X65063000Y-54757999I0J-249999D01*
G01*
X65063000Y-55658001D01*
G75*
G02*
X64813001Y-55908000I-249999J0D01*
G01*
X64162999Y-55908000D01*
G75*
G02*
X63913000Y-55658001I0J249999D01*
G01*
G37*
%TD*%
%TO.C,C6*%
G36*
G01*
X47929000Y-56547001D02*
X47929000Y-55646999D01*
G75*
G02*
X48178999Y-55397000I249999J0D01*
G01*
X48829001Y-55397000D01*
G75*
G02*
X49079000Y-55646999I0J-249999D01*
G01*
X49079000Y-56547001D01*
G75*
G02*
X48829001Y-56797000I-249999J0D01*
G01*
X48178999Y-56797000D01*
G75*
G02*
X47929000Y-56547001I0J249999D01*
G01*
G37*
G36*
G01*
X45879000Y-56547001D02*
X45879000Y-55646999D01*
G75*
G02*
X46128999Y-55397000I249999J0D01*
G01*
X46779001Y-55397000D01*
G75*
G02*
X47029000Y-55646999I0J-249999D01*
G01*
X47029000Y-56547001D01*
G75*
G02*
X46779001Y-56797000I-249999J0D01*
G01*
X46128999Y-56797000D01*
G75*
G02*
X45879000Y-56547001I0J249999D01*
G01*
G37*
%TD*%
%TO.C,C5*%
G36*
G01*
X60883001Y-47646000D02*
X59982999Y-47646000D01*
G75*
G02*
X59733000Y-47396001I0J249999D01*
G01*
X59733000Y-46745999D01*
G75*
G02*
X59982999Y-46496000I249999J0D01*
G01*
X60883001Y-46496000D01*
G75*
G02*
X61133000Y-46745999I0J-249999D01*
G01*
X61133000Y-47396001D01*
G75*
G02*
X60883001Y-47646000I-249999J0D01*
G01*
G37*
G36*
G01*
X60883001Y-49696000D02*
X59982999Y-49696000D01*
G75*
G02*
X59733000Y-49446001I0J249999D01*
G01*
X59733000Y-48795999D01*
G75*
G02*
X59982999Y-48546000I249999J0D01*
G01*
X60883001Y-48546000D01*
G75*
G02*
X61133000Y-48795999I0J-249999D01*
G01*
X61133000Y-49446001D01*
G75*
G02*
X60883001Y-49696000I-249999J0D01*
G01*
G37*
%TD*%
%TO.C,C4*%
G36*
G01*
X55918999Y-48546000D02*
X56819001Y-48546000D01*
G75*
G02*
X57069000Y-48795999I0J-249999D01*
G01*
X57069000Y-49446001D01*
G75*
G02*
X56819001Y-49696000I-249999J0D01*
G01*
X55918999Y-49696000D01*
G75*
G02*
X55669000Y-49446001I0J249999D01*
G01*
X55669000Y-48795999D01*
G75*
G02*
X55918999Y-48546000I249999J0D01*
G01*
G37*
G36*
G01*
X55918999Y-46496000D02*
X56819001Y-46496000D01*
G75*
G02*
X57069000Y-46745999I0J-249999D01*
G01*
X57069000Y-47396001D01*
G75*
G02*
X56819001Y-47646000I-249999J0D01*
G01*
X55918999Y-47646000D01*
G75*
G02*
X55669000Y-47396001I0J249999D01*
G01*
X55669000Y-46745999D01*
G75*
G02*
X55918999Y-46496000I249999J0D01*
G01*
G37*
%TD*%
M02*
